<svg width="380" height="100" viewBox="0 0 380 100" fill="none" xmlns="http://www.w3.org/2000/svg">
<path d="M27.9471 2.32812L0 96.8703H30.2604L33.5157 82.4292H55.347L58.6854 96.8703H88.9458L60.2577 2.32812H27.9471ZM44.3898 34.8118L50.7965 62.6412H38.0524L44.3898 34.8118Z" fill="black"/>
<path d="M94.743 2.32812H122.247V75.8632H149.266V96.8703H94.743V2.32812Z" fill="black"/>
<path d="M156.081 2.32812H214.046V22.0954H184.624V38.6074H213.375V58.998H184.624V75.9948H213.956V96.8703H156.081V2.32812Z" fill="black"/>
<path d="M379.935 2.32812H352.625V96.8703H379.935V2.32812Z" fill="black"/>
<path d="M316.983 70.3144C316.983 65.2376 311.456 63.0835 305.423 60.036C294.743 54.7029 284.444 47.2157 284.444 31.2232C284.444 11.4212 300.526 0 318.493 0C330.053 0 337.588 4.69594 340.733 7.23092V33.1209C335.455 27.6631 329.048 24.11 322.136 24.11C315.979 24.11 312.585 26.3956 312.585 30.0734C312.585 34.3884 317.108 36.0368 324.145 39.59C334.949 45.0478 345.124 52.4103 345.124 68.6522C345.124 88.7034 329.041 100 310.569 100C298.255 100 289.334 95.0478 286.321 92.7691V66.8791C292.603 72.5932 299.765 75.89 307.556 75.89C314.219 75.9039 316.983 73.8676 316.983 70.3144Z" fill="black"/>
<path d="M252.611 70.3144C252.611 65.2376 247.084 63.0835 241.051 60.036C230.371 54.7029 220.072 47.2157 220.072 31.2232C220.072 11.4212 236.155 0 254.121 0C265.681 0 273.217 4.69594 276.361 7.23092V33.1209C271.083 27.6631 264.677 24.11 257.764 24.11C251.607 24.11 248.213 26.3956 248.213 30.0734C248.213 34.3884 252.736 36.0368 259.773 39.59C270.578 45.0478 280.752 52.4103 280.752 68.6522C280.752 88.7034 264.67 100 246.204 100C233.89 100 224.969 95.0478 221.956 92.7691V66.8791C228.238 72.5932 235.4 75.89 243.192 75.89C249.848 75.9039 252.611 73.8676 252.611 70.3144Z" fill="black"/>
</svg>
