<svg width="85" height="25" viewBox="0 0 85 25" fill="none" xmlns="http://www.w3.org/2000/svg">
<path d="M6.88504 2.354L0.784668 22.9909H7.39L8.10058 19.8387H12.866L13.5947 22.9909H20.2L13.9379 2.354H6.88504ZM10.4742 9.44465L11.8727 15.5193H9.09085L10.4742 9.44465Z" fill="#FE3B1F"/>
<path d="M21.4653 2.354H27.4689V18.4055H33.3667V22.9909H21.4653V2.354Z" fill="#FE3B1F"/>
<path d="M34.8545 2.354H47.5073V6.66886H41.0849V10.2731H47.3606V14.7241H41.0849V18.4342H47.4876V22.9909H34.8545V2.354Z" fill="#FE3B1F"/>
<path d="M83.7181 2.354H77.7568V22.9909H83.7181V2.354Z" fill="#FE3B1F"/>
<path d="M69.9768 17.1944C69.9768 16.0863 68.7703 15.6161 67.4535 14.9508C65.1222 13.7867 62.874 12.1524 62.874 8.66149C62.874 4.33907 66.3846 1.84601 70.3063 1.84601C72.8296 1.84601 74.4746 2.87105 75.1609 3.42439V9.07574C74.0089 7.88439 72.6104 7.10881 71.1016 7.10881C69.7575 7.10881 69.0167 7.60772 69.0167 8.41052C69.0167 9.35241 70.004 9.71223 71.54 10.4878C73.8985 11.6792 76.1195 13.2863 76.1195 16.8316C76.1195 21.2084 72.6089 23.6743 68.5768 23.6743C65.8887 23.6743 63.9414 22.5933 63.2837 22.0959V16.4446C64.655 17.6919 66.2183 18.4115 67.9191 18.4115C69.3735 18.4145 69.9768 17.97 69.9768 17.1944Z" fill="#FE3B1F"/>
<path d="M55.9255 17.1944C55.9255 16.0863 54.719 15.6161 53.4022 14.9508C51.0709 13.7867 48.8228 12.1524 48.8228 8.66149C48.8228 4.33907 52.3333 1.84601 56.2551 1.84601C58.7784 1.84601 60.4233 2.87105 61.1097 3.42439V9.07574C59.9576 7.88439 58.5592 7.10881 57.0503 7.10881C55.7063 7.10881 54.9655 7.60772 54.9655 8.41052C54.9655 9.35241 55.9527 9.71223 57.4888 10.4878C59.8473 11.6792 62.0682 13.2863 62.0682 16.8316C62.0682 21.2084 58.5576 23.6743 54.527 23.6743C51.8389 23.6743 49.8916 22.5933 49.234 22.0959V16.4446C50.6052 17.6919 52.1685 18.4115 53.8694 18.4115C55.3223 18.4145 55.9255 17.97 55.9255 17.1944Z" fill="#FE3B1F"/>
</svg>
