<svg width="477" height="60" viewBox="0 0 477 60" fill="none" xmlns="http://www.w3.org/2000/svg">
<path d="M465.855 0.30875C461.139 2.02558 459.056 7.08451 461.231 11.4796C462.078 13.1964 463.337 14.4097 465.122 15.2566C466.221 15.7602 466.702 15.8518 468.464 15.8518C470.25 15.8289 470.685 15.7602 471.829 15.188C473.409 14.3868 474.759 13.0362 475.606 11.388C476.179 10.2664 476.247 9.90012 476.247 7.95437C476.224 5.36768 475.789 4.20024 474.21 2.5063C472.699 0.881028 470.959 0.102731 468.693 0.0111666C467.411 -0.0346155 466.564 0.0569487 465.855 0.30875ZM470.547 1.93402C472.058 2.43762 473.867 4.24602 474.37 5.75683C475.217 8.25196 474.668 10.5868 472.814 12.4639C470.25 15.0048 466.45 15.0048 463.909 12.4639C461.299 9.83144 461.277 6.0773 463.863 3.46772C465.695 1.65932 468.098 1.08705 470.547 1.93402Z" fill="black"/>
<path d="M464.916 7.84058V12.0754H465.946H466.976V10.4731V8.87068H467.617C468.396 8.87068 468.785 9.25983 469.586 10.8622L470.181 12.0754H471.326H472.47L471.669 10.4731C471.211 9.5803 470.662 8.68755 470.41 8.48153C469.998 8.11527 469.998 8.09238 470.662 7.47432C471.165 7.0165 471.326 6.65024 471.326 6.00929C471.326 4.13222 470.433 3.60573 467.205 3.60573H464.916V7.84058ZM469.06 5.68882C469.243 6.05507 469.243 6.32977 469.06 6.71892C468.853 7.17674 468.647 7.2683 467.892 7.2683H466.976V6.2382V5.2081H467.892C468.579 5.2081 468.853 5.32256 469.06 5.68882Z" fill="black"/>
<path d="M138.788 4.52134C131.28 5.11651 125.191 7.79477 120.521 12.4874C116.103 16.9741 113.608 22.6969 113.127 29.61C112.326 40.4375 116.767 50.0517 124.985 55.3853C130.204 58.7732 134.416 59.9407 141.352 59.9407C149.364 59.9407 155.041 58.4985 160.283 55.1564L161.611 54.3095V42.7952V31.3039H151.996H142.382V35.1038C142.382 37.3701 142.474 39.064 142.634 39.3616C143.069 40.1857 144.213 40.4604 147.304 40.4604H150.165V44.5807V48.7011L149.547 48.9529C146.983 49.9144 145.427 50.1662 142.039 50.1891C138.262 50.1891 137.163 49.9602 134.393 48.6325C132.104 47.5337 129.266 44.6036 128.029 42.0627C126.656 39.2471 126.129 37.0267 125.969 33.3641C125.603 24.2306 129.449 17.6837 136.499 15.4633C138.376 14.8681 142.405 14.6621 144.923 15.0284C147.395 15.3946 149.226 16.0585 152.294 17.6608C156.323 19.7668 156.964 19.515 160.214 14.4561C161.107 13.0597 161.839 11.8465 161.839 11.7549C161.839 11.5489 160.443 10.3357 159.024 9.32847C154.056 5.78035 146.296 3.92617 138.788 4.52134Z" fill="black"/>
<path d="M320.932 4.52135C309.624 5.39121 300.673 11.9838 296.988 22.1475C296.072 24.7342 295.523 27.6871 295.363 30.9606C294.722 44.9699 303.489 56.5757 316.811 59.3455C319.421 59.8949 323.244 60.1009 326.38 59.872C339.199 58.9335 348.676 50.6927 351.308 38.1712C351.88 35.4472 351.88 28.9919 351.308 26.2679C349.752 18.8512 345.883 12.9911 339.931 9.05378C334.689 5.57434 328.051 3.99485 320.932 4.52135ZM327.296 15.1886C332.766 16.2874 336.658 20.2246 338.26 26.2221C338.787 28.1907 338.855 28.8775 338.855 32.2196C338.855 35.5617 338.787 36.2484 338.26 38.217C337.413 41.3989 336.292 43.4362 334.209 45.5193C331.301 48.4493 328.509 49.4794 323.564 49.4794C319.101 49.4794 316.01 48.4493 313.446 46.0916C309.99 42.9326 308.296 38.3773 308.296 32.2196C308.296 30.2052 308.433 28.4883 308.685 27.298C310.127 20.4078 314.271 16.1042 320.428 15.0513C322.259 14.7537 325.441 14.7994 327.296 15.1886Z" fill="black"/>
<path d="M396.312 4.54375C389.582 5.1847 384.317 8.59547 381.73 13.952C380.494 16.5616 380.151 18.0953 380.197 21.2314C380.219 25.5578 381.456 28.7167 384.18 31.4179C386.286 33.501 388.712 34.76 393.817 36.3395C400.158 38.331 401.577 38.9719 403.042 40.437C404.026 41.3984 404.324 42.4972 404.209 44.4429C403.98 47.8308 402.195 49.5476 398.372 49.9597C396.747 50.1428 393.954 49.7765 392.329 49.1585C391.642 48.9067 389.902 48.0368 388.46 47.2127C383.722 44.5345 383.195 44.6947 379.876 49.9139C378.938 51.3789 378.159 52.6837 378.159 52.7753C378.159 53.0729 379.556 54.309 381.021 55.2704C387.819 59.8257 397.411 61.2679 404.484 58.8185C409.978 56.9186 413.915 52.7982 415.472 47.3272C416.09 45.1754 416.319 41.1237 415.952 38.9491C415.357 35.4925 412.885 31.9444 409.749 30.0444C407.918 28.9228 404.324 27.4577 400.592 26.2674C395.03 24.5277 392.672 23.0626 392.123 21.0253C391.642 19.2398 392.329 17.0652 393.748 15.8748C395.076 14.7303 395.923 14.5243 398.761 14.5014C401.829 14.4785 402.607 14.6845 406.407 16.5616C409.016 17.8435 409.818 18.0037 410.848 17.4772C411.763 16.9965 412.061 16.6074 413.846 13.2424L415.495 10.1521L414.968 9.71714C411.214 6.69551 406.659 4.97868 401.119 4.52086C399.631 4.4064 398.372 4.31484 398.303 4.33773C398.235 4.33773 397.342 4.42929 396.312 4.54375Z" fill="black"/>
<path d="M19.3429 9.03015C17.7176 13.2879 11.331 29.8153 4.21194 48.1968C1.89995 54.1485 0 59.1159 0 59.2532C0 59.3677 2.10597 59.4592 5.3336 59.4592C13.0937 59.4363 12.8419 59.6195 15.3599 52.2714L17.0538 47.3269L27.4463 47.3727L37.8159 47.4414L39.5099 52.363C40.4255 55.0641 41.3869 57.5364 41.6158 57.8568C41.8447 58.1773 42.4857 58.658 43.0351 58.9327C43.9965 59.4363 44.2941 59.4592 49.5132 59.4592C53.7938 59.4592 54.9613 59.3905 54.8697 59.1616C54.8011 59.0243 53.5192 55.6822 52.0084 51.7907C50.4975 47.8763 47.1555 39.2235 44.5688 32.5622C41.9821 25.878 38.5256 16.9734 36.9003 12.7614L33.9474 5.09288L27.4234 5.02421L20.8995 4.97843L19.3429 9.03015ZM31.1089 27.5033C33.1462 33.5465 34.7943 38.5139 34.7943 38.5597C34.7943 38.5825 31.498 38.6283 27.4692 38.6283C21.4718 38.6283 20.1441 38.5825 20.1441 38.3079C20.1441 38.1476 21.632 33.6839 23.4175 28.4189C25.2259 23.154 26.8511 18.2782 27.0114 17.6143C27.1716 16.9505 27.3319 16.424 27.3547 16.4698C27.4005 16.5155 29.0716 21.4829 31.1089 27.5033Z" fill="black"/>
<path d="M59.5166 32.218V59.4584H65.1478H70.779L70.6874 42.3358L70.6187 25.2362L73.1367 28.4409C74.5331 30.2036 77.8752 34.4155 80.5763 37.8263C83.2546 41.2142 86.8027 45.7008 88.4508 47.7839C94.929 56.0018 96.8289 58.268 97.6759 58.7945C98.5 59.321 98.7976 59.3439 102.849 59.4126L107.13 59.5041V32.2409V4.97757H101.499H95.8904L95.9591 22.1459C96.0049 31.5999 96.0049 39.3142 95.982 39.3142C95.9362 39.3142 83.3919 23.4965 73.1825 10.5401C70.2754 6.85464 69.3368 5.80165 68.5585 5.43539C67.7116 5.02335 67.1622 4.97757 63.5683 4.97757H59.5166V32.218Z" fill="black"/>
<path d="M169.393 32.2188V59.4592H185.875H202.356V54.4232V49.3871H192.17H181.983V27.1828V4.97843H175.688H169.393V32.2188Z" fill="black"/>
<path d="M208.079 32.2188V59.4592H225.705H243.331V54.6521V49.845L232.183 49.7992L221.013 49.7305L220.944 43.2752L220.898 36.797L229.414 36.7513L237.952 36.6826V32.1044V27.5262L229.414 27.4575L220.898 27.4117L220.944 21.048L221.013 14.7071L232.183 14.6385L243.331 14.5927V9.78556V4.97843H225.705H208.079V32.2188Z" fill="black"/>
<path d="M250.428 32.1959V59.4592H256.723H263.018L263.063 50.3486L263.132 41.2608L269.084 41.1235C275.241 40.9861 276.684 40.803 279.751 39.7729C284.306 38.2392 287.831 35.2862 289.663 31.4634C291.792 27.0454 292.135 21.3456 290.578 16.6529C289.846 14.4553 288.976 12.9903 287.511 11.3193C285.519 9.09883 283.047 7.54224 279.865 6.46635C276.02 5.16156 275.539 5.13867 262.514 5.04711L250.428 4.95554V32.1959ZM271.396 14.5927C274.829 15.0276 276.912 16.3782 278.08 18.8962C278.652 20.0866 278.698 20.4528 278.698 23.0624C278.698 25.672 278.652 26.0382 278.103 27.1828C276.409 30.8225 274.028 31.761 266.543 31.761H263.018V23.2226C263.018 18.5071 263.086 14.5927 263.178 14.524C263.407 14.2951 269.519 14.3409 271.396 14.5927Z" fill="black"/>
<path d="M359.16 32.2188V59.4592H365.455H371.75V32.2188V4.97843H365.455H359.16V32.2188Z" fill="black"/>
<path d="M422.339 32.2188V59.4592H439.851H457.362V54.6521V49.845L446.329 49.7992L435.272 49.7305L435.204 43.2752L435.158 36.797L443.673 36.7513L452.212 36.6826V32.1044V27.5262L443.696 27.4575L435.158 27.4117V21.0022V14.5927H446.26H457.362V9.78556V4.97843H439.851H422.339V32.2188Z" fill="black"/>
</svg>
