<svg width="468" height="85" viewBox="0 0 468 85" fill="none" xmlns="http://www.w3.org/2000/svg">
<g clip-path="url(#clip0_117_197)">
<path d="M36.4216 84.8619C63.2448 84.8619 74.3622 76.0817 74.3622 52.5763C74.3622 31.4236 65.4204 22.1452 38.0834 22.1452C24.2845 22.1452 16.6252 23.2602 11.2601 24.2468V0H0.0143585V83.2526H11.0013C19.0479 84.1224 26.4562 84.8619 36.4216 84.8619ZM146.283 84.8619C174.642 84.8619 183.582 76.574 183.582 53.5668C183.582 30.4311 174.77 22.1452 146.283 22.1452C117.798 22.1452 108.979 30.4311 108.979 53.5668C108.979 76.574 117.921 84.8619 146.283 84.8619ZM256.141 83.6223V53.5668C256.141 37.4872 259.973 31.5462 275.685 31.5462C290.634 31.5462 295.234 37.4872 295.234 53.5668V83.6223H306.476V53.5668C306.476 30.0614 300.214 22.1452 275.685 22.1452C262.401 22.1452 254.995 24.9921 250.395 32.0404C245.796 24.9921 238.384 22.1452 225.356 22.1452C200.827 22.1452 194.571 30.0614 194.571 53.5668V83.6223H205.811V53.5668C205.811 37.1116 210.411 31.5462 225.356 31.5462C241.066 31.5462 244.899 37.4872 244.899 53.5668V83.6223H256.141ZM36.8069 75.5835C26.3336 75.5835 18.4116 74.2272 11.2601 72.9876V33.6478C18.2812 32.6612 25.1797 31.6707 36.9353 31.6707C56.2218 31.6707 63.1222 37.855 63.1222 53.3138C63.1222 69.1501 55.5855 75.5835 36.8069 75.5835ZM397.296 80.536C406.623 82.8848 418.76 84.8619 432.044 84.8619C456.824 84.8619 467.048 78.4285 467.048 65.194C467.048 52.8234 457.719 47.7503 432.3 47.7503C411.731 47.7503 407.649 45.0279 407.649 39.7115C407.649 34.2705 412.755 31.5462 429.872 31.5462C442.394 31.5462 450.692 33.2781 459.639 35.8721L462.317 26.3524C453.759 23.7525 442.776 22.1452 431.024 22.1452C406.366 22.1452 396.407 28.5766 396.407 40.6981C396.407 53.6913 406.495 57.6455 430.767 57.6455C451.077 57.6455 455.806 60.3699 455.806 65.8108C455.806 71.6273 449.925 75.459 433.324 75.459C420.673 75.459 409.947 73.3573 399.853 70.5123L397.296 80.536ZM146.283 75.459C126.224 75.459 120.349 70.02 120.349 53.5668C120.349 37.1136 126.096 31.5462 146.283 31.5462C166.465 31.5462 172.211 37.1116 172.211 53.5668C172.211 70.02 166.337 75.459 146.283 75.459ZM319.121 23.8771V53.5668C319.121 76.9437 326.786 84.8619 352.714 84.8619C378.648 84.8619 386.313 76.9437 386.313 53.5668V23.8771H375.073V53.5668C375.073 70.02 370.088 75.459 352.714 75.459C335.34 75.459 330.361 70.02 330.361 53.5668V23.8771H319.121ZM97.2312 0H85.9894V83.6223H97.2312V0Z" fill="black"/>
</g>
<defs>
<clipPath id="clip0_117_197">
<rect width="467.5" height="85" fill="white"/>
</clipPath>
</defs>
</svg>
