<svg width="400" height="125" viewBox="0 0 400 125" fill="none" xmlns="http://www.w3.org/2000/svg">
<path d="M27.9 0.268349C25.9 0.548355 25 0.748352 24.7 0.968353C24.6 1.06835 24.06 1.26835 23.5 1.42835C22.96 1.58836 21.78 2.10835 20.9 2.56835C20.02 3.02835 19.04 3.54836 18.7 3.72836C17.84 4.16835 13.94 8.12835 13.48 9.00835C12.24 11.4084 11.4 13.1684 11.2 13.8684C11.06 14.3083 10.88 14.7484 10.8 14.8684C10.7 14.9684 10.48 15.7484 10.28 16.5684C10 17.8284 9.92 19.4484 9.86 26.9684C9.8 32.7084 9.7 35.9484 9.56 36.1084C9.4 36.3084 8.18 36.3684 4.68 36.3684H0V44.4684V52.5684H4.9H9.8V76.5684V100.568H20.2H30.6V76.5684V52.5684H38.7H46.8V44.4684V36.3684H38.68H30.58L30.64 28.7084C30.7 21.9084 30.74 20.9884 31.06 20.3884C31.24 20.0084 31.4 19.6084 31.4 19.5084C31.4 19.0684 32.48 17.9084 33.18 17.6084C34.42 17.0484 40.66 17.3084 42.1 17.9684C42.32 18.0684 43.5 18.3484 44.7 18.5884C45.92 18.8084 47 19.0884 47.1 19.1684C47.22 19.2484 47.64 19.3684 48.04 19.4484C48.84 19.5884 48.86 19.5684 49.12 18.0684C49.2 17.6284 49.32 17.1684 49.42 17.0684C49.5 16.9484 49.72 16.1884 49.9 15.3684C50.08 14.5484 50.3 13.7084 50.4 13.5284C50.52 13.3284 50.78 12.3083 51.02 11.2284C51.24 10.1484 51.52 9.16835 51.6 9.06835C51.68 8.94836 51.82 8.54836 51.9 8.16835C52.24 6.44835 52.64 4.84835 52.8 4.52835C53.04 4.10835 52.76 3.86835 51.6 3.56835C51.1 3.42835 50.6 3.24835 50.48 3.14835C50.36 3.04836 49.64 2.82835 48.88 2.64835C48.12 2.48835 47.4 2.26835 47.3 2.16835C47.18 2.06835 46.18 1.80835 45.1 1.56835C44 1.34835 42.92 1.06835 42.7 0.968353C40.74 0.108353 32 -0.311646 27.9 0.268349Z" fill="black"/>
<path d="M178.34 1.30863C178.26 1.36864 178.2 23.3686 178.2 50.1886C178.2 96.4486 178.22 98.9486 178.56 99.0486C178.74 99.1086 179.26 99.2086 179.7 99.2686C180.14 99.3486 180.68 99.4686 180.9 99.5686C181.12 99.6686 182.7 99.9286 184.4 100.169C186.1 100.409 187.68 100.669 187.9 100.769C188.34 100.949 191.3 101.289 194.1 101.489C195.1 101.569 196.04 101.689 196.22 101.789C196.84 102.109 207.12 102.389 210 102.169C213.14 101.929 213.8 101.869 214.2 101.709C214.36 101.649 215.4 101.449 216.5 101.269C217.6 101.089 218.54 100.889 218.6 100.809C218.66 100.729 219.34 100.489 220.1 100.289C220.88 100.089 221.9 99.7486 222.4 99.5286C224.44 98.6086 226.6 97.5086 226.6 97.3886C226.6 97.3286 226.86 97.1486 227.16 97.0086C227.46 96.8886 228.34 96.2486 229.08 95.6286C229.84 94.9886 230.6 94.3686 230.78 94.2686C231.4 93.8886 232.2 93.0886 232.2 92.8686C232.2 92.7486 232.48 92.3886 232.82 92.0486C234.12 90.8086 235.72 88.4486 236.8 86.1686C237.04 85.6686 237.38 84.9486 237.58 84.5686C237.78 84.1886 238.06 83.4086 238.2 82.8686C238.34 82.3086 238.54 81.7686 238.62 81.6686C238.7 81.5486 238.92 80.8286 239.1 80.0686C239.28 79.2886 239.52 78.4886 239.62 78.2686C239.72 78.0486 239.94 76.7886 240.14 75.4686C240.72 71.3286 240.52 58.9686 239.84 57.8686C239.76 57.7486 239.7 57.4886 239.7 57.2686C239.68 57.0486 239.62 56.7286 239.54 56.5686C239.48 56.4086 239.28 55.5486 239.1 54.6886C238.94 53.8086 238.72 53.0086 238.62 52.8886C238.54 52.7686 238.3 52.0886 238.1 51.3686C237.92 50.6486 237.64 49.8486 237.52 49.5686C237.38 49.2886 236.96 48.4286 236.6 47.6686C236.24 46.8886 235.58 45.7486 235.16 45.1286C234.74 44.4886 234.4 43.8886 234.4 43.7686C234.4 43.6686 234.22 43.4686 234 43.3286C233.78 43.1886 233.6 42.9686 233.6 42.8286C233.6 42.5086 229.82 38.7686 229.48 38.7686C229.34 38.7686 229.12 38.5886 229 38.3686C228.88 38.1486 228.68 37.9686 228.58 37.9686C228.46 37.9686 227.98 37.7086 227.52 37.4086C226.54 36.7486 224.4 35.7086 223.3 35.3686C222.86 35.2286 222.42 35.0486 222.3 34.9686C221.96 34.7086 219 34.1486 217.34 34.0286C216.48 33.9686 215.74 33.8286 215.68 33.7486C215.54 33.5086 211.26 33.5086 211.12 33.7286C211.06 33.8286 210.3 33.9686 209.44 34.0286C207.82 34.1486 205.06 34.6886 204.7 34.9686C204.6 35.0486 203.84 35.3086 203.06 35.5686C202.26 35.8286 201.6 36.1086 201.6 36.2086C201.6 36.2886 201.5 36.3686 201.4 36.3686C201.28 36.3686 200.78 36.6286 200.24 36.9686L199.3 37.5486L199.14 32.8086C199.06 30.2086 198.94 22.0286 198.9 14.6686L198.82 1.26864L188.64 1.20863C183.04 1.18864 178.4 1.22864 178.34 1.30863ZM213.02 51.6486C214.52 52.3286 216.2 53.5886 216.2 54.0286C216.2 54.1086 216.52 54.6286 216.9 55.1886C217.28 55.7486 217.6 56.3686 217.6 56.5486C217.6 56.7486 217.72 57.0686 217.88 57.2686C218.02 57.4686 218.1 57.8086 218.04 58.0086C218 58.2086 218.04 58.3686 218.14 58.3686C218.38 58.3686 218.8 60.5886 218.94 62.7086C219 63.6286 219.14 64.4286 219.24 64.4886C219.46 64.6286 219.44 70.6886 219.22 71.1286C219.12 71.3086 218.94 72.4486 218.8 73.6486C218.68 74.8486 218.46 76.1486 218.3 76.5086C218.14 76.8686 218.08 77.1686 218.14 77.1686C218.2 77.1686 218.16 77.2886 218.06 77.4086C217.96 77.5486 217.7 78.1086 217.5 78.6686C217.14 79.6886 216.46 80.7486 215.46 81.9086C214.88 82.5886 212.84 84.1686 212.56 84.1686C212.48 84.1686 212.02 84.3486 211.54 84.5686C209.8 85.3686 207 85.5486 201.9 85.1486C200.18 85.0286 199.06 84.8486 198.96 84.7086C198.88 84.5686 198.82 78.0486 198.8 70.2286V55.9686L199.24 55.4686C199.48 55.1886 199.76 54.9686 199.86 54.9686C199.96 54.9686 200.54 54.6086 201.14 54.1686C201.76 53.7286 202.38 53.3686 202.52 53.3686C202.66 53.3686 202.8 53.3086 202.84 53.2086C202.88 53.1286 203.4 52.8486 204 52.5886C204.6 52.3286 205.28 52.0286 205.48 51.9286C206.88 51.1886 211.64 51.0086 213.02 51.6486Z" fill="black"/>
<path d="M128.96 26.1086L128.9 35.0686L123.26 35.1286L117.6 35.1686V43.2686V51.3686H123.3H129V66.9086C129 80.9486 129.14 86.2086 129.52 87.1686C129.6 87.3286 129.68 87.6486 129.7 87.8686C129.8 88.6686 130.56 91.0886 130.98 91.9086C131.22 92.3686 131.4 92.8286 131.4 92.9286C131.4 93.0486 131.72 93.5886 132.1 94.1486C132.48 94.7086 132.8 95.2286 132.8 95.3086C132.8 95.4886 135.9 98.5686 136.06 98.5686C136.14 98.5686 136.74 98.9286 137.42 99.3686C138.1 99.8086 138.74 100.169 138.84 100.169C138.92 100.169 139.38 100.349 139.86 100.569C140.82 101.009 142.86 101.569 143.54 101.569C143.78 101.569 144.04 101.669 144.12 101.789C144.2 101.909 144.5 101.969 144.86 101.889C145.2 101.829 145.58 101.869 145.74 101.989C145.94 102.169 147.08 102.189 149.86 102.089C154.32 101.949 154.2 101.949 154.2 101.729C154.2 101.649 154.5 101.569 154.86 101.569C155.7 101.569 158.78 101.029 159.3 100.789C159.52 100.689 160.52 100.409 161.5 100.169C162.5 99.9486 163.44 99.6686 163.6 99.5886C163.76 99.4886 164.44 99.2686 165.1 99.0886C165.76 98.9086 166.74 98.5686 167.26 98.3286C168.1 97.9486 168.2 97.8286 168.1 97.4086C168.04 97.1486 167.84 96.2486 167.68 95.4086C167.5 94.5686 167.28 93.7686 167.2 93.6686C167.12 93.5486 166.84 92.5686 166.62 91.4686C166.38 90.3886 166.1 89.3886 166.02 89.2686C165.94 89.1686 165.7 88.2886 165.5 87.3086C165.3 86.3486 165.04 85.5686 164.94 85.5686C164.82 85.5686 164.78 85.5286 164.84 85.4686C165.04 85.2686 164.44 83.6686 164.2 83.7286C161.42 84.3886 160.52 84.5686 160.2 84.5686C159.98 84.5686 159.8 84.6486 159.8 84.7486C159.8 84.9686 155.98 85.5686 154.62 85.5686C153.36 85.5686 152.68 85.3086 151.84 84.5086C150.96 83.6686 150.66 83.0486 150.48 81.7886C150.4 81.2286 150.26 80.7086 150.18 80.6486C150.08 80.5886 150 73.9886 150 65.9486V51.3686H159.5H169V43.2686V35.1686L159.56 35.1286L150.1 35.0686L150.04 26.1086L150 17.1686H139.5H129L128.96 26.1086Z" fill="black"/>
<path d="M83.5202 33.7487C83.4602 33.8287 82.3602 33.9687 81.0602 34.0287C78.4602 34.1487 73.7602 34.7287 73.6002 34.9487C73.5402 35.0087 72.5602 35.2687 71.4002 35.5087C70.2402 35.7687 69.1602 36.0087 69.0002 36.0687C68.8402 36.1287 68.0202 36.3487 67.2002 36.5687C66.3802 36.7887 65.5602 37.0487 65.3802 37.1487C65.2202 37.2487 64.3602 37.5287 63.5002 37.7687C62.6202 38.0087 61.7402 38.3287 61.5002 38.4687C61.2802 38.6087 60.6202 38.8487 60.0602 38.9887C59.4802 39.1287 59.0002 39.3087 59.0002 39.3887C59.0002 39.4687 58.4202 39.6887 57.7002 39.8687C56.9802 40.0687 56.3402 40.3087 56.2802 40.4087C56.1402 40.6287 57.0202 44.4487 57.2402 44.5287C57.3202 44.5687 57.4002 44.7287 57.4002 44.8887C57.4002 45.3687 58.2402 48.8487 58.4002 49.0687C58.4802 49.1687 58.7002 49.9887 58.9002 50.8687C59.0802 51.7487 59.3602 52.7287 59.5002 53.0687C59.6402 53.3887 59.8202 54.0287 59.8802 54.4687C60.1402 55.9687 60.1202 55.9487 61.0602 55.7087C61.5202 55.6087 62.0002 55.4487 62.1002 55.3687C62.2202 55.2887 63.0402 55.0687 63.9602 54.8687C64.8602 54.6487 65.6002 54.4087 65.6002 54.3287C65.6002 54.2287 65.6802 54.2087 65.8002 54.2687C65.9002 54.3287 66.1602 54.2887 66.3802 54.1687C66.6002 54.0687 67.4202 53.8287 68.2202 53.6687C69.0202 53.4887 69.7602 53.2887 69.8802 53.1887C70.0002 53.1087 71.1802 52.8287 72.5002 52.5887C73.8202 52.3487 75.0402 52.0687 75.2202 51.9687C75.8202 51.6687 79.9402 51.3287 82.3202 51.4087C85.0402 51.4887 85.6002 51.6887 87.0202 53.0487C88.0802 54.0487 88.5602 55.1087 88.7402 56.7887C88.8002 57.4487 88.9402 58.0287 89.0202 58.0887C89.1202 58.1487 89.2002 58.9487 89.2002 59.8887V61.5687L88.0602 61.4287C87.4202 61.3287 83.9402 61.2687 80.3002 61.2687C74.8802 61.2687 73.2802 61.3487 71.4002 61.6487C70.1402 61.8487 69.0202 62.0687 68.9002 62.1487C68.8002 62.2487 68.0202 62.4687 67.2002 62.6687C66.3802 62.8487 65.4802 63.1287 65.2002 63.2687C64.9202 63.4087 63.8402 63.9487 62.8002 64.4487C59.5402 66.0487 56.9002 68.6687 55.3202 71.8687C54.8202 72.8487 54.3202 74.1087 54.1802 74.6687C54.0602 75.2087 53.8802 75.7487 53.8002 75.8687C53.4802 76.3087 53.1602 79.6287 53.1602 82.6487C53.1802 85.7487 53.4002 88.2287 53.7802 89.0687C53.8802 89.2887 54.1602 90.1287 54.4002 90.9087C54.6602 91.7087 54.9202 92.3687 55.0202 92.3687C55.1202 92.3687 55.2002 92.4887 55.2002 92.6487C55.2002 93.0287 55.8402 94.2287 56.1602 94.4287C56.2802 94.5087 56.4002 94.7087 56.4002 94.8487C56.4002 95.2087 59.3802 98.1687 59.7402 98.1687C59.8802 98.1687 60.0602 98.3087 60.1202 98.4687C60.2002 98.6287 60.3202 98.7687 60.4202 98.7687C60.5202 98.7687 60.9602 98.9887 61.4002 99.2687C61.8402 99.5487 62.7202 99.9487 63.3602 100.189C63.9802 100.409 64.6402 100.669 64.8402 100.769C65.0202 100.869 66.0002 101.109 67.0402 101.289C68.0602 101.469 69.1202 101.709 69.3802 101.849C70.0402 102.149 78.5602 102.149 79.2202 101.829C79.4802 101.709 80.5002 101.469 81.5002 101.269C82.4802 101.089 83.3802 100.889 83.5002 100.789C83.6002 100.709 84.3002 100.449 85.0202 100.189C86.2802 99.7687 87.9802 98.9687 88.4802 98.6087C88.6002 98.5087 89.1002 98.2087 89.6002 97.9487C90.1002 97.6887 90.5802 97.3487 90.6602 97.2087C90.7402 97.0887 90.9202 96.9687 91.0402 96.9687C91.1802 96.9687 91.7002 96.6087 92.2202 96.1687C92.7402 95.7287 93.2602 95.3687 93.3602 95.3687C93.4602 95.3687 93.6602 95.6087 93.8202 95.9087C93.9802 96.2287 94.6202 97.1487 95.2602 97.9887C95.8802 98.8287 96.4002 99.6087 96.4002 99.7087C96.4002 99.8287 96.6202 100.069 96.9002 100.249C97.3202 100.529 98.2202 100.569 103.6 100.569H109.82L109.76 77.0087C109.72 59.9287 109.64 53.3687 109.48 53.0687C109.34 52.8487 109.1 51.6687 108.9 50.4687C108.72 49.2487 108.4 47.8887 108.18 47.4287C107.98 46.9687 107.8 46.5087 107.8 46.3887C107.8 46.0887 106.38 43.3287 105.86 42.6487C105.6 42.3087 105.4 41.9287 105.4 41.8087C105.4 41.6687 105.22 41.4687 105 41.3287C104.78 41.1887 104.6 40.9687 104.6 40.8687C104.6 40.5687 102.74 38.7687 102.46 38.7687C102.32 38.7687 102.12 38.5887 102 38.3687C101.88 38.1487 101.7 37.9687 101.58 37.9687C101.46 37.9687 101.08 37.7487 100.74 37.4887C99.5002 36.5687 96.3802 35.1687 95.5602 35.1687C95.3602 35.1687 95.2002 35.0887 95.2002 34.9887C95.2002 34.7287 92.0202 34.1687 89.7402 34.0287C88.6602 33.9687 87.7402 33.8287 87.6802 33.7287C87.5402 33.5087 83.6602 33.5087 83.5202 33.7487ZM89.2002 78.5287C89.2002 82.8487 89.1802 83.1287 88.8002 83.4687C88.5802 83.6687 88.4002 83.7487 88.4002 83.6487C88.4002 83.5487 88.3202 83.5687 88.2402 83.6887C87.8802 84.2087 85.2802 85.9887 83.9002 86.6687C81.9202 87.6087 79.9402 88.0287 78.0002 87.9087C75.4602 87.7487 74.3602 87.2087 73.1602 85.5887C72.4002 84.5487 72.2002 80.0887 72.8002 77.9287C73.0602 77.0487 74.6602 75.2087 75.3202 75.0487C75.5802 74.9887 75.8002 74.8487 75.8002 74.7687C75.8002 74.6287 76.7202 74.3487 77.9002 74.0887C78.1202 74.0487 80.7602 74.0087 83.7602 73.9887L89.2002 73.9687V78.5287Z" fill="black"/>
<path d="M280.32 33.7282C280.26 33.8282 279.36 33.9682 278.3 34.0282C276.3 34.1682 273.18 34.6682 272.5 34.9682C272.28 35.0482 271.66 35.2482 271.1 35.3682C269.94 35.6482 268.4 36.2682 266.06 37.3882C265.14 37.8082 264.32 38.1682 264.2 38.1682C264.1 38.1682 264 38.2482 264 38.3682C264 38.4682 263.9 38.5682 263.78 38.5682C263.66 38.5682 263 38.9682 262.32 39.4682C261.62 39.9682 260.98 40.3682 260.92 40.3682C260.54 40.3682 255.2 45.6882 255.2 46.0682C255.2 46.1482 254.8 46.7682 254.3 47.4482C253.8 48.1482 253.4 48.8282 253.4 48.9482C253.4 49.0682 253.34 49.1682 253.26 49.1682C253.16 49.1682 252.88 49.7082 252.6 50.3682C252.32 51.0282 252.04 51.5682 251.98 51.5682C251.92 51.5682 251.74 51.9482 251.62 52.4082C251.48 52.8882 251.2 53.6282 251 54.0682C250.8 54.5082 250.5 55.5882 250.32 56.4682C250.12 57.3482 249.9 58.2282 249.8 58.4082C249.2 59.4882 248.7 70.0882 249.08 73.0882C249.14 73.5282 249.3 74.6682 249.42 75.6682C249.54 76.6482 249.72 77.5482 249.8 77.6682C249.88 77.7682 250.1 78.5682 250.28 79.4282C250.46 80.3082 250.72 81.2882 250.88 81.6282C251.04 81.9882 251.32 82.6682 251.48 83.1682C251.64 83.6682 252.18 84.8282 252.66 85.7682C253.84 88.0682 254.06 88.4482 254.36 88.6282C254.48 88.7082 254.6 88.9082 254.6 89.0482C254.6 89.4482 257.62 92.9682 259.02 94.1882C260.58 95.5282 261.92 96.5682 262.08 96.5682C262.16 96.5682 262.66 96.8882 263.22 97.2682C263.78 97.6482 264.36 97.9682 264.52 97.9682C264.66 97.9682 264.86 98.0882 264.94 98.2282C265.02 98.3682 265.68 98.7082 266.4 98.9682C267.12 99.2282 267.88 99.5482 268.1 99.6682C268.32 99.8082 269.08 100.068 269.8 100.268C270.52 100.448 271.2 100.688 271.32 100.788C271.42 100.868 272.46 101.108 273.62 101.288C274.76 101.468 275.88 101.688 276.1 101.768C276.32 101.868 276.82 101.948 277.2 101.968C277.58 101.968 279.1 102.068 280.54 102.168C282.1 102.268 284.3 102.268 285.84 102.168C287.3 102.068 288.86 101.968 289.3 101.948C289.74 101.928 290.14 101.848 290.2 101.768C290.26 101.708 291.28 101.488 292.48 101.308C293.68 101.108 294.76 100.888 294.88 100.788C295 100.708 295.74 100.468 296.5 100.268C297.28 100.088 298.08 99.8082 298.3 99.6682C298.52 99.5482 299.16 99.2682 299.7 99.0682C300.26 98.8682 300.94 98.5282 301.24 98.3282C301.52 98.1282 301.86 97.9682 301.96 97.9682C302.06 97.9682 302.6 97.6682 303.12 97.3082C303.66 96.9482 304.26 96.5882 304.46 96.5082C304.64 96.4482 304.8 96.2882 304.8 96.1682C304.8 96.0682 304.92 95.9682 305.06 95.9682C305.72 95.9682 310.76 90.9282 311.44 89.5682C311.56 89.2882 311.88 88.7882 312.1 88.4682C312.78 87.4882 314.92 82.9482 315.2 81.8682C315.34 81.3082 315.54 80.7682 315.62 80.6682C315.8 80.4282 316.6 76.3482 316.6 75.6682C316.6 75.4082 316.68 75.1682 316.78 75.1282C317.34 74.9482 317.36 62.2282 316.82 61.0682C316.72 60.8482 316.52 59.9482 316.4 59.0682C316.16 57.4082 315.88 56.1482 315.58 55.4682C315.42 55.0682 314.64 52.8682 314.54 52.4682C314.48 52.2482 313.02 49.3282 312.58 48.5682C312.42 48.2882 312.18 47.9882 312.06 47.9082C311.92 47.8282 311.8 47.6282 311.8 47.5082C311.8 47.0682 309.3 44.1082 307.56 42.4682C305.92 40.9282 304 39.4082 303.82 39.5282C303.78 39.5682 303.68 39.5082 303.6 39.3882C303.44 39.0882 302.6 38.6282 300.2 37.4482C297.28 36.0282 296.82 35.8282 295.2 35.4482C294.38 35.2282 293.66 35.0082 293.6 34.9482C293.44 34.7482 289.66 34.1482 287.74 34.0282C286.78 33.9682 285.94 33.8282 285.88 33.7282C285.74 33.5082 280.46 33.5082 280.32 33.7282ZM286.3 50.7682C286.46 50.8882 286.68 50.9482 286.78 50.8882C286.9 50.8082 287.14 50.8482 287.34 50.9482C287.54 51.0682 288.1 51.3282 288.6 51.5482C290.14 52.2482 290.76 52.6682 291.8 53.7882C293.28 55.3482 294.78 58.0482 294.8 59.1682C294.8 59.3282 294.92 59.7082 295.08 60.0082C296.14 62.0282 296.14 73.9082 295.08 75.9282C294.92 76.2282 294.8 76.6082 294.8 76.7682C294.8 77.2682 294.22 78.7282 293.74 79.5282C293.48 79.9282 293.22 80.4282 293.14 80.6082C293.08 80.8082 292.92 80.9682 292.8 80.9682C292.7 80.9682 292.6 81.0682 292.6 81.2082C292.6 81.5282 290.98 83.1682 290.66 83.1682C290.54 83.1682 290.34 83.2882 290.26 83.4282C290.18 83.5682 289.6 83.8882 289 84.1482C288.4 84.4082 287.74 84.6882 287.56 84.7882C286.1 85.5282 280.08 85.5082 278.5 84.7682C278.28 84.6682 277.6 84.3682 277 84.1082C274.98 83.2282 272.8 80.8682 271.96 78.6482C271.72 78.0082 271.46 77.4282 271.38 77.3682C271.16 77.1882 270.58 73.9082 270.46 72.1082C270.4 71.1482 270.26 70.3082 270.16 70.2482C269.92 70.0882 269.96 65.8082 270.22 65.6482C270.34 65.5882 270.42 65.0482 270.38 64.3882C270.36 63.7682 270.38 63.1282 270.46 62.9682C270.52 62.8082 270.68 61.9482 270.8 61.0682C271.06 59.3682 271.18 59.0282 272.42 56.4482C273.02 55.2082 273.56 54.4882 274.58 53.4882C275.34 52.7682 276.1 52.1682 276.26 52.1682C276.42 52.1682 276.6 52.0482 276.66 51.9082C276.72 51.7482 277.34 51.4682 278.04 51.2882C278.72 51.1082 279.48 50.8682 279.7 50.7682C280.36 50.4682 281.2 50.3882 283.66 50.4682C285.08 50.5082 286.12 50.6282 286.3 50.7682Z" fill="black"/>
<path d="M318 35.3485C318 35.6285 318.52 37.0085 319.08 38.2485C319.36 38.8685 319.6 39.4885 319.6 39.6285C319.6 39.7685 319.72 40.0485 319.88 40.2685C320.02 40.4885 320.34 41.2485 320.58 41.9685C320.82 42.6885 321.14 43.4885 321.28 43.7685C321.42 44.0485 321.66 44.6285 321.8 45.0685C321.94 45.5085 322.22 46.1885 322.42 46.5685C322.64 46.9485 322.8 47.3285 322.8 47.4085C322.8 47.4885 323.02 48.0285 323.28 48.6085C323.54 49.1885 323.9 50.1085 324.1 50.6685C324.28 51.2085 324.5 51.7485 324.58 51.8685C324.68 51.9685 324.94 52.6485 325.18 53.3685C325.42 54.0885 325.74 54.8885 325.88 55.1685C326.02 55.4485 326.26 56.0285 326.4 56.4685C326.54 56.9085 326.82 57.5285 327.02 57.8685C327.24 58.1885 327.4 58.5685 327.4 58.7085C327.4 58.8485 327.62 59.4285 327.88 60.0085C328.14 60.5885 328.5 61.5085 328.7 62.0685C328.88 62.6085 329.1 63.1485 329.18 63.2685C329.28 63.3685 329.46 63.8285 329.6 64.2685C329.74 64.7085 329.96 65.2485 330.1 65.4685C330.22 65.6885 330.5 66.3685 330.7 66.9685C330.9 67.5685 331.28 68.4885 331.54 68.9885C331.78 69.5085 332 70.0285 332 70.1485C332 70.2685 332.22 70.8285 332.48 71.4085C332.74 71.9885 333.08 72.8285 333.22 73.2685C333.36 73.7085 333.56 74.1685 333.64 74.2885C333.74 74.4085 333.98 75.0085 334.18 75.6085C334.38 76.2085 334.64 76.8685 334.76 77.0885C334.86 77.2885 335.12 77.8685 335.3 78.3685C335.5 78.8685 335.86 79.7285 336.12 80.3085C336.38 80.8685 336.6 81.4685 336.6 81.6085C336.6 81.7685 336.72 82.0485 336.86 82.2685C337 82.4885 337.32 83.2485 337.58 83.9685C337.82 84.6885 338.14 85.4885 338.28 85.7685C338.42 86.0485 338.7 86.7485 338.88 87.3085C339.08 87.8885 339.3 88.4085 339.4 88.4685C339.48 88.5285 339.72 89.0885 339.92 89.7285C340.12 90.3485 340.34 90.9085 340.4 90.9685C340.48 91.0285 340.74 91.6485 340.98 92.3685C341.24 93.0885 341.5 93.7485 341.58 93.8685C341.66 93.9685 341.94 94.6485 342.18 95.3685C342.44 96.0885 342.84 97.0685 343.06 97.5685C343.64 98.7685 343.64 100.568 343.06 101.668C342.84 102.108 342.48 102.808 342.28 103.248C342.06 103.668 341.28 104.588 340.54 105.288C339.5 106.248 338.92 106.628 338.1 106.848C337.52 107.028 336.9 107.168 336.76 107.168C336.6 107.168 336.4 107.228 336.32 107.308C335.94 107.688 330.58 107.768 330.12 107.388C329.98 107.268 329.34 107.148 328.7 107.128L327.52 107.068L327.26 108.348C327.12 109.048 326.92 109.728 326.84 109.848C326.74 109.968 326.5 110.788 326.3 111.668C326.1 112.548 325.88 113.348 325.8 113.468C325.72 113.568 325.44 114.568 325.2 115.668C324.94 116.768 324.68 117.788 324.58 117.968C324.4 118.308 323.88 120.468 323.68 121.708L323.56 122.528L324.62 122.748C325.22 122.868 326.06 123.008 326.5 123.088C326.94 123.168 327.34 123.288 327.4 123.388C327.46 123.468 328.72 123.688 330.2 123.908C333.98 124.408 342.08 124.428 344.8 123.908C345.84 123.708 346.74 123.468 346.76 123.368C346.8 123.248 346.98 123.168 347.16 123.168C347.6 123.168 349.24 122.588 349.54 122.328C349.68 122.208 349.8 122.168 349.8 122.228C349.8 122.508 352.9 120.728 354.56 119.508C355.8 118.588 359.8 114.448 360.2 113.648C360.36 113.328 360.94 112.388 361.5 111.568C362.4 110.248 363.52 108.088 365.26 104.368C365.54 103.768 365.9 102.788 366.08 102.188C366.26 101.608 366.48 101.008 366.58 100.888C366.68 100.768 366.96 99.9485 367.2 99.0685C367.44 98.1885 367.72 97.3685 367.8 97.2685C367.88 97.1485 368.12 96.5285 368.32 95.8685C368.52 95.2085 368.74 94.6285 368.8 94.5685C368.88 94.5085 369.14 93.7085 369.4 92.7685C369.66 91.8285 369.98 90.8885 370.12 90.6685C370.26 90.4485 370.52 89.6885 370.72 88.9685C370.92 88.2485 371.12 87.6285 371.2 87.5685C371.28 87.5085 371.44 87.0085 371.6 86.4685C371.74 85.9085 371.96 85.2885 372.1 85.0685C372.24 84.8285 372.56 83.9285 372.8 83.0685C373.04 82.1885 373.3 81.3685 373.38 81.2685C373.46 81.1485 373.74 80.3885 374 79.5685C374.24 78.7485 374.52 77.9685 374.6 77.8685C374.68 77.7485 374.9 77.1285 375.08 76.4685C375.28 75.8085 375.58 74.9085 375.78 74.4685C375.98 74.0285 376.26 73.2085 376.4 72.6685C376.54 72.1085 376.72 71.5685 376.8 71.4685C376.88 71.3485 377.14 70.5885 377.4 69.7685C377.66 68.9485 377.92 68.1685 378.02 68.0685C378.1 67.9485 378.32 67.2885 378.52 66.5685C378.72 65.8485 378.92 65.2285 378.98 65.1685C379.06 65.1085 379.32 64.3885 379.58 63.5685C379.84 62.7485 380.12 61.9685 380.2 61.8685C380.28 61.7485 380.54 60.9085 380.8 59.9685C381.06 59.0285 381.34 58.2285 381.42 58.1685C381.5 58.1085 381.72 57.5285 381.9 56.8685C382.1 56.2085 382.32 55.5685 382.4 55.4685C382.48 55.3485 382.72 54.6885 382.9 53.9685C383.1 53.2485 383.36 52.4885 383.5 52.2685C383.64 52.0285 383.96 51.1285 384.2 50.2685C384.44 49.3885 384.72 48.5685 384.8 48.4685C384.88 48.3485 385.1 47.7685 385.3 47.1685C385.48 46.5685 385.76 45.7885 385.9 45.4685C386.04 45.1285 386.32 44.2885 386.52 43.5685C386.72 42.8485 386.98 42.0885 387.12 41.8685C387.26 41.6485 387.52 40.8885 387.72 40.1685C387.9 39.4485 388.12 38.7685 388.22 38.6685C388.3 38.5485 388.52 37.9485 388.7 37.3285C388.88 36.6885 389.12 36.1285 389.22 36.0685C389.32 35.9885 389.4 35.7685 389.4 35.5485C389.4 35.1685 389.16 35.1685 378.72 35.1685H368.02L367.7 35.8085C367.54 36.1685 367.26 37.0285 367.08 37.7485C366.92 38.4485 366.72 39.1285 366.62 39.2485C366.52 39.3685 366.3 40.1485 366.12 40.9685C365.92 41.7885 365.66 42.7285 365.5 43.0685C365.36 43.3885 365.04 44.4685 364.8 45.4685C364.56 46.4485 364.3 47.3485 364.22 47.4685C364.14 47.5685 363.92 48.3485 363.7 49.1685C363.5 49.9885 363.28 50.7685 363.18 50.8685C363.1 50.9885 362.84 51.8885 362.6 52.8685C362.34 53.8685 362.08 54.7085 362.02 54.7685C361.94 54.8285 361.72 55.5885 361.52 56.4685C361.32 57.3485 361.04 58.3285 360.9 58.6685C360.76 58.9885 360.5 59.8485 360.32 60.5685C360.12 61.2885 359.9 62.0485 359.8 62.2685C359.7 62.4885 359.42 63.4285 359.2 64.3685C358.96 65.3085 358.64 66.3285 358.5 66.6685C358.36 66.9885 358.1 67.9485 357.9 68.7685C357.7 69.5885 357.48 70.3485 357.4 70.4685C357.32 70.5685 357.1 71.2885 356.9 72.0685C356.72 72.8285 356.5 73.5485 356.4 73.6685C356.32 73.7685 356.06 74.7085 355.8 75.7485C355.54 76.7685 355.18 77.9285 355 78.3285L354.64 79.0485L354.5 78.3485C354.42 77.9685 354.28 77.6285 354.22 77.5685C354.14 77.5085 353.86 76.7085 353.6 75.7685C353.34 74.8285 353.06 73.9685 352.96 73.8485C352.88 73.7285 352.62 72.8685 352.38 71.9485C352.16 71.0285 351.9 70.1685 351.8 70.0685C351.72 69.9485 351.48 69.2885 351.3 68.5685C351.1 67.8485 350.88 67.1685 350.78 67.0685C350.7 66.9485 350.44 66.1885 350.22 65.3685C349.98 64.5485 349.7 63.6885 349.6 63.4685C349.5 63.2485 349.22 62.3485 348.98 61.4685C348.76 60.5885 348.48 59.7685 348.4 59.6685C348.3 59.5485 348.08 58.8885 347.9 58.1685C347.72 57.4485 347.48 56.7685 347.4 56.6685C347.3 56.5485 347.02 55.7085 346.78 54.7685C346.54 53.8485 346.28 52.9485 346.18 52.7685C346 52.4485 345.24 50.0685 344.58 47.8685C344.34 47.0885 344.08 46.3685 344 46.2685C343.92 46.1485 343.64 45.2485 343.4 44.2685C343.16 43.2685 342.88 42.4285 342.82 42.3685C342.74 42.3085 342.46 41.5085 342.2 40.5685C341.94 39.6285 341.66 38.8285 341.58 38.7685C341.52 38.7085 341.28 37.9885 341.1 37.1685C340.9 36.3485 340.66 35.5485 340.54 35.4085C340.4 35.2285 337.88 35.1685 329.18 35.1685C322.92 35.1685 318 35.2485 318 35.3485Z" fill="black"/>
<path d="M388.8 78.4887C388.2 78.6487 387.22 79.1087 386.62 79.5087C385.54 80.2687 383.8 82.1887 383.8 82.6687C383.8 82.8087 383.72 82.9687 383.6 83.0087C383.28 83.1087 382.8 85.3887 382.8 86.7687C382.8 88.3687 383.18 89.8287 383.88 90.9287C384.16 91.3887 384.4 91.7887 384.4 91.8487C384.4 92.0887 385.76 93.3287 386.62 93.8887C388.22 94.9087 389.98 95.4087 391.56 95.3087C393.4 95.1687 393.5 95.1287 395.34 94.3487C396.38 93.9087 398.68 91.6087 399.02 90.6687C399.16 90.2887 399.34 89.9687 399.42 89.9687C399.7 89.9687 400.06 87.2687 399.94 85.8687C399.68 82.3487 396.96 79.1687 393.56 78.3687C392.34 78.0887 390.08 78.1487 388.8 78.4887ZM393.16 80.3887C393.2 80.4887 393.36 80.5687 393.54 80.5687C394.64 80.5687 396.62 82.2687 397.44 83.9287C397.82 84.7287 397.9 85.1687 397.88 86.7687C397.88 88.1087 397.76 88.8887 397.52 89.4287C396.98 90.6487 395.66 91.9287 394.26 92.5887C393.2 93.0887 392.78 93.1687 391.4 93.1687C390.02 93.1687 389.56 93.0687 388.54 92.5887C386.54 91.6687 385 89.7287 385 88.1087C385 87.9287 384.92 87.7687 384.8 87.7687C384.68 87.7687 384.6 87.2287 384.6 86.5687C384.6 85.9087 384.68 85.3687 384.8 85.3687C384.92 85.3687 385 85.1887 385 84.9887C385 84.1487 385.8 82.8087 386.9 81.8087C387.52 81.2287 388.16 80.7687 388.34 80.7687C388.5 80.7687 388.92 80.6487 389.26 80.4887C389.62 80.3287 390.12 80.1487 390.4 80.1087C391.12 79.9687 393.08 80.1687 393.16 80.3887Z" fill="black"/>
<path d="M394.2 83.7686C392.5 84.6486 392.1 84.7286 391.82 84.1886C391.52 83.6486 390.38 83.1686 389.38 83.1686C388.64 83.1686 388.42 83.2686 387.66 84.0886L386.78 84.9886L386.84 87.3286L386.9 89.6686L391.36 89.7286L395.8 89.7686V88.7686V87.7686H394.1C392.52 87.7686 392.4 87.7286 392.4 87.3686C392.4 86.9286 393.02 86.4886 394.76 85.6686L395.8 85.1486V84.0686C395.8 83.4686 395.78 82.9686 395.76 82.9886C395.72 82.9886 395.02 83.3486 394.2 83.7686ZM390.6 85.4686C390.74 85.6486 390.9 86.2286 390.96 86.7686L391.06 87.7686H389.72H388.4V86.9086C388.4 85.7686 388.84 85.1686 389.68 85.1686C390.06 85.1686 390.46 85.3086 390.6 85.4686Z" fill="black"/>
</svg>
