<svg width="406" height="110" viewBox="0 0 406 110" fill="none" xmlns="http://www.w3.org/2000/svg">
<path d="M386.166 39.8846C386.318 40.1786 386.347 40.5206 386.247 40.8358C386.147 41.1511 385.926 41.4138 385.633 41.5665L384.508 42.2829L384.18 42.4065C383.949 42.4496 383.71 42.4217 383.494 42.3265C383.279 42.2312 383.097 42.073 382.973 41.8727L382.85 41.647C381.187 38.4918 379.817 35.1907 378.758 31.7852H376.711C374.439 31.7503 372.229 31.036 370.366 29.7343C369.21 29.0173 367.998 28.3938 366.743 27.8699C363.278 26.8239 359.68 26.2851 356.061 26.2704C350.986 25.9623 346.586 25.6954 344.682 23.3168C344.293 22.7981 344.019 22.2026 343.878 21.5698C343.737 20.9371 343.732 20.2816 343.864 19.6469C344.58 15.2193 351.027 12.2049 356.614 12.1637C357.516 12.1584 358.409 12.2402 359.295 12.409C363.506 13.6448 367.383 15.8188 370.633 18.7676C371.779 19.6618 373.118 20.2785 374.542 20.5692C375.213 20.7153 375.846 20.9983 376.402 21.4005C376.959 21.8027 377.426 22.3155 377.775 22.9066C377.743 22.2334 377.853 21.561 378.096 20.9325C378.34 20.304 378.711 19.7331 379.188 19.2563C380.22 18.235 381.022 17.0052 381.541 15.6491C382.742 11.4214 384.89 7.52266 387.823 4.24871C390.868 1.60606 394.741 0.111948 398.772 0.0253064C399.867 -0.0644729 400.97 0.0852813 402.001 0.464172C403.033 0.843063 403.971 1.44201 404.748 2.21943C405.199 2.6848 405.543 3.24353 405.756 3.85625C405.968 4.46896 406.043 5.12077 405.976 5.76576C405.629 8.80182 402.026 11.3433 397.791 14.2969C394.745 16.2365 391.989 18.5973 389.605 21.3091C388.831 22.415 388.147 23.5805 387.558 24.7946C386.288 27.4966 384.117 29.6716 381.417 30.9452C382.557 34.0372 384.047 36.9884 385.858 39.7414L386.166 39.8846ZM272.759 63.5392C262.526 63.5392 256.224 70.3689 256.224 81.3591C256.224 92.3494 262.567 99.1535 272.759 99.1535C282.95 99.1535 289.275 92.3258 289.275 81.3375C289.275 70.7987 283.319 63.969 273.762 63.5392H272.759ZM272.759 109.796C255.651 109.796 243.228 97.8014 243.248 81.3591C243.269 64.913 255.651 52.9395 272.739 52.9179C280.562 52.75 288.144 55.6329 293.88 60.9565C296.602 63.6206 298.749 66.8144 300.189 70.3407C301.628 73.8671 302.33 77.6511 302.25 81.4592C302.25 97.8622 289.849 109.857 272.759 109.897V109.796ZM0 108.796V52.1859C0 39.186 10.2327 30.7804 25.8664 30.7804H46.1297V41.9335H26.2373C20.3634 41.9335 16.5364 43.6154 14.5915 47.1009C13.3525 49.7075 12.7896 52.584 12.9548 55.4653V74.8219H35.6516V85.5452H13.1393V108.652L0 108.796ZM102.989 108.943V53.7481H115.882V58.8526C116.949 57.9224 118.094 57.1021 119.319 56.3916C122.292 54.9446 125.572 54.2415 128.877 54.3427H129.224C131.729 54.3482 134.227 54.6232 136.674 55.1631L139.048 55.8382V65.9885L135.547 65.435C133.427 65.1187 131.287 64.9476 129.143 64.9228C127.307 64.7672 125.458 64.9747 123.702 65.5337C121.946 66.0927 120.317 66.9921 118.909 68.1806C115.861 71.2579 115.861 75.9327 115.861 78.433V109.004L102.989 108.943ZM162.373 56.6997C165.46 55.0469 168.921 54.2207 172.422 54.3015C176.082 54.2976 179.714 54.9491 183.145 56.2287C185.745 57.1466 188.153 58.5372 190.247 60.3304L191.617 61.4766L192.969 60.3285C195.068 58.5427 197.474 57.153 200.07 56.2268C203.69 54.9724 207.494 54.329 211.325 54.3231C215.166 54.3231 218.979 54.9747 222.602 56.2483C232.262 59.6122 237.562 67.4643 237.543 78.3721V108.86H224.629V78.4546C224.629 75.9327 224.629 71.2579 221.558 68.2022C219.513 66.0493 215.992 64.964 211.325 64.964C206.66 64.964 203.263 66.0493 201.092 68.2022C198.023 71.2775 198.045 75.9543 198.045 78.4546V108.86H185.111V78.4546C185.111 75.9327 185.111 71.2579 182.04 68.2022C179.993 66.0493 176.474 64.964 171.807 64.964C167.14 64.964 163.743 66.0493 161.575 68.2022C158.505 71.2991 158.505 75.9739 158.505 78.4546V108.841H145.611V53.7481H158.444V59.0587C158.444 59.0587 160.122 57.9106 162.291 56.6997M337.434 63.4254C327.202 63.4254 320.918 70.2531 320.918 81.2414C320.918 92.2316 327.243 99.0397 337.434 99.0397C347.626 99.0397 353.971 92.2101 353.971 81.2198C353.971 70.6829 348.014 63.8552 338.437 63.4254H337.434ZM337.434 109.681C332.742 109.71 328.157 108.277 324.317 105.579L320.898 102.955V108.921H307.943V30.4978H320.939V57.0079L323.948 55.6144C328.19 53.7186 332.788 52.7466 337.434 52.7629C354.544 52.7629 366.945 64.7148 366.945 81.2002C366.945 97.6856 354.544 109.598 337.454 109.598L337.434 109.681ZM52.7631 75.3753C52.7631 70.0843 60.2325 63.0721 69.4624 63.0721C78.6922 63.0721 86.1617 70.1255 86.1617 75.3753H52.7631ZM97.2933 82.4268C97.4449 75.0564 94.932 67.8788 90.2163 62.2125C87.5135 59.2236 84.1995 56.8509 80.4991 55.2554C76.7987 53.6598 72.7984 52.8787 68.7696 52.965C64.9039 52.8854 61.0654 53.6285 57.5087 55.1449C53.952 56.6614 50.7583 58.9167 48.1393 61.7611C43.7132 66.8823 41.3115 73.4446 41.3862 80.213C41.2885 84.029 41.9596 87.8256 43.3595 91.3769C44.7594 94.9282 46.8594 98.1616 49.5347 100.885C52.2071 103.603 55.3999 105.756 58.9225 107.213C62.4451 108.671 66.2253 109.404 70.0374 109.369H70.4456C74.4641 109.546 78.4663 108.754 82.1141 107.059C85.7619 105.364 88.9482 102.816 91.4037 99.6304L92.0788 98.708L92.3025 98.3587C93.6647 96.471 94.7536 94.4003 95.5368 92.2081H83.789C83.1602 93.4934 82.2683 94.6321 81.1709 95.5503C77.9865 97.8496 74.0999 98.9663 70.1807 98.708H68.6872C58.4545 98.1546 52.9672 88.9895 52.9475 85.6061H97.2344L97.2933 82.4268Z" fill="black"/>
</svg>
