<svg width="355" height="195" viewBox="0 0 355 195" fill="none" xmlns="http://www.w3.org/2000/svg">
<path d="M79.1191 119.277H62.765C64.4989 121.554 65.69 124.263 65.69 128.595V183.623C65.69 187.955 64.4989 190.664 62.765 192.94H79.1191C77.3852 190.664 76.1941 187.96 76.1941 183.623V128.595C76.1941 124.263 77.3852 121.554 79.1191 119.277Z" fill="black"/>
<path d="M144.055 128.052L125.751 178.642L108.095 128.052C106.683 124.047 106.794 121.011 108.311 119.277H90.8719C92.9324 121.227 95.2042 124.263 97.1542 129.57L120.77 192.94H130.194L154.353 129.57C156.408 124.263 158.579 121.227 160.635 119.277H143.844C145.361 121.011 145.467 124.042 144.06 128.052H144.055Z" fill="black"/>
<path d="M188.732 119.277H172.378C174.112 121.554 175.303 124.263 175.303 128.595V183.623C175.303 187.955 174.112 190.664 172.378 192.94H188.732C186.998 190.664 185.807 187.96 185.807 183.623V128.595C185.807 124.263 186.998 121.554 188.732 119.277Z" fill="black"/>
<path d="M260.589 128.594V176.259L218.991 119.281H205.778C207.512 121.558 208.703 124.267 208.703 128.599V183.626C208.703 187.959 207.512 190.668 205.778 192.944H222.242C220.292 190.668 218.991 187.964 218.991 183.626V135.64L260.911 192.944H270.877V128.599C270.877 124.267 272.068 121.558 273.802 119.281H257.337C259.287 121.558 260.589 124.267 260.589 128.599V128.594Z" fill="black"/>
<path d="M337.773 153.512C340.049 155.789 341.567 158.493 341.567 162.83V182.219C337.124 185.034 332.249 186.662 324.886 186.662C306.145 186.662 295.963 172.906 295.963 156.874C295.963 140.842 306.256 127.192 324.992 127.192C333.983 127.192 344.055 130.765 349.799 136.399H349.91V124.915C343.844 120.799 334.31 118.522 324.997 118.522C299.868 118.522 285.243 135.203 285.243 157.085C285.243 178.968 299.757 195 324.891 195C337.35 195 345.688 191.532 351.538 188.069V162.83C351.538 158.497 352.729 155.789 354.463 153.512H337.773Z" fill="black"/>
<path d="M39.2497 184.419H13.4291V128.416C13.4291 124.084 14.9468 121.375 17.2234 119.099H0C1.73387 121.375 2.925 124.084 2.925 128.416V183.444C2.925 187.776 1.73387 190.485 0 192.762H48.5675V180.087C46.2909 182.685 43.5868 184.419 39.2497 184.419Z" fill="black"/>
<path d="M42.4245 9.31775V64.3452C42.4245 68.6775 41.2334 71.3863 39.4995 73.6629H56.5068C54.3406 71.3863 52.9334 68.6775 52.9334 64.3452V39.9702H71.7321C76.0644 39.9702 78.7733 41.1613 81.0499 42.8952V28.8129C78.7733 30.5468 76.0692 31.7379 71.7321 31.7379H52.9334V8.34273H79.4457C83.778 8.34273 86.4868 9.86048 88.7634 12.1323V0H39.4995C41.2334 2.2766 42.4245 4.98548 42.4245 9.31775Z" fill="black"/>
<path d="M301.952 64.3452C301.952 68.6775 300.761 71.3863 299.027 73.6629H314.949C313.215 71.3863 312.024 68.6775 312.024 64.3452V9.31775C312.024 4.98548 313.215 2.2766 314.949 0H299.133L274.436 56.9775L249.955 0H233.491C235.225 2.2766 236.416 4.98548 236.416 9.31775V64.3452C236.416 68.6775 235.225 71.3863 233.491 73.6629H249.413C247.679 71.3863 246.488 68.6775 246.488 64.3452V14.8411L271.943 73.6629H276.276L301.947 14.7355V64.35L301.952 64.3452Z" fill="black"/>
<path d="M99.9111 73.6581H148.805V61.8525C146.529 63.9081 143.824 65.3202 139.487 65.3202H113.345V39.975H133.272C137.605 39.975 140.314 41.1661 142.59 42.9V28.8177C140.314 30.5516 137.609 31.7427 133.272 31.7427H113.345V8.34273H138.191C142.523 8.34273 145.232 9.86047 147.508 12.1323V0H99.9159C101.65 2.2766 102.841 4.98068 102.841 9.31775V64.3452C102.841 68.6775 101.65 71.3864 99.9159 73.6581H99.9111Z" fill="black"/>
<path d="M225.628 73.7734V73.6629C223.131 73.3363 219.98 72.5775 214.884 65.9542L195.519 40.5178C204.928 37.9818 211.926 30.6045 211.926 19.3847C211.926 6.49841 201.748 0 187.666 0H162.964C164.698 2.2718 165.894 4.98067 165.894 9.30813V64.3404C165.894 68.6727 164.698 71.3816 162.964 73.6582H179.217C177.484 71.3816 176.292 68.6727 176.292 64.3404V43.1065H186.23L202.512 67.0397C207.608 74.5323 211.513 75.1759 225.628 73.7734ZM176.292 35.6379V8.23228H186.585C196.119 8.23228 201.321 13.9718 201.321 21.3347C201.321 28.6977 195.903 35.6379 186.475 35.6379H176.292Z" fill="black"/>
</svg>
