<svg width="425" height="125" viewBox="0 0 425 125" fill="none" xmlns="http://www.w3.org/2000/svg">
<path d="M0 6.21338C0 3.78206 0 8.50963 0 6.21338C0 6.0783 0.270147 5.80816 0.472757 5.74062C3.71452 4.99772 6.95628 4.38989 10.2656 3.64698C14.1152 2.83654 17.8972 2.0261 21.7468 1.14812C23.6378 0.810441 25.5289 0.40522 27.555 0C26.5419 12.5618 27.2173 25.0561 26.9471 37.753C27.4874 37.1452 27.8926 36.6724 28.2979 36.1997C30.7967 33.5658 34.1736 32.0124 37.753 31.6747C42.278 31.1344 46.8029 32.1475 50.585 34.5788C54.0969 36.8075 56.5957 40.387 57.3386 44.5067C57.9465 47.4108 58.2166 50.3149 58.1491 53.2865C58.1491 62.539 58.1491 71.7915 58.0815 81.1116C58.014 83.2052 58.2166 85.2989 58.6218 87.3925C59.6349 88.4731 60.9856 89.216 62.4714 89.4186C62.7416 89.4862 63.0792 89.4186 63.0792 89.8914C63.0792 87.4601 63.0792 92.2552 63.0792 89.8914H34.0385C34.0385 89.7563 33.9709 89.5537 33.9709 89.4186C33.9709 87.2574 33.9709 92.1201 33.9034 89.9589C33.9034 89.5537 34.0385 89.6888 34.4437 89.6212C35.4567 89.4186 36.3347 88.6757 36.7399 87.7302C37.1452 85.569 37.2802 83.3403 37.1452 81.1791C37.1452 72.1968 37.1452 63.2819 37.1452 54.2995C37.2802 52.2059 37.0776 50.1122 36.6724 48.0861C36.4698 46.1951 35.0515 44.5742 33.228 44.1015C31.1344 43.4261 28.8382 44.0339 27.2848 45.5873C27.0822 45.7899 27.0147 46.06 26.9471 46.3302C26.9471 58.0816 26.9471 69.7654 26.9471 81.5168C26.9471 81.5844 26.9471 81.6519 27.0147 81.7194C27.0147 88.0004 28.7706 89.1485 29.7161 89.4186C29.9187 89.4862 30.1214 89.6888 30.1889 89.8914C30.1889 87.4601 30.1889 92.2552 30.1889 89.8914H0.0675367C0.0675367 89.7563 0 89.5537 0 89.4186V89.8914C0 89.4186 0.135073 89.216 0.60783 89.216C2.29625 89.1485 3.91713 88.6082 5.3354 87.7302C6.34845 86.9873 5.94323 81.5844 5.94323 81.0441C5.94323 60.9181 5.87569 40.8597 5.87569 20.7338C5.87569 19.1129 5.74062 17.492 5.47047 15.9387C5.06525 13.9126 4.32235 7.56411 2.16117 6.55106C1.48581 6.28092 0.742903 6.14584 0 6.21338Z" fill="black"/>
<path d="M350.11 90.0258H349.435C340.182 90.0258 330.93 90.0258 321.677 90.0258H320.799C321.069 89.9583 321.272 89.8232 321.542 89.6881C322.352 89.0128 323.028 88.1348 323.433 87.1217C323.973 85.1632 324.176 83.1371 324.041 81.111C324.041 76.9912 324.041 72.8715 324.041 68.7518C324.041 63.0111 324.041 57.2705 323.973 51.5299C323.973 50.2467 323.838 48.896 323.636 47.6128C323.298 45.5867 321.609 44.1684 319.583 44.0333C317.76 43.6956 315.936 44.5061 314.856 45.9919C314.18 47.0725 313.91 48.3557 313.978 49.5713C313.978 52.4754 313.978 55.3795 313.978 58.2836C313.978 65.5775 313.978 72.8715 313.978 80.1655C313.978 81.7188 314.045 87.7296 315.666 89.0128C315.936 89.2829 316.274 89.4855 316.612 89.6206C317.287 89.9583 317.085 89.9583 316.544 89.9583C313.573 89.9583 310.669 89.9583 307.697 89.9583H287.166C287.166 89.8232 287.233 89.6881 287.774 89.6881C289.53 89.6206 291.15 88.7426 292.096 87.3244C292.771 85.2983 293.041 83.2046 292.974 81.111C292.974 72.2637 292.974 63.4839 292.974 54.6366C292.974 52.7456 292.771 45.1139 292.704 43.2229C292.704 43.0203 292.636 42.8852 292.569 42.6826C291.961 40.3188 290.813 39.0356 288.381 39.1707C287.976 39.1707 287.639 39.2382 287.166 39.2382C287.166 39.0356 287.368 38.5628 287.976 38.4278C294.595 36.4692 301.213 34.5106 307.9 32.5521C308.575 32.3495 309.318 32.2144 309.993 31.9442C310.533 31.7416 310.736 31.8767 310.939 32.3495C312.154 35.0509 312.762 37.955 312.83 40.9266C312.83 41.1292 312.83 41.3319 312.965 41.5345L313.37 40.7916C315.734 35.7938 320.529 32.417 326.067 31.7416C332.213 30.7286 338.359 33.295 341.938 38.3602C343.424 40.4539 344.369 42.8852 344.572 45.4516C344.91 48.018 345.112 50.6519 345.18 53.2183C345.247 62.1332 345.18 71.048 345.18 79.9629C345.315 81.9214 345.788 83.88 346.666 85.6359C347.341 87.0542 348.286 88.3374 349.502 89.418C349.705 89.7557 349.975 89.8908 350.11 90.0258Z" fill="black"/>
<path d="M164.722 89.892H132.237C132.237 89.892 132.304 89.5544 132.845 89.5544C134.601 89.6219 136.357 88.9465 137.572 87.6633C138.045 85.5022 138.18 83.341 138.045 81.1123C138.045 61.2565 138.045 34.4444 138.045 14.5886C138.045 12.9677 137.91 11.3468 137.64 9.79349C137.572 7.76739 135.884 6.21405 133.858 6.28158C133.588 6.28158 133.385 6.34912 133.115 6.34912C132.912 6.34912 132.642 6.41666 132.304 6.41666C132.237 6.21405 132.237 6.01144 132.237 5.80883C132.237 3.78273 132.237 8.78044 132.237 6.75434C132.237 6.14651 132.439 5.9439 132.98 5.80883C139.328 4.45809 145.677 3.10736 151.958 1.68909C154.321 1.21633 156.685 0.676036 158.981 0.203279C159.184 0.203279 159.387 0.135742 159.589 0.135742C159.522 1.62155 159.454 3.03982 159.387 4.45809C159.319 6.95695 159.116 9.45581 159.116 11.9547C159.116 34.3769 159.116 56.799 159.116 79.1537C159.116 79.7615 159.116 80.3694 159.116 80.9772C159.116 82.9358 159.454 84.8268 160.197 86.6503C161.075 88.1361 162.561 89.1491 164.249 89.3518C164.587 89.4193 164.857 89.4193 164.857 89.892C164.857 92.1883 164.857 87.3256 164.857 89.6219C164.789 89.757 164.789 89.8245 164.722 89.892Z" fill="black"/>
<path d="M220.372 31.7426C224.357 45.5877 228.341 59.3651 232.326 73.2777C232.461 73.0751 232.529 72.8725 232.664 72.7374C234.555 67.3345 236.513 61.9315 238.404 56.5286C238.742 55.3805 238.945 54.2324 238.945 53.0842C238.945 52.679 238.742 52.2738 238.472 52.0036C237.999 51.5309 237.459 51.1257 236.851 50.788C233.001 48.2891 230.57 43.9668 230.503 39.3743C230.3 35.5922 232.259 31.9452 235.568 30.1217C238.675 28.0281 242.659 28.0281 245.766 30.0542C248.4 31.7426 250.088 34.5116 250.493 37.6183C250.966 41.0627 250.696 44.6421 249.615 47.9514C248.13 53.3544 246.171 58.6898 243.942 63.8901C240.633 71.7244 237.121 79.5586 233.744 87.3254C233.339 88.2033 232.934 89.0138 232.461 89.8918C232.326 90.0944 232.056 90.2294 231.786 90.297C227.531 90.297 223.344 90.297 219.089 90.297C218.819 90.2294 218.616 90.0944 218.481 89.8918C215.645 84.4213 213.213 78.8157 211.187 73.0076C209.701 68.8878 208.351 64.7681 206.932 60.6483C205.852 57.4066 204.906 54.1648 203.826 50.9231C203.623 50.3152 202.745 47.6138 202.34 46.6007C201.664 44.1694 200.651 41.8731 199.233 39.7795C198.963 39.3743 197.207 39.1041 197.207 39.1041C197.207 38.4963 197.477 38.4288 198.017 38.2261C202.948 36.8079 207.945 35.3221 212.876 33.8363C215.509 33.2284 217.941 32.4855 220.372 31.7426Z" fill="black"/>
<path d="M167.086 89.8914C167.086 87.3925 167.086 92.2552 167.086 89.8914C167.086 89.4862 167.288 89.4186 167.626 89.3511C169.652 89.2836 171.476 88.1354 172.489 86.312C172.826 84.6235 173.029 82.8676 172.961 81.1792C172.961 71.3863 172.961 55.1775 172.894 45.3172C172.961 44.5743 172.894 43.7638 172.759 43.0209C172.354 41.1299 171.273 39.4415 169.449 39.5765C168.707 39.6441 167.964 39.7116 167.086 39.7792V38.9687C167.086 37.0102 167.086 41.4676 167.086 39.509C167.086 38.9687 167.288 38.7661 167.761 38.631C171.948 37.4829 176.136 36.3348 180.323 35.1867C184.848 33.9035 189.373 32.6203 193.898 31.3371C194.033 31.3371 194.1 31.2695 194.235 31.2695C194.235 31.4046 194.303 31.6072 194.303 31.7423C193.965 40.1168 193.965 48.4914 193.965 56.8659C193.965 64.9704 193.965 73.0748 193.965 81.1792C194.033 82.8676 194.303 84.556 194.776 86.1769C195.924 87.8653 196.937 89.081 198.22 89.216C198.693 89.2836 198.895 89.4186 198.895 89.9589C198.895 92.1201 198.895 87.2575 198.895 89.4186C198.895 90.0265 198.558 89.9589 198.22 89.9589C192.277 89.9589 186.401 89.9589 180.458 89.9589L167.086 89.8914Z" fill="black"/>
<path d="M284.667 90.2291H252.992C252.992 89.959 252.925 89.7564 252.925 89.4862C252.925 87.3926 252.925 92.3228 252.857 90.2291C252.857 89.7564 252.992 89.5538 253.465 89.5538C255.154 89.4187 258.665 88.1355 258.665 82.0572V81.3143C258.665 72.1293 258.665 62.9443 258.665 53.7593C258.665 52.1384 258.53 50.5176 258.26 48.8967C257.923 46.8706 257.045 39.3065 255.086 39.374C254.343 39.4415 253.668 39.5091 252.857 39.5766V38.8337C252.857 36.8076 252.857 41.8053 252.857 39.7792C252.857 39.4415 252.925 39.2389 253.33 39.1038C258.53 37.6856 263.663 36.2673 268.796 34.7815C272.443 33.7684 276.09 32.6879 279.804 31.6748C279.872 31.6748 279.94 31.6748 280.007 31.6748C280.007 31.8099 280.075 31.945 280.075 32.08C279.94 39.9143 279.804 47.7485 279.737 55.6503C279.669 64.2275 279.737 72.8722 279.669 81.4494C279.602 83.0027 279.804 84.5561 280.21 86.0419C281.155 88.4057 282.641 89.4862 283.789 89.6213C284.329 89.8915 284.735 90.0265 284.667 90.2291Z" fill="black"/>
<path d="M256.302 16.0735C256.099 9.31988 261.502 3.64679 268.256 3.51172C268.391 3.51172 268.458 3.51172 268.593 3.51172C275.549 3.71433 281.02 9.52249 280.817 16.4112V16.4788C280.75 23.2324 275.212 28.6354 268.458 28.5678C268.391 28.5678 268.323 28.5678 268.256 28.5678C261.637 28.5003 256.302 23.0974 256.369 16.4788C256.302 16.2762 256.302 16.2086 256.302 16.0735Z" fill="black"/>
<path d="M195.046 15.6007C195.046 22.3544 189.575 27.8248 182.822 27.8248C182.754 27.8248 182.687 27.8248 182.687 27.8248C176.068 27.8248 170.665 22.4894 170.598 15.8033C170.598 15.6682 170.598 15.5331 170.598 15.3981C170.395 8.57687 175.798 2.90378 182.552 2.70117H182.619C189.575 2.76871 195.113 8.44179 195.046 15.3981C195.046 15.5331 195.046 15.5331 195.046 15.6007Z" fill="black"/>
<path d="M389.484 51.936C389.484 49.5722 389.282 47.276 389.011 44.9122C388.809 42.2783 387.998 39.7794 386.715 37.4832C385.364 34.9168 382.123 33.9037 379.556 35.2545C378.543 35.7948 377.733 36.6052 377.26 37.6182C376.517 38.8339 376.044 40.1171 375.707 41.4678C374.423 47.5461 374.288 53.7595 375.234 59.9054C375.504 62.1341 376.247 64.2277 377.395 66.1187C378.746 68.6176 381.852 69.5631 384.351 68.2124C384.689 68.0098 385.027 67.8072 385.297 67.537C386.513 66.3889 387.39 64.9031 387.863 63.3497C389.011 59.6352 389.552 55.7856 389.484 51.936ZM382.46 73.4802C378.07 73.4802 373.681 72.6698 369.561 71.0489C369.021 70.7788 368.345 70.9138 367.94 71.3191C366.184 72.6698 365.779 75.1687 367.129 76.9921C367.602 77.6 368.278 78.0727 369.021 78.3429C370.709 79.0182 372.532 79.491 374.356 79.6261C378.476 80.0988 382.528 80.6391 386.648 81.1119C390.565 81.5846 394.549 81.9899 398.466 82.5977C403.127 83.138 407.516 84.7589 411.434 87.3928C415.418 90.1618 417.782 94.7543 417.85 99.6169C418.187 107.046 414.473 114.07 408.124 117.987C403.464 121.094 398.196 123.187 392.658 124.065C389.687 124.673 386.648 124.943 383.676 124.943C374.964 125.348 366.319 123.592 358.485 119.878C355.243 118.392 352.677 115.758 351.258 112.449C349.637 109.14 350.11 105.155 352.339 102.251C355.243 99.0091 360.241 98.6714 363.618 101.508C366.184 104.074 367.872 107.451 368.413 111.031C368.75 112.652 368.953 114.34 369.021 116.028C369.021 116.569 369.358 117.109 369.898 117.244C372.465 118.325 375.234 119 378.003 119.338C382.73 120.013 387.526 119.81 392.186 118.797C394.414 118.325 396.44 117.447 398.264 116.096C401.236 113.867 401.911 109.68 399.682 106.641C398.939 105.628 397.926 104.885 396.778 104.412C393.806 103.331 390.7 102.521 387.526 102.116C382.19 101.103 376.787 100.09 371.452 99.1442C368.21 98.6039 365.103 97.5908 362.267 96.0375C355.783 92.2554 353.555 83.9484 357.337 77.4649C357.674 76.8571 358.08 76.2492 358.552 75.7089C360.308 73.4802 362.469 71.5217 364.968 70.0359C365.238 69.9008 365.644 69.8333 365.576 69.428C365.509 69.0904 365.171 69.0228 364.833 68.8202C360.849 66.7266 357.607 63.3497 355.716 59.23C353.014 53.4218 353.69 46.6682 357.404 41.4678C360.646 37.0104 365.238 33.7011 370.506 32.0802C374.221 30.7295 378.138 29.9866 382.055 29.9866C387.053 29.9866 392.05 31.0672 396.643 33.1608C398.331 33.9037 397.994 33.9037 399.074 32.553C401.708 28.906 405.423 26.137 409.678 24.7187C413.797 23.1654 418.39 23.7732 421.902 26.4071C424.266 28.1631 425.279 31.2023 424.536 34.0388C424.063 36.5377 422.239 38.5638 419.808 39.3067C415.418 40.7925 410.556 39.104 407.922 35.2545C407.381 34.5116 406.841 33.6336 406.436 32.8231C406.166 32.3504 405.896 32.2153 405.423 32.6205C404.342 33.566 403.329 34.5791 402.451 35.7272C401.978 36.2675 402.249 36.6052 402.721 37.0104C405.355 39.104 407.449 41.8055 408.732 44.9122C411.434 51.3957 410.15 58.8923 405.423 64.1602C399.277 69.9683 391.037 73.4127 382.46 73.4802Z" fill="black"/>
<path d="M107.046 42.2118L127.914 84.017C128.657 85.3002 129.535 86.5159 130.481 87.664C131.561 88.6095 132.777 89.3524 134.06 89.9603H99.7516C101.17 89.6226 102.453 88.9472 103.534 88.0692C104.412 86.9211 104.682 85.3678 104.141 84.017L92.9979 60.7844C91.9173 62.2702 91.1069 63.9586 90.6341 65.7821C90.4315 67.8082 90.6341 80.0323 90.6341 84.0845C90.8367 85.4353 91.377 86.786 92.1875 87.8666C93.4031 88.8797 94.7539 89.6226 96.3072 89.9603H62.809C64.2948 89.6901 65.7131 89.0147 66.9288 88.0017C67.8743 86.9211 68.4146 85.5028 68.4821 84.0845C68.4821 83.8144 68.4821 22.4235 68.4821 20.3974C68.6172 18.4389 68.4821 16.4803 68.1444 14.5893C67.1989 10.8747 64.0922 10.2669 60.8505 9.3214C63.4169 8.51096 87.1222 0.879315 90.7017 0.271484C90.7017 2.43266 90.4315 55.5165 90.7692 57.6102C94.4162 50.7889 99.549 44.9133 105.897 40.4558" fill="black"/>
<path d="M104.749 44.7767C108.937 42.8857 112.719 40.0491 115.69 36.6048L115.758 36.5372C116.973 35.0514 117.851 33.2279 118.257 31.3369C118.662 29.581 118.662 27.6899 118.324 25.934C117.581 23.165 115.285 21.0713 112.381 20.6661C109.679 20.396 106.978 21.6116 105.425 23.8403C103.871 25.8664 103.196 28.4328 103.534 30.9992C104.006 33.9033 105.425 36.6048 107.586 38.6984L105.627 40.0491" fill="black"/>
</svg>
