<svg width="479" height="100" viewBox="0 0 479 100" fill="none" xmlns="http://www.w3.org/2000/svg">
<path d="M166.396 99.4269H168.414L170.433 86.2084C170.433 85.6337 170.721 85.059 170.721 84.4842C170.721 83.6222 170.721 83.9095 170.721 83.3348C171.01 84.4842 171.01 84.4843 171.586 85.3463L177.931 99.7142L183.987 85.059C183.987 84.7716 183.987 84.7716 184.275 83.9095C184.563 83.0475 184.563 83.3348 184.563 83.0475V83.3348V84.1969V84.4842L184.852 85.921L186.871 99.1395H188.889L185.14 76.7256L178.507 92.2429C178.219 93.105 177.931 93.9671 177.354 95.1165C177.066 94.5418 177.066 94.2544 176.777 93.9671C176.489 93.105 176.2 92.5303 175.912 92.2429L169.279 76.7256L166.396 99.4269Z" fill="black"/>
<path d="M198.982 77.5869H196.964V99.1388H198.982V77.5869Z" fill="black"/>
<path d="M207.922 99.4261H216.574V97.702H209.653V77.5869H207.922V99.4261Z" fill="black"/>
<path fill-rule="evenodd" clip-rule="evenodd" d="M235.895 91.0923H228.109L230.128 85.9198V85.3451L230.416 84.7704L230.704 84.1957L231.281 82.7589C231.57 82.1842 231.57 81.8968 231.858 81.0347C232.146 82.1842 232.435 82.7589 233.011 83.9083L233.877 85.9198L235.895 91.0923ZM231.858 77.0117L222.63 99.4256H224.648L227.532 92.8164H236.472L239.356 99.4256H241.375L231.858 77.0117Z" fill="black"/>
<path d="M248.296 99.4256H250.314V83.3336C250.314 82.7589 250.314 82.1842 250.314 81.6094C250.603 82.1842 251.179 82.7589 251.756 83.3336L266.752 100V77.5864H264.445V92.2417C264.445 92.5291 264.445 92.8164 264.445 93.1038C264.445 93.3911 264.445 93.9658 264.445 94.2532C264.445 94.5406 264.445 94.8279 264.445 95.4026C264.157 94.8279 263.868 94.5406 263.291 93.9658L248.007 77.0117L248.296 99.4256Z" fill="black"/>
<path fill-rule="evenodd" clip-rule="evenodd" d="M286.073 79.022C291.264 79.3094 295.302 83.6197 295.013 89.0795C294.725 93.9646 290.976 97.7003 286.073 97.9876C280.883 97.7003 276.845 93.3899 277.134 87.9301C277.422 83.045 281.459 79.3094 286.073 79.022ZM286.073 77.2979C283.19 77.2979 280.306 78.4473 277.999 80.4588C275.98 82.4703 274.827 85.3439 274.538 88.5048C274.827 94.8267 280.306 99.7118 286.362 99.137C292.129 98.8497 296.744 94.252 297.032 88.5048C297.032 85.6312 295.878 82.7577 293.571 80.7462C292.129 78.4473 289.246 77.2979 286.073 77.2979Z" fill="black"/>
<path d="M4.90247 1.43652H0V54.5977H4.90247V1.43652Z" fill="black"/>
<path fill-rule="evenodd" clip-rule="evenodd" d="M65.7508 47.1251C55.3691 54.3091 40.95 51.7228 33.7405 41.378C31.1451 37.3549 29.7032 32.7572 29.7032 28.1595C29.4148 15.8031 39.2197 5.45823 51.6201 4.88351C51.9085 4.88351 52.1969 4.88351 52.4853 4.88351C57.0993 4.88351 61.7134 6.32031 65.7508 8.90653V3.73407C61.7134 1.72257 57.0993 0.860495 52.4853 0.860495C37.2011 0.573137 24.8007 12.6422 24.5123 27.8721C24.5123 28.1595 24.5123 28.1595 24.5123 28.4469C24.5123 34.4814 26.531 40.5159 30.2799 45.1136C35.4708 52.0102 43.8338 55.7459 52.4853 55.4585C57.0993 55.4585 61.4251 54.5964 65.7508 52.5849V47.1251Z" fill="black"/>
<path d="M85.3606 54.5977H90.2631V27.8735H119.678V54.5977H124.292V1.43652H119.678V23.5631H90.2631V1.43652H85.3606V54.5977Z" fill="black"/>
<path d="M146.497 54.5977H172.163V50.2874H151.111V28.1608H172.163V24.1378H151.111V5.74689H172.163V1.43652H146.497V54.5977Z" fill="black"/>
<path d="M192.638 54.598H197.541V15.5173C197.541 14.0805 197.541 12.6438 197.252 11.207C198.406 12.6438 199.559 14.0805 200.713 15.5173L237.625 56.8969V1.43679H232.723V37.3565C232.723 37.9312 232.723 38.506 232.723 39.6554C232.723 40.8048 232.723 41.6669 232.723 42.8163C232.723 43.9658 232.723 44.5405 233.011 45.4026C232.146 44.2531 231.281 43.1037 230.416 41.9543L192.926 0V54.598H192.638Z" fill="black"/>
<path fill-rule="evenodd" clip-rule="evenodd" d="M264.156 50.2861V5.74565H267.04C274.826 5.74565 278.287 6.32037 282.324 8.33188C289.245 11.4928 292.994 18.9641 292.994 28.4469C293.283 35.6309 290.111 42.8148 284.055 47.1252C280.306 49.7114 277.422 50.2861 269.347 50.2861H264.156ZM259.542 54.5965H269.924C274.538 54.8839 279.152 54.0218 283.478 52.585C297.032 45.4011 302.511 28.7343 295.301 15.2285C293.283 11.4928 290.687 8.33189 287.515 6.03303C282.901 2.87209 277.422 1.72266 267.905 1.72266H259.254L259.542 54.5965Z" fill="black"/>
<path fill-rule="evenodd" clip-rule="evenodd" d="M343.75 4.8834C356.439 4.8834 366.82 15.2283 366.82 28.1594C366.82 40.8031 356.439 51.148 343.461 51.148C330.484 51.148 320.391 40.8031 320.391 27.872C320.391 15.2283 331.061 4.8834 343.75 4.8834ZM343.75 0.860381C336.54 0.860381 329.331 3.44659 324.14 8.61904C318.949 13.7915 316.065 20.6881 315.777 28.1594C315.777 43.6767 328.177 56.0331 343.75 56.0331C359.322 56.0331 371.723 43.6767 371.723 28.1594C371.723 12.9294 359.034 0.573023 343.75 0.860381Z" fill="black"/>
<path fill-rule="evenodd" clip-rule="evenodd" d="M396.235 5.7458H399.407C401.714 5.7458 403.733 5.74581 406.04 6.32053C409.789 7.75732 412.384 11.7803 411.807 15.8033C412.096 18.9643 410.654 22.1252 407.77 24.1367C406.04 25.2861 404.598 25.5735 399.695 25.5735H396.235V5.7458ZM391.621 1.43543V54.5966H396.523V29.5965H399.407L414.403 54.5966H419.882L404.886 29.5965C412.672 28.4471 417.863 21.2631 416.998 13.5045C416.133 7.75732 411.807 3.1596 406.04 1.72281C403.156 1.43545 400.272 1.14807 397.1 1.43543H391.621Z" fill="black"/>
<path d="M438.339 54.5977H443.241V28.1608H463.716V24.1378H443.241V5.74689H463.716V1.43652H438.339V54.5977Z" fill="black"/>
<path fill-rule="evenodd" clip-rule="evenodd" d="M476.116 46.2632H476.405C476.693 46.2632 476.981 46.2632 477.27 46.2632C477.846 46.5506 478.135 46.8379 477.846 47.4126C477.846 47.7 477.558 48.2747 477.27 48.2747C476.981 48.2747 476.693 48.2747 476.405 48.2747H476.116V46.2632ZM475.539 45.6885V52.0104H476.116V49.1368H476.405L478.135 52.0104H479L477.27 49.1368C478.135 49.1368 478.712 48.2747 478.712 47.4126C478.712 46.5505 478.135 45.6885 477.27 45.6885H475.539Z" fill="black"/>
</svg>
