<svg width="397" height="90" viewBox="0 0 397 90" fill="none" xmlns="http://www.w3.org/2000/svg">
<g clip-path="url(#clip0_117_279)">
<path d="M15.2973 0H0C1.41206 4.63254 2.31627 11.9529 2.31627 19.4096V70.578C2.31627 78.0347 1.41206 85.3675 0 89.9876H15.2973C13.8852 85.3551 12.981 78.0347 12.981 70.578V19.4096C12.981 11.9529 13.8852 4.62015 15.2973 0Z" fill="black"/>
<path d="M382.481 59.3931L367.444 23.398C362.948 12.7209 359.22 3.20809 358.192 0H350.475C349.447 3.20809 345.718 12.7333 341.222 23.398L326.185 59.3931C320.017 74.3064 315.384 83.4352 311.916 89.9876H325.801C327.597 84.9711 330.817 76.1024 333.778 68.6457H374.666C377.626 76.1024 380.834 84.9711 382.642 89.9876H396.788C393.32 83.4352 388.687 74.3064 382.519 59.3931H382.481ZM337.097 60.0372L354.191 16.3254L371.284 60.0372H337.085H337.097Z" fill="black"/>
<path d="M131.656 8.60859C145.925 8.60859 157.494 9.89678 165.731 12.597L163.154 0H57.8571L55.2808 12.597C63.5054 9.89678 74.9505 8.60859 89.2197 8.60859V70.578C89.2197 78.0347 88.3154 85.3675 86.9034 89.9876H102.201C100.789 85.3551 99.8844 78.0347 99.8844 70.578V8.60859H120.966V70.578C120.966 78.0347 120.062 85.3675 118.65 89.9876H133.947C132.535 85.3551 131.631 78.0347 131.631 70.578V8.60859H131.656Z" fill="black"/>
<path d="M170.091 90.0003C171.887 84.9838 175.107 76.1151 178.068 68.6584H218.955C221.916 76.1151 225.124 84.9838 226.932 90.0003H241.078C237.609 83.4479 232.977 74.3191 226.808 59.4058L211.771 23.4107C207.275 12.7336 203.547 3.22079 202.519 0.0126953H194.802C193.774 3.22079 190.045 12.746 185.549 23.4107L170.512 59.4058C164.344 74.3191 159.711 83.4479 156.243 90.0003H170.128H170.091ZM198.505 16.3257L215.599 60.0375H181.4L198.493 16.3257H198.505Z" fill="black"/>
<path d="M43.972 0H28.6747C30.0867 4.63254 30.991 11.9529 30.991 19.4096V70.578C30.991 78.0347 30.0867 85.3675 28.6747 89.9876H43.972C42.5599 85.3551 41.6557 78.0347 41.6557 70.578V19.4096C41.6557 11.9529 42.5599 4.62015 43.972 0Z" fill="black"/>
<path d="M263.943 19.4096C263.943 11.9529 264.847 4.62015 266.259 0H250.962C252.374 4.63254 253.278 11.9529 253.278 19.4096V70.578C253.278 78.0347 252.374 85.3675 250.962 89.9876H301.363L303.939 77.3906C295.714 80.0908 282.473 81.379 263.955 81.5029V19.4096H263.943Z" fill="black"/>
</g>
<defs>
<clipPath id="clip0_117_279">
<rect width="396.751" height="90" fill="white"/>
</clipPath>
</defs>
</svg>
