<svg width="501" height="58" viewBox="0 0 501 58" fill="none" xmlns="http://www.w3.org/2000/svg">
<path fill-rule="evenodd" clip-rule="evenodd" d="M185.878 5.08293C186.008 2.21854 188.351 -0.125021 191.344 0.00517542C194.208 0.135375 196.551 2.47894 196.421 5.47352C196.291 8.33788 193.948 10.5513 191.214 10.5513C188.221 10.5513 185.878 8.07748 185.878 5.08293ZM397.781 56.902V48.309H406.893V8.98893H395.568V0.265623H415.744V33.0756L426.678 22.6598H422.644V14.1969H444.9V22.6598H437.482L428.5 31.6436L437.873 48.309H446.333V56.902H423.814V48.309H428.239L422.122 37.3722L415.614 43.6217V48.309H421.34V56.902H397.781ZM132.249 56.902V48.309H139.408V22.6599H130.818V14.197H148.259V21.3579C151.514 17.9727 156.069 13.4158 162.968 13.4158C167.654 13.4158 172.86 16.6707 172.86 22.0089C172.991 24.6128 171.168 26.8262 168.565 27.0866H168.435C166.613 27.2168 164.92 26.1752 164.14 24.6128C163.619 23.441 162.448 22.6599 161.016 22.6599C155.158 22.6599 149.431 29.0396 147.999 32.9456V48.4391H154.898V57.0324L132.249 56.902ZM337.121 48.309V56.902H360.681V48.309H355.085V43.6217L361.723 37.3722L367.841 48.309H363.415V56.902H385.804V48.309H377.344L367.971 31.5132L376.953 22.5296H384.24V14.0667H361.984V22.6598H366.019L355.085 33.0756V0.265623H334.908V8.98893H346.233V48.309H337.121ZM83.1767 45.9652C83.1767 48.5692 84.9988 49.7411 88.2529 49.7411C97.3644 49.7411 105.565 44.7936 105.565 38.4137V36.2002L104.523 36.3306L104.224 36.3796C97.6894 37.4449 83.1767 39.8116 83.1767 45.9652ZM101.253 30.1194C89.9366 32.0474 73.9322 34.774 73.9322 46.4861C73.9322 54.0376 79.3992 57.9436 87.2087 57.9436C95.0186 57.9436 101.397 55.0791 105.432 50.7826V57.0321H120.01V48.4391H113.892V28.1281C113.892 18.4934 108.035 13.2854 95.279 13.2854C90.5932 13.2854 78.0975 15.2384 78.0975 24.4825V25.0033C78.2276 27.2167 80.18 29.0396 82.5229 28.9092C85.4411 28.9092 86.1127 27.4794 86.9009 25.8014C87.2027 25.159 87.5216 24.4803 87.9899 23.8316C89.1612 22.139 91.3741 20.7068 96.9711 20.7068C101.657 20.7068 105.171 22.3994 105.171 26.9563V29.4301C103.962 29.6578 102.643 29.8827 101.253 30.1194ZM478.871 13.2854C466.634 13.2854 456.743 23.1806 456.743 35.4192C456.743 47.658 466.634 57.553 478.871 57.553C491.106 57.553 501 47.658 501 35.4192C501 23.1806 491.106 13.2854 478.871 13.2854ZM465.728 35.4192C465.728 42.7102 471.714 48.6993 479.005 48.6993C486.292 48.6993 492.279 42.7102 492.279 35.4192C492.279 28.1281 486.292 22.1389 479.005 22.1389C471.584 22.2691 465.728 28.1281 465.728 35.4192ZM319.421 28.9092H297.163C298.724 24.2221 303.149 21.0973 308.096 21.0973C313.823 21.0973 317.988 23.9617 319.421 28.9092ZM286.879 35.8097C286.879 24.2221 295.21 13.2854 308.227 13.2854C319.679 13.2854 329.052 22.6598 329.052 34.1172V34.5077V36.3306H295.859V37.1117C295.732 44.0122 301.328 49.7411 308.227 49.7411H308.487C312.783 49.8712 316.948 47.9182 319.549 44.403C321.374 42.0592 322.544 41.4082 324.366 41.4082C326.187 41.4082 327.751 42.8406 327.882 44.7936V45.054C327.882 50.2617 320.201 57.8135 308.618 57.8135C294.037 57.8135 287.009 46.6162 286.879 35.8097ZM180.278 48.3087V56.9017H202.406V48.3087H196.158V14.0665H180.408V22.6596H187.047V48.3087H180.278ZM1.95246 56.902V48.3087H8.20033V22.6597H0V14.0666H17.3118V16.1498C18.2229 15.2384 20.5659 13.1552 25.6423 13.1552C30.7187 13.1552 34.4933 15.629 35.4045 17.0612C36.3157 15.8894 40.6111 13.2854 45.9477 13.2854C52.7163 13.2854 59.2245 17.0612 59.2245 24.3523V48.3087H64.8216V56.902H45.8177V48.3087H50.7639V26.8261C50.7639 23.1805 48.421 21.6181 44.7764 21.6181C40.0903 21.6181 38.2682 24.2221 38.2682 27.2167V48.3087H43.2144V56.902H24.7311V48.3087H29.6774V27.0865C29.6774 23.3107 27.3344 21.6181 23.6898 21.6181C19.6547 21.6181 17.3118 23.5711 17.3118 27.0865V48.3087H22.258V56.902H1.95246ZM215.028 48.3087V56.902H235.334V48.3087H230.387V27.0865C230.387 23.5711 233.121 21.6181 236.896 21.6181C240.67 21.6181 242.883 23.3107 242.883 27.0865V48.3087H237.937V56.902H256.42V48.3087H251.474V27.2167C251.474 24.2221 253.166 21.6181 257.852 21.6181C261.496 21.6181 263.84 23.1805 263.84 26.8261V48.3087H258.893V56.902H277.897V48.3087H272.3V24.3523C272.3 17.0612 265.662 13.2854 259.024 13.2854C253.687 13.2854 249.392 15.8894 248.48 17.0612C247.699 15.629 243.794 13.1552 238.718 13.1552C233.641 13.1552 231.299 15.2384 230.387 16.1498V14.0666H213.076V22.6597H221.276V48.3087H215.028Z" fill="black"/>
</svg>
