<svg width="392" height="75" viewBox="0 0 392 75" fill="none" xmlns="http://www.w3.org/2000/svg">
<path fill-rule="evenodd" clip-rule="evenodd" d="M354.052 56.6477C348.489 56.6477 339.949 52.989 339.949 37.2586C339.949 21.5282 348.489 17.8695 354.052 17.8695C359.618 17.8695 368.159 21.5282 368.159 37.2586C368.159 52.989 359.615 56.6477 354.052 56.6477ZM354.052 0.260759C332.488 0.260759 318.085 15.6879 318.085 37.2586C318.085 58.8292 332.488 74.2564 354.052 74.2564C375.623 74.2564 390.033 58.8325 390.033 37.2586C390.033 15.6847 375.62 0.260759 354.052 0.260759ZM176.697 1.61076H159.355C158.745 1.61074 158.159 1.85208 157.726 2.28214C157.293 2.7122 157.048 3.29607 157.043 3.90641V40.2651C157.043 47.5173 157.043 56.576 146.654 56.576C135.985 56.576 135.985 47.5173 135.985 40.2651V3.90641C135.98 3.29551 135.735 2.71114 135.301 2.28099C134.867 1.85084 134.28 1.60988 133.67 1.61076H116.325C115.716 1.61076 115.131 1.85241 114.699 2.28274C114.268 2.71307 114.025 3.29697 114.023 3.90641V45.1336C114.023 64.8195 124.8 74.2564 146.56 74.2564C168.326 74.2564 178.996 64.8195 178.996 45.1336V3.90641C178.994 3.29753 178.751 2.71413 178.32 2.28389C177.889 1.85365 177.306 1.61162 176.697 1.61076ZM247.546 1.61076H230.208C229.905 1.60947 229.605 1.66783 229.325 1.7825C229.044 1.89717 228.79 2.06591 228.575 2.27908C228.36 2.49225 228.189 2.74568 228.072 3.0249C227.955 3.30412 227.894 3.60366 227.892 3.90641V40.2651C227.892 47.5173 227.892 56.576 217.516 56.576C206.827 56.576 206.827 47.5173 206.827 40.2651V3.90641C206.826 3.60408 206.766 3.30489 206.649 3.0259C206.533 2.74692 206.363 2.49361 206.148 2.28044C205.934 2.06726 205.68 1.89841 205.4 1.7835C205.12 1.6686 204.821 1.6099 204.518 1.61076H187.19C186.578 1.60816 185.991 1.84846 185.556 2.27888C185.121 2.70931 184.875 3.29467 184.872 3.90641V45.1336C184.872 64.8195 195.665 74.2564 217.415 74.2564C239.172 74.2564 249.861 64.8195 249.861 45.1336V3.90641C249.86 3.60366 249.799 3.30412 249.682 3.0249C249.565 2.74568 249.394 2.49225 249.179 2.27908C248.964 2.06591 248.709 1.89717 248.429 1.7825C248.148 1.66783 247.848 1.60947 247.546 1.61076ZM75.4663 0.250977C66.375 0.250977 59.2206 1.89772 53.9739 5.25641C48.6978 1.89772 41.5239 0.250977 32.4359 0.250977C10.6761 0.250977 0 9.6912 0 29.3705V70.5879C0 71.8662 1.03043 72.8999 2.29891 72.8999H19.65C20.9217 72.8999 21.9489 71.8662 21.9489 70.5912V34.239C21.9489 26.9771 21.9489 17.9412 32.338 17.9412C43.0174 17.9412 43.0174 26.9771 43.0174 34.239V70.5879C43.0174 71.8597 44.0609 72.8966 45.3293 72.8966H62.6707C63.9424 72.8966 64.9761 71.8629 64.9761 70.5879V34.239C64.9761 26.9771 64.9761 17.9412 75.3587 17.9412C86.0446 17.9412 86.0446 26.9771 86.0446 34.239V70.5879C86.0446 71.8597 87.075 72.8966 88.3467 72.8966H105.688C106.3 72.8966 106.888 72.6534 107.321 72.2204C107.754 71.7875 107.997 71.2002 107.997 70.5879V29.3705C107.997 9.6912 97.2228 0.250977 75.4663 0.250977ZM314.482 1.61076H257.211C256.601 1.60989 256.015 1.85117 255.583 2.28159C255.151 2.71202 254.907 3.2964 254.905 3.90641V17.4945C254.905 18.7695 255.933 19.7868 257.211 19.7868H274.862V70.6205C274.862 71.8858 275.892 72.9162 277.177 72.9162H294.502C295.115 72.9197 295.704 72.6799 296.14 72.2494C296.576 71.819 296.823 71.2331 296.827 70.6205V19.7868H314.482C315.753 19.7868 316.78 18.7695 316.78 17.4945V3.90641C316.78 3.29727 316.537 2.71337 316.106 2.28294C315.675 1.85252 315.091 1.61076 314.482 1.61076Z" fill="black"/>
</svg>
