<svg width="530" height="60" viewBox="0 0 530 60" fill="none" xmlns="http://www.w3.org/2000/svg">
<g clip-path="url(#clip0_117_183)">
<path d="M78.0874 6.75605C83.527 6.81843 88.7458 8.91689 92.7145 12.6376C96.6831 16.3582 99.1135 21.431 99.5263 26.8553H106.885V26.7016C106.315 19.4492 103.031 12.6782 97.6897 7.73978C92.3479 2.80131 85.3406 0.0584375 78.0658 0.0584375C70.791 0.0584375 63.7837 2.80131 58.4419 7.73978C53.1002 12.6782 49.8168 19.4492 49.247 26.7016V26.8601H56.6125C57.0429 21.4356 59.4834 16.3673 63.4558 12.6484C67.4283 8.92955 72.6463 6.82816 78.0874 6.75605ZM78.0874 53.3045C72.6446 53.248 67.4202 51.1558 63.4429 47.4398C59.4656 43.7238 57.0238 38.6533 56.5981 33.2269H49.2326V33.2749C49.78 40.5435 53.0538 47.3367 58.3981 52.2936C63.7423 57.2504 70.7622 60.0048 78.0514 60.0048C85.3405 60.0048 92.3604 57.2504 97.7047 52.2936C103.049 47.3367 106.323 40.5435 106.87 33.2749V33.2269H99.5118C99.0889 38.6429 96.6566 43.7052 92.6927 47.42C88.7288 51.1347 83.5194 53.2336 78.0874 53.3045ZM124.71 1.592H117.352V45.4636H124.71V1.592ZM151.901 51.8089H117.371V58.4278H151.901V51.8089ZM37.3079 33.6567C39.9333 31.0313 41.7216 27.6865 42.4466 24.0451C43.1717 20.4037 42.801 16.6291 41.3815 13.1983C39.9619 9.76752 37.5572 6.83452 34.4712 4.76998C31.3853 2.70545 27.7566 1.60204 24.0437 1.5992H13.7204V8.28774H23.7676C25.308 8.28013 26.833 8.59488 28.2446 9.21176C29.6561 9.82864 30.923 10.734 31.9638 11.8697C34.0532 14.2231 35.2071 17.261 35.2071 20.408C35.2071 23.5551 34.0532 26.5929 31.9638 28.9464C30.9129 30.0627 29.642 30.9491 28.2313 31.5495C26.8206 32.1499 25.3007 32.4513 23.7676 32.4347H13.718V39.1304H24.0413C26.5039 39.1375 28.9436 38.6575 31.22 37.7181C33.4964 36.7787 35.5646 35.3984 37.3055 33.6567H37.3079ZM7.35115 1.61121H0V58.4398H7.35836L7.35115 1.61121ZM178.953 59.9211C190.443 59.9211 198.788 52.6611 198.788 42.6571C198.788 34.6698 193.713 28.8815 185.21 27.1794L182.905 26.7184L181.174 33.371L182.773 33.6927C188.357 34.7754 191.716 38.0357 191.716 42.8804C191.716 47.9004 187.442 53.4702 178.723 53.4702C175.6 53.6052 172.521 52.7072 169.96 50.9152C167.399 49.1232 165.501 46.5372 164.558 43.5574L164.318 42.7892L157.947 45.4132L158.163 46.0494C161.543 56.2767 171.12 59.9211 178.953 59.9211ZM174.536 24.817C172.409 24.5391 170.445 23.528 168.983 21.9578C167.521 20.3877 166.652 18.3568 166.527 16.2151C166.527 9.65858 172.894 6.54478 178.339 6.54478C181.296 6.45234 184.202 7.33278 186.61 9.05101C189.019 10.7692 190.797 13.2303 191.673 16.0566L191.913 16.8105L198.001 14.4433L197.819 13.8143C194.957 3.73108 185.671 0.129931 178.348 0.129931C173.727 0.0347637 169.203 1.45748 165.468 4.18003C163.593 5.5982 162.081 7.44183 161.058 9.55894C160.035 11.676 159.53 14.006 159.584 16.3567C159.584 24.7354 166.28 30.0123 172.918 31.5344L174.692 31.9257L176.5 25.2804L174.536 24.817ZM289.401 6.75605C294.84 6.81797 300.058 8.91642 304.026 12.6373C307.994 16.3582 310.424 21.4312 310.835 26.8553H318.193V26.7016C317.631 19.4464 314.351 12.6705 309.011 7.72768C303.67 2.78489 296.661 0.039213 289.384 0.039213C282.107 0.039213 275.098 2.78489 269.757 7.72768C264.416 12.6705 261.137 19.4464 260.575 26.7016V26.8601H267.926C268.354 21.4348 270.794 16.3653 274.767 12.6459C278.74 8.92665 283.959 6.82599 289.401 6.75605ZM289.401 53.3045C283.958 53.246 278.734 51.1532 274.756 47.4378C270.778 43.7224 268.334 38.6532 267.904 33.2269H260.575V33.2749C261.122 40.5429 264.396 47.3355 269.739 52.2919C275.083 57.2484 282.103 60.0025 289.391 60.0025C296.68 60.0025 303.699 57.2484 309.043 52.2919C314.386 47.3355 317.66 40.5429 318.207 33.2749V33.2269H310.842C310.41 38.6426 307.973 43.7022 304.007 47.4157C300.042 51.1291 294.833 53.229 289.401 53.3045ZM247.867 33.6567C250.496 31.0326 252.288 27.6876 253.015 24.045C253.742 20.4025 253.372 16.6261 251.952 13.1939C250.531 9.76165 248.125 6.8279 245.037 4.76394C241.949 2.69998 238.317 1.5986 234.603 1.5992H224.28V8.28774H234.339C235.881 8.27912 237.407 8.59338 238.82 9.2103C240.233 9.82721 241.501 10.7331 242.542 11.8697C244.633 14.2224 245.788 17.2605 245.788 20.408C245.788 23.5555 244.633 26.5936 242.542 28.9464C241.494 30.0655 240.223 30.9538 238.812 31.5548C237.401 32.1558 235.88 32.4563 234.346 32.4371H224.27V39.1328H234.593C237.056 39.1412 239.496 38.6618 241.773 37.7224C244.05 36.7829 246.118 35.4019 247.858 33.6591L247.867 33.6567ZM217.911 1.61121H210.567V58.4398H217.918L217.911 1.61121ZM489.154 23.3165C489.146 18.7738 490.871 14.399 493.977 11.0846C497.071 8.25403 501.123 6.70201 505.316 6.74165C509.691 6.70039 513.933 8.24294 517.26 11.0846C520.386 14.3864 522.113 18.7699 522.078 23.3165V26.8913H529.449V22.9612C529.464 19.8664 528.867 16.799 527.69 13.9364C526.514 11.0738 524.782 8.47265 522.594 6.2831C520.268 4.15114 517.543 2.49886 514.577 1.42079C511.611 0.342726 508.462 -0.139981 505.309 0.00028963C502.245 -0.0700845 499.198 0.472503 496.347 1.59618C493.496 2.71985 490.899 4.40195 488.707 6.54367C486.515 8.68538 484.773 11.2435 483.584 14.0678C482.395 16.8921 481.782 19.9256 481.781 22.99V26.9201H489.154V23.3165ZM395.063 14.597H387.705V58.4398H395.063V14.597ZM412.267 1.61121H370.494V8.23012H412.267V1.61121ZM362.314 1.61121H320.541V8.23012H362.314V1.61121ZM345.113 14.597H337.754V58.4398H345.113V14.597ZM414.625 33.2725C415.074 39.4442 417.492 45.3088 421.523 50.0039C425.553 54.699 430.984 57.9767 437.017 59.3551C443.049 60.7335 449.365 60.1398 455.035 57.6612C460.705 55.1827 465.43 50.9501 468.515 45.5861L468.844 45.0075L462.782 40.8878L462.405 41.5864C460.644 45.0985 457.943 48.0535 454.603 50.1231C451.264 52.1926 447.416 53.2955 443.487 53.3093C438.043 53.2524 432.818 51.1602 428.84 47.4445C424.862 43.7288 422.418 38.6586 421.99 33.2317H414.613L414.625 33.2725ZM489.166 33.2245H481.808V58.3798H489.166V33.2245ZM529.06 33.2245H521.701V58.3798H529.06V33.2245ZM472.246 26.7112C471.679 19.4558 468.397 12.681 463.055 7.73927C457.713 2.79758 450.703 0.0527116 443.426 0.0527116C436.148 0.0527116 429.138 2.79758 423.796 7.73927C418.454 12.681 415.172 19.4558 414.605 26.7112V26.8601H421.964C422.324 21.4106 424.743 16.3019 428.73 12.5696C432.717 8.83728 437.974 6.76064 443.435 6.76064C448.896 6.76064 454.154 8.83728 458.141 12.5696C462.128 16.3019 464.546 21.4106 464.906 26.8601C464.905 26.9747 464.917 27.0892 464.942 27.201H432.772V32.9628H472.063C472.063 32.8572 472.224 31.5656 472.265 31.0014C472.315 30.3028 472.342 29.6474 472.342 28.956C472.342 28.4878 472.342 28.0269 472.308 27.5587C472.308 27.4795 472.246 26.7112 472.246 26.7112Z" fill="black"/>
</g>
<defs>
<clipPath id="clip0_117_183">
<rect width="529.449" height="60" fill="white"/>
</clipPath>
</defs>
</svg>
