<svg width="449" height="56" viewBox="0 0 449 56" fill="none" xmlns="http://www.w3.org/2000/svg">
<path d="M31.8072 53.8268C31.8072 54.7437 31.3582 55.2111 30.4242 55.2111C30.065 55.2111 29.7597 55.0673 29.4724 54.7796L6.39376 31.6417C5.98068 31.2462 5.76516 30.8686 5.76516 30.4911C5.76516 29.5742 6.32192 29.1067 7.43544 29.1067H15.8946C19.5225 29.1067 22.6116 27.8123 25.1979 25.2235C27.7841 22.6526 29.0772 19.5423 29.0772 15.9287C29.0772 12.3151 27.7841 9.20485 25.1979 6.63397C22.6116 4.0451 19.5046 2.76865 15.8946 2.76865H2.71196V53.8268C2.71196 54.7437 2.26296 55.1931 1.36496 55.1931C0.46696 55.1931 0 54.7437 0 53.8268V1.27645C0 0.413497 0.449 0 1.36496 0H15.9126C20.3128 0 24.0664 1.54613 27.1735 4.65637C30.2806 7.7666 31.8251 11.524 31.8251 15.9287C31.8251 20.3334 30.2626 24.0728 27.1555 27.1831C24.0484 30.2933 20.2948 31.8394 15.8946 31.8394H10.4168L31.412 52.838C31.6814 53.1256 31.8251 53.4493 31.8251 53.8088L31.8072 53.8268Z" fill="black"/>
<path d="M73.6718 53.791C73.6718 54.7079 73.2228 55.1753 72.3068 55.1753H43.2116C42.2957 55.1753 41.8467 54.7259 41.8467 53.809V1.3845C41.8467 0.485588 42.2957 0.0361328 43.2116 0.0361328H72.3068C73.2048 0.0361328 73.6718 0.485582 73.6718 1.42045C73.6718 2.35532 73.2228 2.80478 72.3068 2.80478H44.5586V26.2124H66.4698C67.3858 26.2124 67.8348 26.6799 67.8348 27.5967C67.8348 28.5136 67.3858 28.9811 66.4698 28.9811H44.5586V52.4426H72.3068C73.2048 52.4426 73.6718 52.9101 73.6718 53.827V53.791Z" fill="black"/>
<path d="M115.501 53.791C115.501 54.7079 115.052 55.1753 114.136 55.1753H85.0405C84.1245 55.1753 83.6755 54.7259 83.6755 53.809V1.3845C83.6755 0.485588 84.1245 0.0361328 85.0405 0.0361328C85.9565 0.0361328 86.3875 0.485588 86.3875 1.3845V52.4067H114.136C115.034 52.4067 115.501 52.8741 115.501 53.791Z" fill="black"/>
<path d="M176.762 53.8625C176.762 54.7434 176.277 55.1929 175.326 55.1929C174.805 55.1929 174.41 54.9412 174.158 54.4558L165.807 37.7181H165.681H132.599L124.247 54.4558C123.978 54.9412 123.601 55.1929 123.08 55.1929C122.11 55.1929 121.643 54.7614 121.643 53.8625C121.643 53.5569 125.666 45.2689 133.748 29.0166C141.794 12.8542 146.5 3.5235 147.865 1.02452C148.224 0.377307 148.673 0.0537109 149.176 0.0537109C149.715 0.0537109 150.181 0.377307 150.541 1.02452C151.924 3.5235 156.611 12.8722 164.657 29.0166C172.721 45.2689 176.762 53.5569 176.762 53.8625ZM164.424 34.9494L149.212 4.45837L133.946 34.9494H164.406H164.424Z" fill="black"/>
<path d="M226.386 53.8088C226.386 54.7437 225.919 55.2111 224.985 55.2111C224.572 55.2111 224.213 55.0313 223.925 54.6538L204.654 29.8439L185.347 54.6178C185.06 55.0134 184.719 55.2111 184.305 55.2111C183.372 55.2111 182.905 54.7437 182.905 53.8088C182.905 53.5212 182.994 53.2515 183.192 52.9818L202.858 27.5966L183.192 2.22931C182.994 1.95964 182.905 1.68996 182.905 1.40231C182.905 0.467445 183.372 0 184.305 0C184.719 0 185.06 0.19776 185.347 0.575303L204.654 25.3673L223.925 0.557334C224.213 0.179792 224.572 0 224.985 0C225.919 0 226.386 0.467445 226.386 1.40231C226.386 1.68996 226.278 1.95963 226.08 2.21133L206.396 27.6145L226.08 53.0178C226.296 53.2695 226.386 53.5571 226.386 53.8268V53.8088Z" fill="black"/>
<path d="M287.612 27.5968C287.612 35.2195 284.918 41.7096 279.547 47.0851C274.177 52.4606 267.676 55.1574 260.079 55.1574C252.482 55.1574 245.98 52.4606 240.61 47.0851C235.24 41.7096 232.546 35.2015 232.546 27.5968C232.546 19.992 235.24 13.4838 240.61 8.10835C245.98 2.71488 252.482 0.0361328 260.079 0.0361328C267.676 0.0361328 274.177 2.73286 279.547 8.10835C284.918 13.4838 287.612 19.992 287.612 27.5968ZM284.9 27.5968C284.9 20.747 282.475 14.9041 277.626 10.05C272.777 5.21386 266.922 2.7868 260.079 2.7868C253.236 2.7868 247.381 5.21386 242.532 10.05C237.683 14.9041 235.258 20.747 235.258 27.5968C235.258 34.4465 237.683 40.3073 242.532 45.1435C247.381 49.9976 253.236 52.4067 260.079 52.4067C266.922 52.4067 272.777 49.9796 277.626 45.1435C282.475 40.3073 284.9 34.4465 284.9 27.5968Z" fill="black"/>
<path d="M333.302 36.3342C333.302 41.5299 331.47 45.9885 327.788 49.656C324.106 53.3236 319.67 55.1753 314.48 55.1753C309.289 55.1753 304.853 53.3416 301.171 49.656C297.489 45.9885 295.657 41.5299 295.657 36.3342V1.3845C295.657 0.485588 296.106 0.0361328 297.022 0.0361328C297.938 0.0361328 298.387 0.485588 298.387 1.3845V36.3162C298.387 40.7748 299.95 44.5682 303.093 47.6964C306.236 50.8426 310.025 52.4067 314.48 52.4067C318.934 52.4067 322.723 50.8246 325.866 47.6964C329.009 44.5502 330.572 40.7568 330.572 36.3162V1.3845C330.572 0.485588 331.021 0.0361328 331.937 0.0361328C332.853 0.0361328 333.302 0.485588 333.302 1.3845V36.3342Z" fill="black"/>
<path d="M388.744 53.8084C388.744 54.7253 388.277 55.1748 387.343 55.1748C386.93 55.1748 386.535 54.941 386.14 54.4736L348.011 5.33913V53.7904C348.011 54.7073 347.562 55.1568 346.646 55.1568C345.73 55.1568 345.299 54.7073 345.299 53.7904V1.36594C345.299 0.467034 345.748 0.0175781 346.682 0.0175781C347.095 0.0175781 347.49 0.251294 347.867 0.718728L386.032 49.8352V1.38393C386.032 0.485016 386.481 0.0355602 387.397 0.0355602C388.313 0.0355602 388.762 0.485016 388.762 1.38393V53.8084H388.744Z" fill="black"/>
<path d="M449 27.5962C449 35.2189 446.306 41.7091 440.936 47.0846C435.566 52.46 429.064 55.1568 421.467 55.1568H404.01C403.094 55.1568 402.645 54.7073 402.645 53.7904V1.36594C402.645 0.467034 403.094 0.0175781 404.01 0.0175781H421.467C429.064 0.0175781 435.566 2.71431 440.936 8.0898C446.306 13.4653 449 19.9734 449 27.5782V27.5962ZM446.288 27.5962C446.288 20.7465 443.863 14.9035 439.014 10.0494C434.165 5.21329 428.31 2.78623 421.467 2.78623H405.357V52.4061H421.467C428.328 52.4061 434.165 49.9791 439.014 45.1429C443.863 40.3068 446.288 34.4459 446.288 27.5962Z" fill="black"/>
</svg>
