<?xml version="1.0" encoding="UTF-8"?><svg id="Ebene_1" xmlns="http://www.w3.org/2000/svg" width="250" height="97.34" viewBox="0 0 250 97.34"><defs><style>.cls-1{stroke-width:1.63px;}.cls-1,.cls-2,.cls-3,.cls-4,.cls-5,.cls-6{stroke-linejoin:round;}.cls-1,.cls-6{fill:#00a099;stroke:#00a099;}.cls-2{stroke-width:1.52px;}.cls-2,.cls-3{stroke:#1d70b7;}.cls-2,.cls-3,.cls-7{fill:#1d70b7;}.cls-3{stroke-width:1.83px;}.cls-4{fill:#35a8e0;stroke:#35a8e0;stroke-width:1.85px;}.cls-5{fill:#93c01f;stroke:#93c01f;stroke-width:1.35px;}.cls-6{stroke-width:2.71px;}</style></defs><g><path class="cls-7" d="m17.71,96.57c0,.51-.25.77-.77.77-.2,0-.37-.08-.53-.24l-12.85-12.87c-.23-.22-.35-.43-.35-.64,0-.51.31-.77.93-.77h4.71c2.02,0,3.74-.72,5.18-2.16,1.44-1.43,2.16-3.16,2.16-5.17s-.72-3.74-2.16-5.17c-1.44-1.44-3.17-2.15-5.18-2.15H1.51v28.4c0,.51-.25.76-.75.76s-.76-.25-.76-.76v-29.23c0-.48.25-.71.76-.71h8.1c2.45,0,4.54.86,6.27,2.59,1.73,1.73,2.59,3.82,2.59,6.27s-.87,4.53-2.6,6.26c-1.73,1.73-3.82,2.59-6.27,2.59h-3.05l11.69,11.68c.15.16.23.34.23.54Z"/><path class="cls-7" d="m41.02,96.55c0,.51-.25.77-.76.77h-16.2c-.51,0-.76-.25-.76-.76v-29.16c0-.5.25-.75.76-.75h16.2c.5,0,.76.25.76.77s-.25.77-.76.77h-15.45v13.02h12.2c.51,0,.76.26.76.77s-.25.77-.76.77h-12.2v13.05h15.45c.5,0,.76.26.76.77Z"/><path class="cls-7" d="m64.31,96.55c0,.51-.25.77-.76.77h-16.2c-.51,0-.76-.25-.76-.76v-29.16c0-.5.25-.75.76-.75s.75.25.75.75v28.38h15.45c.5,0,.76.26.76.77Z"/><path class="cls-7" d="m98.42,96.59c0,.49-.27.74-.8.74-.29,0-.51-.14-.65-.41l-4.65-9.31h-.07s-18.42,0-18.42,0l-4.65,9.31c-.15.27-.36.41-.65.41-.54,0-.8-.24-.8-.74,0-.17,2.24-4.78,6.74-13.82,4.48-8.99,7.1-14.18,7.86-15.57.2-.36.45-.54.73-.54.3,0,.56.18.76.54.77,1.39,3.38,6.59,7.86,15.57,4.49,9.04,6.74,13.65,6.74,13.82Zm-6.87-10.52l-8.47-16.96-8.5,16.96h16.96Z"/><path class="cls-7" d="m126.05,96.56c0,.52-.26.78-.78.78-.23,0-.43-.1-.59-.31l-10.73-13.8-10.75,13.78c-.16.22-.35.33-.58.33-.52,0-.78-.26-.78-.78,0-.16.05-.31.16-.46l10.95-14.12-10.95-14.11c-.11-.15-.16-.3-.16-.46,0-.52.26-.78.78-.78.23,0,.42.11.58.32l10.75,13.79,10.73-13.8c.16-.21.36-.31.59-.31.52,0,.78.26.78.78,0,.16-.06.31-.17.45l-10.96,14.13,10.96,14.13c.12.14.17.3.17.45Z"/><path class="cls-7" d="m160.14,81.98c0,4.24-1.5,7.85-4.49,10.84-2.99,2.99-6.61,4.49-10.84,4.49s-7.85-1.5-10.84-4.49c-2.99-2.99-4.49-6.61-4.49-10.84s1.5-7.85,4.49-10.84c2.99-3,6.61-4.49,10.84-4.49s7.85,1.5,10.84,4.49c2.99,2.99,4.49,6.61,4.49,10.84Zm-1.51,0c0-3.81-1.35-7.06-4.05-9.76-2.7-2.69-5.96-4.04-9.77-4.04s-7.07,1.35-9.77,4.04c-2.7,2.7-4.05,5.95-4.05,9.76s1.35,7.07,4.05,9.76c2.7,2.7,5.96,4.04,9.77,4.04s7.07-1.35,9.77-4.04c2.7-2.69,4.05-5.95,4.05-9.76Z"/><path class="cls-7" d="m185.58,86.84c0,2.89-1.02,5.37-3.07,7.41-2.05,2.04-4.52,3.07-7.41,3.07s-5.36-1.02-7.41-3.07c-2.05-2.04-3.07-4.52-3.07-7.41v-19.44c0-.5.25-.75.76-.75s.76.25.76.75v19.43c0,2.48.87,4.59,2.62,6.33,1.75,1.75,3.86,2.62,6.34,2.62s4.59-.88,6.34-2.62c1.75-1.75,2.62-3.86,2.62-6.33v-19.43c0-.5.25-.75.76-.75s.76.25.76.75v19.44Z"/><path class="cls-7" d="m216.45,96.56c0,.51-.26.76-.78.76-.23,0-.45-.13-.67-.39l-21.23-27.33v26.95c0,.51-.25.76-.76.76s-.75-.25-.75-.76v-29.16c0-.5.25-.75.77-.75.23,0,.45.13.66.39l21.25,27.32v-26.95c0-.5.25-.75.76-.75s.76.25.76.75v29.16Z"/><path class="cls-7" d="m250,81.98c0,4.24-1.5,7.85-4.49,10.84-2.99,2.99-6.61,4.49-10.84,4.49h-9.72c-.51,0-.76-.25-.76-.76v-29.16c0-.5.25-.75.76-.75h9.72c4.23,0,7.85,1.5,10.84,4.49,2.99,2.99,4.49,6.61,4.49,10.84Zm-1.51,0c0-3.81-1.35-7.06-4.05-9.76-2.7-2.69-5.96-4.04-9.77-4.04h-8.97v27.6h8.97c3.82,0,7.07-1.35,9.77-4.04,2.7-2.69,4.05-5.95,4.05-9.76Z"/></g><polygon class="cls-6" points="135.9 21.78 151.1 11.57 135.9 1.35 135.9 21.78"/><polygon class="cls-3" points="215.91 33 230.36 24.15 215.91 15.3 215.91 33"/><polygon class="cls-1" points="91.28 52.81 103.79 45.7 91.28 38.6 91.28 52.81"/><polygon class="cls-5" points="72.75 34.8 82.1 27.39 72.75 19.97 72.75 34.8"/><polygon class="cls-5" points="183.25 56.84 204.92 43.88 183.25 30.89 183.25 56.84"/><polygon class="cls-4" points="123.06 53.9 136.07 46.11 123.06 38.31 123.06 53.9"/><polygon class="cls-4" points="189.04 20.74 203.31 11.53 189.04 2.32 189.04 20.74"/><polygon class="cls-1" points="157.76 46.04 170.71 37.74 157.76 29.44 157.76 46.04"/><polygon class="cls-2" points="106.5 31.38 119.46 23.09 106.5 14.78 106.5 31.38"/></svg>