<svg width="466" height="70" viewBox="0 0 466 70" fill="none" xmlns="http://www.w3.org/2000/svg">
<path d="M29.2235 69.9604C45.0191 69.9604 60.897 66.1622 60.897 49.0974C60.897 32.0326 44.6296 29.5522 31.2078 28.3104C21.5965 27.4583 13.3061 26.2165 13.3061 19.8557C13.3061 13.1083 21.4778 11.4009 30.8974 11.4009C42.4139 11.4009 53.6596 14.2313 58.0148 17.567H58.4043L57.9387 2.94609L57.6648 2.75435C53.1909 3.33261 46.343 0 30.663 0C16.9217 0.0395652 0.194783 4.03261 0.194783 21.0974C0.194783 38.1622 16.0696 39.7904 29.4943 41.0322C39.3004 41.9604 47.7826 42.7365 47.7826 49.8735C47.7826 57.0104 38.2504 58.5991 30.1548 58.5991C17.007 58.5991 4.6687 54.4113 0.27087 50.9965L0 51.1122L0.389565 66.0039L0.663478 66.1987C1.59478 66.1226 2.76348 66.3143 5.52391 66.9748C10.777 68.2926 18.6778 70 29.2235 70M97.3548 1.08652L97.2787 1.47304C99.3787 4.30348 99.5735 10.4696 99.5735 17.8013V52.5091C99.5735 57.8991 99.4943 65.6965 97.3943 68.527L97.4735 68.9135H155.604L157.433 54.953L157.159 54.7583C150.39 57.5126 138.016 57.5126 129.263 57.5126H112.53V40.6426H131.752C137.55 40.6426 143.658 40.8374 146.032 42.1552L146.422 42.0396V27.6135L146.032 27.5343C143.077 29.1626 137.084 29.2387 131.752 29.2387H112.53V12.4478H127.863C137.745 12.4478 148.796 12.527 153.075 14.8157L153.464 14.7365L152.88 1.08652H97.3548ZM224.593 12.4874C233.62 12.4874 237.044 16.2887 237.044 21.6026C237.044 28.0396 231.636 31.1804 222.375 31.1804H207.629V12.4478H224.554L224.593 12.4874ZM212.024 42.5417C224.478 42.5417 231.167 50.1443 238.873 59.7983L246.19 68.9135H264.749L264.828 68.527C260.16 65.1913 255.491 59.7222 250.938 54.2165C245.724 47.9713 240.666 42.0791 235.605 39.3248C245.295 36.8413 250.548 29.823 250.548 21.2922C250.548 9.15174 241.132 1.08348 226.267 1.08348H192.494L192.415 1.47304C194.515 4.30348 194.71 10.1226 194.71 17.4117V52.5091C194.633 59.8013 194.515 65.7726 192.53 68.527L192.649 68.9135H209.693L209.887 68.527C207.903 65.6965 207.708 59.8013 207.708 52.5091V42.5417H212.063H212.024ZM314.516 41.1083L326.112 15.0074L337.631 41.1083H314.516ZM345.529 59.0252C346.384 60.9243 347.163 63.2922 347.163 65.4622C347.163 66.5883 346.969 67.6352 346.503 68.603L346.619 68.9926H365.841L365.92 68.603C363.467 65.7726 362.417 63.9496 359.538 57.7074L333.739 1.16261H317.553L317.359 1.55217C318.135 3.53043 316.424 7.06087 313.856 12.6426L293.193 57.7074C290.354 63.8735 289.38 65.657 286.814 68.603L286.93 68.9926H304.908L304.984 68.603C304.709 67.7793 304.577 66.9147 304.594 66.0465C304.594 63.6787 305.529 61.0035 306.503 58.9096L309.342 52.4696H342.65L345.49 59.0252H345.529ZM398.72 57.7835C395.22 62.0504 392.067 66.0435 388.914 68.4874L388.993 68.877H407.942L408.137 68.4874C407.866 66.5091 409.46 64.0287 413.079 59.3752L425.725 43.1626L439.229 60.4191C441.213 62.9817 443.818 66.2017 443.313 68.5665L443.508 68.8374H463.12L463.236 68.4478C460.941 66.4696 458.567 63.6026 457.127 61.8952L434.362 33.9348L452.069 12.0217C455.493 7.75478 458.838 3.87739 461.951 1.39696L461.836 1.00739H443.003L442.923 1.2813C443.118 3.76174 439.773 8.10478 437.981 10.3935L426.58 25.2091L414.479 9.46217C411.329 5.39 410.276 3.1013 410.395 1.31783L410.2 1.04696H390.706L390.588 1.43348C393.272 3.60652 395.257 6.28174 396.696 7.98913L417.827 34.1661L398.68 57.7835H398.72Z" fill="black"/>
</svg>
