<svg width="396" height="125" viewBox="0 0 396 125" fill="none" xmlns="http://www.w3.org/2000/svg">
<g clip-path="url(#clip0_117_275)">
<path d="M336.883 88.9661H356.019V55.0926H392.13V37.5H356.019V19.8302H395.062V2.23765H336.883V88.9661ZM260.648 88.9661H279.784V55.0926H315.895V37.5H279.784V19.8302H318.827V2.23765H260.648V88.9661ZM171.451 34.4136C172.685 31.0185 174.537 28.0093 176.929 25.5401C179.321 23.071 182.099 21.142 185.417 19.7531C188.735 18.3642 192.438 17.6698 196.528 17.6698C200.617 17.6698 204.321 18.3642 207.639 19.7531C210.957 21.142 213.812 23.071 216.127 25.5401C218.519 28.0093 220.293 31.0185 221.605 34.4136C222.84 37.8086 223.534 41.5895 223.534 45.5247C223.534 49.6142 222.917 53.3179 221.605 56.713C220.37 60.108 218.519 63.0401 216.127 65.5093C213.735 67.9784 210.957 69.9074 207.639 71.2963C204.321 72.6852 200.617 73.3796 196.528 73.3796C192.438 73.3796 188.735 72.6852 185.417 71.2963C182.099 69.9074 179.244 67.9784 176.929 65.5093C174.537 63.0401 172.762 60.108 171.451 56.713C170.216 53.3179 169.522 49.6142 169.522 45.5247C169.522 41.5895 170.216 37.8858 171.451 34.4136ZM153.241 64.429C155.556 70.0617 158.796 74.8457 162.963 78.858C167.13 82.7932 172.068 85.8796 177.778 87.963C183.488 90.1235 189.738 91.1265 196.528 91.1265C203.318 91.1265 209.568 90.0463 215.278 87.963C220.988 85.8025 225.926 82.7932 230.093 78.858C234.259 74.9228 237.5 70.0617 239.815 64.429C242.13 58.7963 243.287 52.4691 243.287 45.6019C243.287 38.6574 242.13 32.4074 239.815 26.7747C237.5 21.142 234.259 16.358 230.093 12.3457C225.926 8.41049 220.988 5.32407 215.278 3.24074C209.491 1.08025 203.241 0 196.528 0C189.738 0 183.488 1.08025 177.778 3.16358C172.068 5.32407 167.13 8.33333 162.963 12.2685C158.796 16.2037 155.556 21.0648 153.241 26.6975C150.926 32.3302 149.769 38.6574 149.769 45.5247C149.691 52.5463 150.849 58.7963 153.241 64.429ZM97.2222 88.9661H116.358V19.1358H141.127V2.23765H72.4537V19.1358H97.1451V88.9661H97.2222ZM62.4228 9.02778C58.7191 5.78704 54.6296 3.47222 50.0772 2.08333C45.5247 0.694445 40.7407 0 35.8796 0C31.6358 0 27.5463 0.617284 23.534 1.77469C19.5216 2.9321 15.9722 4.70679 12.963 7.09877C9.87654 9.49074 7.48457 12.4228 5.63272 15.8951C3.78086 19.4444 2.85494 23.4568 2.85494 28.1636C2.85494 32.9475 3.85802 36.8827 5.8642 39.8148C7.87037 42.7469 10.3395 45.1389 13.4259 46.9136C16.4352 48.6883 19.6759 50.1543 23.2253 51.2346C26.6975 52.3148 30.0154 53.3951 33.0247 54.3981C36.034 55.4784 38.5802 56.713 40.5864 58.2562C42.5926 59.7994 43.5957 61.8056 43.5957 64.429C43.5957 65.9722 43.2099 67.3611 42.4383 68.4414C41.6667 69.5988 40.6636 70.5247 39.3519 71.2963C38.1173 72.0679 36.6512 72.608 35.0309 72.9167C33.4105 73.3025 31.8673 73.4568 30.3241 73.4568C27.1605 73.4568 24.0741 72.7624 21.0648 71.2963C18.0556 69.9074 15.5864 67.8241 13.6574 65.2006L0 80.2469C4.16667 84.1049 8.64198 86.8827 13.5031 88.5803C18.287 90.2778 23.534 91.1265 29.1667 91.1265C33.642 91.1265 37.8858 90.5864 41.9753 89.429C45.9877 88.2716 49.537 86.4969 52.6235 84.1821C55.7099 81.7901 58.1019 78.858 59.8765 75.2315C61.6512 71.6049 62.5772 67.4383 62.5772 62.5772C62.5772 57.4846 61.5741 53.4722 59.6451 50.463C57.7161 47.4537 55.2469 45.0617 52.2377 43.2099C49.2284 41.4352 46.0648 40.0463 42.5926 39.0432C39.1975 38.0401 35.9568 37.1142 32.9475 36.1111C29.9383 35.108 27.4691 33.9506 25.5401 32.5617C23.6111 31.1728 22.608 29.1667 22.608 26.5432C22.608 24.9228 22.9938 23.534 23.8426 22.3765C24.6914 21.2191 25.6944 20.2932 27.0062 19.5988C28.3179 18.9043 29.7068 18.3642 31.1728 18.0556C32.6389 17.7469 34.1049 17.5926 35.4938 17.5926C37.8858 17.5926 40.3549 18.0556 43.0556 18.9815C45.679 19.9074 47.8395 21.3735 49.3827 23.3025L62.4228 9.02778Z" fill="black"/>
<path d="M123.688 104.167C123.997 103.472 124.46 102.778 124.923 102.238C125.463 101.698 126.08 101.312 126.775 101.003C127.469 100.695 128.241 100.54 129.09 100.54C129.938 100.54 130.71 100.695 131.404 101.003C132.099 101.312 132.793 101.775 133.256 102.238C133.796 102.778 134.182 103.395 134.491 104.167C134.799 104.861 134.954 105.633 134.954 106.482C134.954 107.33 134.799 108.102 134.491 108.796C134.182 109.491 133.719 110.185 133.256 110.725C132.716 111.266 132.099 111.651 131.404 111.96C130.71 112.269 129.938 112.423 129.09 112.423C128.241 112.423 127.469 112.269 126.775 111.96C126.08 111.651 125.386 111.266 124.923 110.725C124.383 110.185 123.997 109.568 123.688 108.796C123.38 108.102 123.225 107.33 123.225 106.482C123.225 105.633 123.38 104.861 123.688 104.167ZM122.454 109.259C122.84 110.108 123.38 110.88 123.997 111.574C124.614 112.191 125.386 112.732 126.312 113.117C127.161 113.503 128.087 113.658 129.09 113.658C130.093 113.658 131.019 113.503 131.867 113.117C132.716 112.732 133.488 112.191 134.182 111.574C134.799 110.957 135.34 110.185 135.725 109.259C136.111 108.411 136.266 107.485 136.266 106.482C136.266 105.479 136.111 104.553 135.725 103.704C135.34 102.855 134.799 102.083 134.182 101.389C133.565 100.772 132.793 100.232 131.867 99.8458C131.019 99.46 130.093 99.3057 129.09 99.3057C128.087 99.3057 127.161 99.46 126.312 99.8458C125.463 100.232 124.691 100.772 123.997 101.389C123.38 102.006 122.84 102.778 122.454 103.704C122.068 104.553 121.914 105.479 121.914 106.482C121.914 107.485 122.068 108.411 122.454 109.259ZM127.855 103.549H128.935C129.167 103.549 129.398 103.549 129.63 103.549C129.861 103.549 130.093 103.627 130.247 103.704C130.401 103.781 130.556 103.935 130.71 104.09C130.864 104.244 130.864 104.475 130.864 104.707C130.864 105.016 130.787 105.17 130.71 105.324C130.633 105.479 130.479 105.633 130.247 105.71C130.093 105.787 129.861 105.864 129.63 105.864C129.398 105.864 129.167 105.864 128.935 105.864H127.855V103.549ZM126.312 110.494H127.855V107.099H128.935L131.019 110.494H132.639L130.479 107.022C131.019 106.945 131.482 106.713 131.867 106.404C132.253 106.019 132.408 105.479 132.408 104.784C132.408 104.012 132.176 103.395 131.713 102.932C131.25 102.469 130.479 102.315 129.475 102.315H126.312V110.494ZM105.093 124.383H119.908V119.599H110.262V100.849H105.093V124.383ZM83.1791 124.383H99.7686V119.599H88.3489V114.815H98.5341V110.031H88.3489V105.633H99.1514V100.849H83.1791V124.383ZM77.3921 110.417H68.21V115.201H72.4538V119.059C71.9909 119.29 71.2964 119.599 70.5248 119.83C69.676 120.062 68.7501 120.216 67.5927 120.216C66.5125 120.216 65.5094 120.062 64.5834 119.676C63.6575 119.29 62.8859 118.75 62.2686 118.133C61.6513 117.438 61.1112 116.667 60.8026 115.741C60.4939 114.815 60.2625 113.812 60.2625 112.732C60.2625 111.651 60.4168 110.648 60.8026 109.722C61.1112 108.796 61.6513 108.025 62.2686 107.33C62.8859 106.636 63.6575 106.096 64.5834 105.787C65.5094 105.401 66.5125 105.247 67.5927 105.247C68.9044 105.247 70.0618 105.401 70.9106 105.787C71.7594 106.173 72.6081 106.713 73.3026 107.485L76.9291 103.472C75.6946 102.392 74.3057 101.543 72.7625 101.158C71.1421 100.695 69.4446 100.463 67.5927 100.463C65.7409 100.463 64.0433 100.772 62.5001 101.312C60.9569 101.852 59.6452 102.701 58.4878 103.781C57.3304 104.861 56.4816 106.173 55.8643 107.716C55.247 109.259 54.9384 110.957 54.9384 112.809C54.9384 114.661 55.247 116.435 55.8643 117.901C56.4816 119.445 57.4075 120.756 58.4878 121.837C59.6452 122.917 60.9569 123.766 62.5001 124.306C64.0433 124.846 65.7409 125.154 67.5927 125.154C69.2902 125.154 70.9878 125 72.6853 124.614C74.3828 124.229 75.926 123.688 77.4693 122.917V110.417H77.3921ZM43.1328 115.046H37.3458L40.2007 107.716L43.1328 115.046ZM28.0865 124.383H33.7964L35.7254 119.367H44.8304L46.8365 124.383H52.7007L42.4384 100.849H38.1174L28.0865 124.383ZM2.39209 124.383H7.56184V107.639H7.639L17.9014 124.383H24.6915V100.849H19.5217V117.207H19.4446L9.4137 100.849H2.39209V124.383Z" fill="black"/>
</g>
<defs>
<clipPath id="clip0_117_275">
<rect width="395.062" height="125" fill="white"/>
</clipPath>
</defs>
</svg>
