<svg width="336" height="100" viewBox="0 0 336 100" fill="none" xmlns="http://www.w3.org/2000/svg">
<path d="M15.8725 0.269489C10.1342 1.25941 5.78858 4.11174 3.85906 8.13856C2.7349 10.4708 2.44966 11.9473 2.58389 14.7493C2.71812 17.7023 3.54026 19.8163 5.31878 21.7962C7.68455 24.3968 10.4866 25.6384 17.0637 26.9975C25.2852 28.7089 27.0805 29.2458 28.5235 30.4706C29.9161 31.6283 30.3355 34.1451 29.463 35.9907C28.2718 38.5075 25.4865 39.7659 21.1577 39.7659C15.5201 39.7491 10.906 37.7692 8.0369 34.1283C7.58388 33.5411 7.13086 33.0545 7.04697 33.0545C6.96308 33.0545 6.37583 33.4236 5.75503 33.8599C5.13422 34.3129 3.5906 35.4203 2.31543 36.3095L0 37.9538L0.620805 38.8095C1.77852 40.4202 2.7349 41.4437 4.19463 42.5846C5.8557 43.9101 6.30872 44.1954 8.17113 45.1182C11.4597 46.7289 14.0939 47.2994 18.8926 47.4336C23.1879 47.551 26.3422 47.1316 29.2449 46.041C36.0234 43.5242 39.4127 38.7256 39.0603 32.1317C38.8422 28.1888 37.2986 25.4035 34.0771 23.1217C31.5436 21.3432 29.1778 20.521 22.2483 19.0278C15.0335 17.4841 13.7919 17.0815 12.6342 15.9237C11.7114 15.0177 11.5101 14.4976 11.5101 13.0043C11.5101 11.8466 11.5772 11.5781 11.9463 10.9909C13.4899 8.62514 16.6275 7.40031 20.6543 7.60165C24.6308 7.80299 27.7013 9.26271 30 12.0815C30.5369 12.7526 31.1577 13.5077 31.3926 13.7593L31.812 14.2291L35.2181 11.662L38.6073 9.07815L37.6342 7.85333C34.4127 3.82651 29.849 1.12519 24.7651 0.252712C22.8523 -0.0660782 17.7517 -0.0660782 15.8725 0.269489Z" fill="black"/>
<path d="M194.815 0.335945C189.631 1.44332 185.268 4.26209 182.097 8.52381C180.134 11.1748 178.507 15.0506 177.751 18.8761C177.332 21.0573 177.332 27.3492 177.768 29.3626C178.658 33.5404 179.866 36.4766 181.812 39.178C184.882 43.4565 188.624 45.839 194.312 47.1813C195.587 47.4833 201.292 47.4833 202.533 47.1813C205.47 46.4598 207.533 45.4699 209.681 43.7585L211.09 42.6343V44.4632V46.3088H214.698H218.305V33.9767V21.6445H208.825H199.345V25.3358V29.027H204.966C208.339 29.027 210.587 29.0941 210.587 29.178C210.587 29.5304 210.067 31.829 209.815 32.5337C209.329 33.9599 208.49 35.3189 207.399 36.4263C206.141 37.7015 205.017 38.3894 203.121 39.027C201.946 39.4129 201.493 39.48 199.513 39.4967C197.265 39.5135 196.879 39.4464 194.983 38.7921C191.09 37.433 188.406 34.0773 187.08 28.9431C186.745 27.6009 186.694 27.0304 186.694 23.9096C186.694 19.4466 187.097 17.366 188.59 14.3291C190.805 9.78219 194.933 7.33254 199.933 7.601C204.513 7.85267 207.785 10.3862 209.748 15.2184C209.983 15.7889 210.218 16.309 210.285 16.3593C210.386 16.4768 212.466 15.6882 215 14.5976C215.201 14.5137 215.973 14.2117 216.711 13.9265C217.449 13.6244 218.121 13.3392 218.204 13.2553C218.389 13.0708 217.164 10.5037 216.023 8.75871C214.866 6.96342 212.282 4.34599 210.621 3.28894C208.221 1.74533 206.174 0.889633 203.406 0.319168C201.275 -0.117073 196.896 -0.100292 194.815 0.335945Z" fill="black"/>
<path d="M42.349 1.12489C42.1812 1.17522 42.1309 2.11481 42.1309 4.96714V8.7255H48.255H54.3792V27.5173V46.3091H58.6577H62.9362V27.5173V8.7255H69.1442H75.3523V4.86647V1.00743L58.9597 1.02421C49.9329 1.02421 42.4497 1.07455 42.349 1.12489Z" fill="black"/>
<path d="M80.1848 1.09133C80.1009 1.17522 80.0505 11.3765 80.0505 23.7757V46.3091H84.2452H88.4398V37.9199V29.5307H92.1814H95.923L96.2753 30.1515C97.0304 31.5441 97.9532 33.2388 99.7653 36.6616C100.957 38.8931 101.477 39.8662 103.289 43.2387L104.916 46.3091H109.782H114.631L114.144 45.4199C113.608 44.4635 113.054 43.4736 112.131 41.779C111.443 40.5038 110.655 39.0609 110.252 38.3394C110.101 38.0542 109.581 37.081 109.077 36.1582C108.591 35.2354 108.138 34.3965 108.071 34.3126C108.004 34.2119 107.584 33.4569 107.148 32.6347C106.712 31.7958 105.973 30.4703 105.52 29.6817C104.715 28.222 104.581 27.8529 104.883 27.8529C105.168 27.8529 106.896 27.014 107.869 26.3932C109.379 25.4368 111.242 23.4234 111.946 21.9637C112.702 20.4368 112.853 20.0341 113.188 18.5744C113.524 17.0812 113.524 13.8765 113.188 12.2657C112.165 7.36645 108.91 3.64164 104.295 2.0477C101.946 1.24233 100.722 1.15844 90.2015 1.05777C84.7653 1.00743 80.2519 1.02421 80.1848 1.09133ZM98.8089 8.64161C99.6646 8.77584 100.705 9.06107 101.124 9.26241C102.366 9.83288 103.691 11.1751 104.279 12.4168C104.732 13.4235 104.782 13.6584 104.782 15.353C104.799 17.4671 104.547 18.4066 103.624 19.665C102.869 20.7053 101.846 21.3764 100.252 21.8966C99.027 22.2992 98.5572 22.3496 93.9599 22.5174C91.225 22.618 88.8593 22.6516 88.7082 22.6012C88.4733 22.5006 88.4398 21.8294 88.4398 15.4369V8.38993H92.8525C95.9566 8.38993 97.7015 8.45705 98.8089 8.64161Z" fill="black"/>
<path d="M121.208 1.12489C121.04 1.192 120.99 5.87317 120.99 23.759V46.3091H125.184H129.379L129.345 23.6918L129.295 1.09133L125.352 1.05777C123.187 1.04099 121.308 1.07455 121.208 1.12489Z" fill="black"/>
<path d="M137.383 1.12489C137.315 1.17522 137.265 11.3765 137.265 23.7757V46.3091H141.393H145.503L145.403 39.7152C145.352 36.1079 145.235 29.1113 145.134 24.1952C145.034 19.2288 145.017 15.1684 145.084 15.1013C145.168 15.0174 147.617 18.7758 150.52 23.4402C153.423 28.1046 157.315 34.3461 159.178 37.3159C161.023 40.2857 163.037 43.4904 163.641 44.4635L164.732 46.2252L168.54 46.2756L172.332 46.3091V23.8596C172.332 6.6282 172.282 1.35978 172.131 1.20877C171.98 1.05777 170.805 1.00743 167.903 1.00743H163.893L163.993 4.98392C164.161 10.6382 164.43 18.6919 164.614 23.4905C164.815 28.3562 164.832 32.5508 164.664 32.5508C164.581 32.5508 163.624 31.0911 162.534 29.3126C159.765 24.8831 153.758 15.2691 149.044 7.7188C146.879 4.26245 144.983 1.32623 144.849 1.20877C144.648 1.05777 143.624 1.00743 141.04 1.00743C139.077 1.00743 137.433 1.05777 137.383 1.12489Z" fill="black"/>
<path d="M0.0168457 76.1759V98.8267H4.12758H8.23831V89.263V79.6993L17.6846 79.6658L27.1141 79.6154V76.092V72.5685L17.6678 72.5182L8.23831 72.4846L8.27187 66.8135L8.3222 61.1592L19.0269 61.1089L29.7148 61.0753L29.6812 57.3337L29.6309 53.6089L14.8323 53.5586L0.0168457 53.525V76.1759Z" fill="black"/>
<path d="M34.3122 53.7592C34.1277 54.2458 34.3626 87.1315 34.5639 88.1718C35.1176 91.0241 36.829 94.0106 38.9263 95.7724C42.3995 98.6918 46.4934 100.001 52.282 100.001C56.8458 100.001 60.0505 99.2287 63.6075 97.2992C64.0437 97.0475 65.1343 96.3093 65.2854 96.1415C65.3357 96.0912 65.7887 95.7053 66.3088 95.269C68.0874 93.7758 69.631 91.2925 70.2015 88.9939C70.7887 86.6449 70.839 84.9335 70.7887 69.1283L70.7384 53.6082H66.5437H62.3491L62.2652 69.5477C62.1813 85.2523 62.1646 85.504 61.8122 86.4604C60.9229 88.91 59.1612 90.4872 56.3089 91.3764C54.8659 91.8295 50.0673 91.8295 48.5907 91.3764C45.8391 90.5375 44.178 89.061 43.1881 86.5778C42.9028 85.8731 42.8861 84.6315 42.8022 69.7155L42.7183 53.6082L38.5572 53.5579C35.1176 53.5243 34.3961 53.5579 34.3122 53.7592Z" fill="black"/>
<path d="M77.8186 53.6425C77.7515 53.6928 77.7012 63.8941 77.7012 76.2933V98.8267H81.8958H86.0904L86.124 90.4711L86.1743 82.1322H89.9327H93.7079L94.1441 82.8872C94.379 83.3067 95.0837 84.5986 95.7045 85.7731C96.3253 86.9476 96.9965 88.2228 97.2146 88.6254C97.4327 89.0281 97.936 89.9509 98.3387 90.6892C98.7246 91.4274 99.3287 92.5516 99.681 93.2059C100.033 93.8435 100.704 95.1355 101.191 96.0583C101.694 96.9811 102.215 97.9542 102.366 98.2395L102.651 98.7428L107.449 98.7932C110.1 98.8099 112.265 98.7764 112.265 98.726C112.265 98.6086 111.124 96.4777 110 94.4643C109.614 93.7764 109.01 92.669 108.658 92.0315C108.305 91.3771 107.735 90.3368 107.366 89.716C107.013 89.0785 106.728 88.5415 106.728 88.508C106.728 88.4744 106.443 87.9375 106.09 87.2999C105.721 86.6791 105.117 85.555 104.715 84.8167C104.312 84.0785 103.825 83.1725 103.607 82.8033C103.406 82.4342 103.037 81.7631 102.819 81.3101L102.399 80.4711L103.674 79.9342C107.332 78.3235 109.664 75.6725 110.805 71.7464C111.09 70.7564 111.141 70.1021 111.141 67.8705C111.141 65.4712 111.09 65.035 110.688 63.7095C109.664 60.2867 107.6 57.5518 104.748 55.8237C102.399 54.3975 100.604 53.9277 96.4931 53.6928C93.3891 53.5082 77.9864 53.4579 77.8186 53.6425ZM96.728 61.1592C99.8656 61.7129 101.778 63.4243 102.466 66.2766C102.584 66.78 102.684 67.5182 102.701 67.9041C102.701 68.7598 102.265 70.6893 101.913 71.3605C101.46 72.2329 100.151 73.4913 99.2448 73.9276C97.4495 74.7833 96.8958 74.8504 91.3421 74.951L86.0904 75.0517V67.9712V60.9075H90.6877C94.0267 60.9075 95.6709 60.9746 96.728 61.1592Z" fill="black"/>
<path d="M117.751 53.6425C117.684 53.6928 117.634 63.8941 117.634 76.2933V98.8267H121.745H125.856V97.8536C125.856 97.3334 125.738 90.3368 125.587 82.3335C125.453 74.3302 125.352 67.6692 125.386 67.5182C125.436 67.2665 126.443 68.8437 133.574 80.2866C137.953 87.3167 144.111 97.1657 144.765 98.1891L145.151 98.8267H148.842H152.533V76.1759V53.525H148.557C146.359 53.525 144.48 53.5921 144.379 53.6592C144.245 53.7431 144.228 54.6995 144.329 56.9646C144.463 60.337 144.715 68.1893 144.983 77.5181C145.067 80.6054 145.184 83.6087 145.251 84.1792C145.302 84.8335 145.285 85.2362 145.184 85.2362C145.084 85.2362 144.597 84.5818 144.111 83.7597C143.607 82.9543 141.309 79.2799 138.993 75.5886C136.694 71.8974 133.053 66.0753 130.923 62.6692C128.792 59.2464 126.627 55.8069 126.124 54.9847L125.201 53.525H121.527C119.513 53.525 117.802 53.5753 117.751 53.6425Z" fill="black"/>
<path d="M160.638 53.6425C160.47 53.7096 160.419 58.3908 160.419 76.2765V98.8267H164.614H168.809L168.775 76.2094L168.725 53.6089L164.782 53.5753C162.617 53.5586 160.738 53.5921 160.638 53.6425Z" fill="black"/>
<path d="M173.741 53.7431C173.708 53.8606 173.691 55.572 173.708 57.5518L173.758 61.1592L179.849 61.2095L185.923 61.2431V80.0349V98.8267H190.117H194.312L194.345 80.0685L194.396 61.327L200.604 61.2431L206.812 61.1592V57.3841V53.6089L190.318 53.5586C177.047 53.525 173.808 53.5586 173.741 53.7431Z" fill="black"/>
<path d="M212.147 70.7558C212.215 88.91 212.198 88.4738 212.936 90.353C214.53 94.4469 218.171 97.7187 222.5 98.9771C222.919 99.0945 223.439 99.2623 223.674 99.3462C224.664 99.6818 227.852 100.001 230.168 100.001C235.52 100.001 239.681 98.7422 243.104 96.108C245.084 94.5811 246.862 92.2489 247.6 90.2691C248.423 87.9704 248.389 88.8093 248.456 70.588L248.523 53.5244L244.362 53.5579L240.201 53.6082L240.1 69.1283C240.017 85.6382 240.017 85.4704 239.178 87.3832C238.674 88.5241 237.131 90.0509 235.855 90.655C233.943 91.5946 233.389 91.6952 230.218 91.6785C227.466 91.6785 227.198 91.6449 225.973 91.2254C223.171 90.2523 221.644 88.7422 220.839 86.1584C220.621 85.4369 220.57 83.1215 220.486 69.4638L220.402 53.6082L216.241 53.5579L212.08 53.5244L212.147 70.7558Z" fill="black"/>
<path d="M256.342 53.6425C256.275 53.6928 256.225 63.8941 256.225 76.2933V98.8267H260.419H264.614L264.647 90.4711L264.698 82.1322L268.473 82.0819L272.248 82.0483L272.953 83.4241C273.355 84.1959 273.976 85.3872 274.362 86.0751C275.671 88.4912 277.282 91.5113 278.59 93.961C279.094 94.9341 279.832 96.2932 280.218 96.9811C280.604 97.669 280.956 98.3737 281.006 98.5247C281.09 98.8099 281.476 98.8267 285.939 98.8267C288.607 98.8267 290.788 98.7932 290.788 98.7428C290.788 98.6925 290.134 97.4677 289.345 96.0247C288.54 94.565 287.617 92.8872 287.298 92.2831C286.98 91.6791 286.527 90.857 286.292 90.4375C286.074 90.018 285.621 89.1959 285.285 88.5919C284.966 87.9879 284.463 87.0818 284.194 86.5785C283.909 86.0751 283.506 85.3201 283.272 84.9006C283.053 84.4812 282.651 83.7597 282.399 83.3067C281.208 81.1423 281.057 80.8403 281.057 80.6389C281.057 80.5215 281.644 80.1691 282.349 79.8671C284.261 79.0282 286.141 77.5349 287.349 75.9242C289.983 72.4007 290.503 66.5954 288.607 62.0149C287.332 58.9612 284.748 56.327 281.694 54.9847C280.084 54.2633 278.07 53.8774 275.151 53.6928C272.097 53.5082 256.51 53.4579 256.342 53.6425ZM275.855 61.2263C277.97 61.7632 279.564 63.0048 280.419 64.733C280.923 65.7397 280.973 66.0249 281.023 67.5853C281.09 69.4981 280.906 70.4712 280.268 71.5954C279.748 72.4846 278.657 73.4913 277.684 73.9611C276.023 74.7665 275.386 74.8504 269.866 74.951L264.614 75.0517V67.9544V60.874L269.866 60.9578C273.003 61.0082 275.402 61.1088 275.855 61.2263Z" fill="black"/>
<path d="M297.869 53.6578C297.718 53.7753 297.667 54.6477 297.701 57.4833L297.751 61.1578H316.627H335.503V57.3826V53.6075L316.795 53.5739C306.51 53.5404 297.986 53.5907 297.869 53.6578Z" fill="black"/>
<path d="M297.734 72.7006C297.701 72.8181 297.684 74.4959 297.701 76.4254L297.751 79.9489L316.677 79.9992L335.587 80.0328V76.2576V72.4825H316.711C301.56 72.4825 297.802 72.5328 297.734 72.7006Z" fill="black"/>
<path d="M297.734 91.4945C297.701 91.612 297.684 93.2898 297.701 95.2194L297.751 98.7428L316.677 98.7932L335.587 98.8267V95.0516V91.2764H316.711C301.56 91.2764 297.802 91.3268 297.734 91.4945Z" fill="black"/>
</svg>
