<svg width="508" height="75" viewBox="0 0 508 75" fill="none" xmlns="http://www.w3.org/2000/svg">
<g clip-path="url(#clip0_117_186)">
<mask id="mask0_117_186" style="mask-type:luminance" maskUnits="userSpaceOnUse" x="0" y="1" width="472" height="74">
<path d="M0.214111 1.9502H471.693V75.0002H0.214111V1.9502Z" fill="white"/>
</mask>
<g mask="url(#mask0_117_186)">
<path fill-rule="evenodd" clip-rule="evenodd" d="M396.496 75.0002C385.136 75.0002 376.004 65.2609 376.004 53.593C376.004 42.1288 385.136 32.3859 396.496 32.3859C407.861 32.3859 416.993 42.1288 416.993 53.593C416.993 65.2609 407.861 75.0002 396.496 75.0002ZM396.496 41.2145C390.107 41.2145 385.032 46.793 385.032 53.593C385.032 60.593 390.107 66.2752 396.496 66.2752C402.889 66.2752 407.964 60.593 407.964 53.593C407.964 46.793 402.889 41.2145 396.496 41.2145ZM319.161 75.0002C311.143 75.0002 308.811 70.1288 308.811 62.9252V41.8216H304.55C303.432 41.8216 302.621 40.9109 302.621 39.8966V35.3288C302.621 34.2145 303.432 33.4002 304.55 33.4002H308.811V22.1395C308.811 21.1252 309.725 20.2109 310.739 20.2109L316.521 20.1109C317.536 20.1109 318.346 21.0252 318.346 22.0395V33.4002H328.696C329.811 33.4002 330.625 34.2145 330.625 35.3288V39.8966C330.625 40.9109 329.811 41.8216 328.696 41.8216H318.346V61.9109C318.346 65.3609 319.668 65.9716 321.593 65.9716C323.725 65.9716 326.564 64.7538 327.782 64.1431C328.15 63.9752 328.464 63.9002 328.732 63.9002C329.425 63.9002 329.825 64.4002 330.118 65.0573L331.943 69.5216C332.45 70.6359 332.043 71.4502 331.029 71.9573C330.014 72.5645 324.029 75.0002 319.161 75.0002ZM235.457 75.0002C224.7 75.0002 216.482 65.3609 216.482 53.6931C216.482 41.8216 225.211 32.3859 236.471 32.3859C241.646 32.3859 245.296 34.3145 246.211 34.618L245.907 7.67877C245.907 6.66448 246.818 5.75377 247.832 5.75377H253.718C254.732 5.75377 255.646 6.66448 255.646 7.67877L255.95 72.0573C255.95 73.0716 255.039 73.9859 254.025 73.9859H250.979C250.068 73.9859 249.457 73.2752 249.154 72.2609L248.343 69.3181C248.343 69.3181 243.471 75.0002 235.457 75.0002ZM237.486 41.2145C230.689 41.2145 225.918 46.7931 225.918 53.6931C225.918 60.4931 230.182 66.2752 236.675 66.2752C242.864 66.2752 245.807 61.3038 246.311 60.1859V43.6502C246.311 43.6502 242.761 41.2145 237.486 41.2145ZM181.314 75.0002C173.704 75.0002 168.225 69.8252 168.225 61.4038C168.225 53.9966 174.107 48.3181 184.457 48.3181C188.718 48.3181 192.475 49.5323 192.475 49.5323C192.575 43.1431 191.357 40.6038 186.182 40.6038C181.514 40.6038 176.95 41.8216 174.818 42.4323C174.643 42.4752 174.479 42.4966 174.325 42.4966C173.407 42.4966 172.846 41.7645 172.586 40.8073L171.775 37.0538C171.471 35.7359 172.182 35.0252 173.093 34.7216C173.804 34.4181 179.589 32.3859 187.096 32.3859C200.082 32.3859 201.3 40.3002 201.3 50.4466V72.0573C201.3 73.0716 200.386 73.9859 199.371 73.9859H196.532C195.618 73.9859 195.214 73.5788 194.807 72.5645L193.793 69.8252C191.561 71.9573 187.604 75.0002 181.314 75.0002ZM185.268 54.6073C180.4 54.6073 177.05 57.1431 177.05 61.3038C177.05 64.9573 179.486 67.7966 183.239 67.7966C187.3 67.7966 191.154 64.7538 192.371 62.7252V56.2288C191.764 55.8252 188.921 54.6073 185.268 54.6073ZM20.4964 75.0002C7.71071 75.0002 0 66.2752 0 56.1288C0 43.9538 10.45 37.9681 14.1036 35.8359V35.6323L11.7679 33.0966C7.81071 28.9359 4.66786 24.4716 4.76786 18.3859C4.76786 10.6752 10.8571 1.9502 23.3357 1.9502C34.4964 1.9502 41.4964 9.25377 41.4964 18.0823C41.4964 27.8216 31.7571 34.3145 27.8 37.0538L42.0036 51.2573C44.2357 46.9966 44.9821 43.8252 45.2857 38.6502C45.3679 36.843 45.9179 36.1002 47.15 36.1002C47.4393 36.1002 47.7643 36.1395 48.1286 36.218L52.2893 37.0288C54.6214 37.4323 54.1143 39.2609 54.0143 40.1752C53.2 47.7823 50.9321 53.0859 48.3964 57.6502L57.8321 66.7823C59.05 68.0002 59.9643 69.1145 57.6286 71.4502L54.9929 74.0859C54.3929 74.6359 53.7 74.9609 52.9643 74.9609C52.2036 74.9609 51.4036 74.6109 50.6286 73.7823L42.6143 65.6645C38.9607 69.8252 31.6571 75.0002 20.4964 75.0002ZM19.5821 41.3145C16.4357 43.243 9.63929 47.5038 9.63929 55.5216C9.63929 61.9109 14.8143 66.4788 21.3071 66.4788C28.6107 66.4788 33.5821 62.6216 36.525 59.1716L19.5821 41.3145ZM22.8286 9.76091C17.1464 9.76091 13.8 13.7181 13.8 18.4859C13.6964 22.4431 16.2321 25.3859 19.6821 28.8359L21.9143 31.0681C24.9607 29.2431 32.4679 25.2859 32.4679 18.4859C32.4679 14.1252 28.9179 9.76091 22.8286 9.76091ZM469.764 73.9859H463.982C462.868 73.9859 462.054 73.0716 462.054 72.0573V51.2573C462.054 44.7645 458.911 41.2145 453.632 41.2145C447.243 41.2145 442.879 45.8823 442.371 47.3002V72.0573C442.371 73.3788 441.764 73.9859 440.039 73.9859H434.761C433.746 73.9859 432.836 73.0716 432.836 72.0573V35.3288C432.836 34.3145 433.746 33.4002 434.761 33.4002H437.704C438.514 33.4002 439.125 33.9073 439.329 34.618L440.546 38.0681C441.257 37.2573 446.632 32.3859 454.75 32.3859C467.129 32.3859 471.693 41.1145 471.693 51.6645V72.0573C471.693 73.0716 470.779 73.9859 469.764 73.9859ZM356.475 73.9859H350.693C349.679 73.9859 348.764 73.0716 348.764 72.0573V35.3288C348.764 34.3145 349.679 33.4002 350.693 33.4002H356.475C357.493 33.4002 358.404 34.3145 358.404 35.3288V72.0573C358.404 73.0716 357.493 73.9859 356.475 73.9859ZM283.6 73.9859H277.818C276.804 73.9859 275.889 73.0716 275.889 72.0573V35.3288C275.889 34.3145 276.804 33.4002 277.818 33.4002H283.6C284.614 33.4002 285.529 34.3145 285.529 35.3288V72.0573C285.529 73.0716 284.614 73.9859 283.6 73.9859ZM136.157 73.9859H131.286C130.271 73.9859 129.357 73.0716 129.357 72.0573V35.3288C129.357 34.3145 130.271 33.4002 131.286 33.4002H134.229C134.939 33.4002 135.75 34.0109 135.954 34.8216L137.068 38.2716C137.779 37.2573 141.532 32.3859 148.939 32.3859C152.796 32.3859 157.461 33.4002 156.346 36.1395L153.911 41.1145C153.561 41.8823 152.968 42.2181 152.336 42.2181C152.05 42.2181 151.757 42.1502 151.475 42.0252C150.868 41.7216 149.346 41.3145 148.025 41.3145C142.143 41.3145 139.3 45.5788 138.896 46.2859V72.0573C138.896 73.7823 137.779 73.9859 136.157 73.9859ZM100.239 73.9859H93.5429C92.5286 73.9859 91.6143 73.0716 91.6143 72.0573V15.2895H75.0786C73.9607 15.2895 73.15 14.3752 73.15 13.3609V7.67877C73.15 6.66448 73.9607 5.75377 75.0786 5.75377H118.704C119.821 5.75377 120.632 6.66448 120.632 7.67877V13.3609C120.632 14.3752 119.821 15.2895 118.704 15.2895H102.168V72.0573C102.168 73.0716 101.254 73.9859 100.239 73.9859Z" fill="black"/>
</g>
<path fill-rule="evenodd" clip-rule="evenodd" d="M280.557 20.5609C277.311 20.5609 274.775 17.9216 274.775 14.6752C274.775 11.3287 277.007 8.68945 280.253 8.68945C283.6 8.68945 286.543 11.3287 286.543 14.6752C286.543 17.9216 283.907 20.5609 280.557 20.5609Z" fill="black"/>
<path fill-rule="evenodd" clip-rule="evenodd" d="M353.432 20.5609C350.186 20.5609 347.65 17.9216 347.65 14.6752C347.65 11.3287 349.878 8.68945 353.128 8.68945C356.475 8.68945 359.418 11.3287 359.418 14.6752C359.418 17.9216 356.782 20.5609 353.432 20.5609Z" fill="black"/>
<path fill-rule="evenodd" clip-rule="evenodd" d="M486.21 38.832C486.21 44.407 490.746 48.9427 496.321 48.9427C501.896 48.9427 506.457 44.407 506.457 38.832C506.457 33.257 501.896 28.6963 496.321 28.6963C490.746 28.6963 486.21 33.257 486.21 38.832ZM487.903 38.832C487.903 34.1606 491.675 30.4141 496.321 30.4141C500.996 30.4141 504.739 34.1606 504.739 38.832C504.739 43.4784 500.996 47.2534 496.321 47.2534C491.675 47.2534 487.903 43.4784 487.903 38.832ZM492.8 43.4213L493.335 43.957H494.068L494.603 43.4213V40.0427H496.685L498.264 43.5641L498.771 43.957H499.728C500.121 43.957 500.403 43.5356 500.207 43.1963C499.643 42.0999 499.078 40.9749 498.518 39.8749C499.303 39.6784 500.796 38.9177 500.796 36.807C500.796 34.6927 499.078 33.6534 497.335 33.6534H493.335L492.8 34.1891V43.4213ZM494.575 38.4106V35.1999H497.335C498.375 35.1999 499.025 35.8499 499.025 36.807C499.025 37.6784 498.375 38.4106 497.335 38.4106H494.575Z" fill="black"/>
</g>
<defs>
<clipPath id="clip0_117_186">
<rect width="507.143" height="75" fill="white"/>
</clipPath>
</defs>
</svg>
