<svg width="308" height="100" viewBox="0 0 308 100" fill="none" xmlns="http://www.w3.org/2000/svg">
<g clip-path="url(#clip0_117_228)">
<path d="M0.35791 37.2667H24.5412L38.7912 67.8767L53.7446 37.2667H77.5746L46.0312 97.1967H31.4312L0.35791 37.2667ZM76.9946 14.6033C76.9946 6.54 83.5379 0 91.7146 0C99.7746 0 106.201 6.54 106.201 14.6033C106.201 22.6667 99.7746 29.3233 91.7146 29.3233C87.8117 29.3198 84.0696 27.7678 81.3099 25.008C78.5501 22.2483 76.9981 18.5062 76.9946 14.6033ZM80.2646 97.1967V37.2667H102.695V97.1967H80.2646ZM114.495 18.5767H136.225V37.2667H149.075V54.44H136.225V97.1967H114.261V54.5567H107.835V37.2667H114.378L114.495 18.5767ZM154.678 37.2667H177.108L176.758 45.6767C176.758 45.6767 182.598 35.7467 196.735 35.7467C197.551 35.7467 198.371 35.7467 199.188 35.8633V56.1933C197.441 55.3767 195.098 54.9067 192.648 54.9067C185.405 54.9067 176.758 58.41 176.758 65.7733V97.1967H154.678V37.2667ZM229.448 35.28C237.041 35.28 244.401 38.32 249.661 43.5767V37.2667H269.868V97.1967H249.311C249.311 97.1967 249.191 95.33 249.191 93.3433C249.191 92.4133 249.191 91.4733 249.311 90.6567C244.401 96.73 237.041 99.65 229.448 99.65C210.525 99.65 199.308 83.06 199.308 67.29C199.308 53.0367 208.538 39.4867 223.255 35.9833C225.286 35.5178 227.364 35.2819 229.448 35.28ZM250.358 67.5233C250.358 59.4667 243.818 53.0367 235.755 53.0367C227.695 53.0367 220.918 59.4633 220.918 67.5233C220.918 75.5833 227.695 82.3633 235.755 82.3633C243.818 82.36 250.358 75.5833 250.358 67.5233ZM277.461 85.5167C277.461 77.2233 283.885 70.68 292.181 70.68C300.241 70.68 306.785 77.2233 306.785 85.5167C306.785 93.46 300.241 100.003 292.181 100.003C283.885 100 277.461 93.46 277.461 85.5167Z" fill="black"/>
</g>
<defs>
<clipPath id="clip0_117_228">
<rect width="307.143" height="100" fill="white"/>
</clipPath>
</defs>
</svg>
