<svg width="481" height="80" viewBox="0 0 481 80" fill="none" xmlns="http://www.w3.org/2000/svg">
<g clip-path="url(#clip0_117_306)">
<path d="M3.90056 61.1813C4.72859 64.3923 6.01191 67.1905 7.74254 69.5708C9.47582 71.9511 11.7097 73.8308 14.4547 75.1993C17.1971 76.5705 20.5518 77.2548 24.5216 77.2548C30.3684 77.2548 35.2195 75.7212 39.0801 72.654C42.9407 69.5868 45.3396 64.986 46.2795 58.8516H48.4441C47.648 65.3454 45.0894 70.3802 40.7575 73.9533C36.4283 77.5263 31.0873 79.3129 24.7372 79.3129C20.408 79.3848 16.7072 78.6978 13.6426 77.2574C10.5754 75.8144 8.06736 73.7776 6.11841 71.1417C4.16947 68.5085 2.7264 65.404 1.7892 61.8309C0.849336 58.2579 0.380737 54.4159 0.380737 50.3023C0.380737 45.6856 1.065 41.572 2.43618 37.9617C3.80737 34.354 5.60988 31.3054 7.84904 28.8133C10.0855 26.3239 12.6841 24.4282 15.6422 23.1316C18.6002 21.8323 21.6301 21.1826 24.7346 21.1826C29.0638 21.1826 32.7993 22.0133 35.9384 23.6721C39.0774 25.3334 41.6388 27.5327 43.625 30.275C45.6086 33.0174 47.0516 36.1592 47.9542 39.6923C48.8568 43.2281 49.2349 46.9103 49.0911 50.7337H2.54801C2.6199 54.4878 3.06986 57.9703 3.90056 61.1813ZM45.5233 38.8829C44.5835 35.8157 43.1963 33.1292 41.3565 30.8182C39.5168 28.5098 37.2243 26.6887 34.482 25.3521C31.7396 24.0182 28.5633 23.3499 24.9556 23.3499C21.9257 23.3499 19.0901 23.9276 16.4569 25.0805C13.821 26.236 11.5126 27.9134 9.52907 30.1153C7.54285 32.3172 5.93737 34.969 4.71262 38.0708C3.48521 41.1753 2.76367 44.6738 2.54801 48.5717H46.9291C46.9318 45.1797 46.4605 41.9501 45.5233 38.8829Z" fill="black"/>
<path d="M92.5031 31.7924C91.6378 29.8434 90.4104 28.238 88.8235 26.9759C87.234 25.7139 85.341 24.7927 83.1418 24.2149C80.9399 23.6372 78.5037 23.3496 75.8359 23.3496C71.938 23.3496 68.8708 23.8741 66.6343 24.9178C64.3978 25.9642 62.7364 27.1543 61.6554 28.4909C60.5718 29.8275 59.8875 31.1427 59.6 32.442C59.3098 33.7413 59.166 34.6439 59.166 35.1471C59.166 37.8895 59.7251 40.0009 60.8434 41.4786C61.9616 42.9589 63.4579 44.0958 65.335 44.8892C67.2839 45.6826 69.3953 46.3696 71.6664 46.9447C73.9402 47.5224 76.592 48.2093 79.6219 49.0001C81.7865 49.5779 83.9325 50.1743 86.0625 50.7866C88.1898 51.4017 90.1042 52.2484 91.8002 53.3293C93.4935 54.413 94.8674 55.7841 95.9137 57.4429C96.9601 59.1043 97.482 61.2689 97.482 63.9367C97.482 66.751 96.8856 69.1339 95.6954 71.0802C94.5053 73.0291 92.9531 74.616 91.0414 75.8434C89.127 77.0708 86.9624 77.9547 84.5476 78.4952C82.13 79.0357 79.7311 79.3073 77.3482 79.3073C69.9145 79.3073 64.3046 77.6832 60.5159 74.4376C56.7271 71.1893 54.8341 66.0667 54.8341 59.067H56.9987C56.9987 65.3452 58.748 69.946 62.2492 72.8694C65.7477 75.7928 70.7825 77.2545 77.3508 77.2545C79.3717 77.2545 81.4457 77.0202 83.5757 76.5516C85.7031 76.083 87.636 75.3242 89.3667 74.2778C91.1 73.2315 92.5217 71.8789 93.6426 70.2175C94.7609 68.5588 95.32 66.538 95.32 64.155C95.32 61.7029 94.7609 59.7167 93.6426 58.2017C92.5217 56.6867 91.0813 55.4407 89.3134 54.4662C87.5455 53.4917 85.5061 52.7169 83.1977 52.1392C80.8866 51.5614 78.5436 50.9863 76.1607 50.4086C73.4902 49.7589 71.1446 49.1465 69.1237 48.5688C67.1029 47.9937 65.2977 47.3414 63.7109 46.6198C61.3998 45.6107 59.7065 44.2023 58.6228 42.3971C57.5392 40.5946 56.9987 38.1744 56.9987 35.1445C56.9987 33.6295 57.3235 32.0427 57.9732 30.3813C58.6228 28.7225 59.7038 27.2076 61.2214 25.8337C62.7364 24.4625 64.6853 23.3443 67.0683 22.479C69.4485 21.6137 72.372 21.1797 75.8359 21.1797C82.0421 21.1797 86.9491 22.5881 90.5568 25.4024C94.1645 28.2167 95.9697 32.7269 95.9697 38.9332H93.8051C93.8024 36.1216 93.3684 33.7387 92.5031 31.7924Z" fill="black"/>
<path d="M109.948 67.2973C109.948 69.39 110.182 71.0142 110.651 72.167C111.119 73.3225 111.716 74.1879 112.437 74.7656C113.159 75.3434 113.952 75.6842 114.817 75.7933C115.683 75.9025 116.548 75.9557 117.416 75.9557C118.5 75.9557 119.472 75.9398 120.339 75.9025C121.205 75.8679 121.817 75.7774 122.179 75.6309V77.7955C121.53 77.8674 120.896 77.942 120.284 78.0112C119.669 78.0831 118.534 78.1204 116.873 78.1204C114.346 78.1204 112.2 77.3802 110.432 75.8998C108.664 74.4221 107.78 71.6958 107.78 67.726V24.6468H97.6044V22.4822H107.78V4.94434H109.945V22.4822H122.501V24.6468H109.945L109.948 67.2973Z" fill="black"/>
<path d="M123.239 61.1813C124.067 64.3923 125.35 67.1905 127.081 69.5708C128.814 71.9511 131.048 73.8308 133.793 75.1993C136.535 76.5705 139.89 77.2548 143.86 77.2548C149.707 77.2548 154.558 75.7212 158.418 72.654C162.279 69.5868 164.678 64.986 165.618 58.8516H167.782C166.986 65.3454 164.428 70.3802 160.096 73.9533C155.767 77.5263 150.426 79.3129 144.076 79.3129C139.746 79.3848 136.046 78.6978 132.981 77.2574C129.914 75.8144 127.406 73.7776 125.457 71.1417C123.508 68.5085 122.065 65.404 121.128 61.8309C120.188 58.2579 119.719 54.4159 119.719 50.3023C119.719 45.6856 120.403 41.572 121.775 37.9617C123.146 34.354 124.948 31.3054 127.187 28.8133C129.424 26.3239 132.023 24.4282 134.981 23.1316C137.939 21.8323 140.968 21.1826 144.073 21.1826C148.402 21.1826 152.138 22.0133 155.277 23.6721C158.416 25.3334 160.977 27.5327 162.963 30.275C164.947 33.0174 166.39 36.1592 167.293 39.6923C168.195 43.2281 168.573 46.9103 168.429 50.7337H121.886C121.956 54.4878 122.408 57.9703 123.239 61.1813ZM164.862 38.8829C163.922 35.8157 162.535 33.1292 160.695 30.8182C158.855 28.5098 156.563 26.6887 153.82 25.3521C151.078 24.0182 147.902 23.3499 144.294 23.3499C141.264 23.3499 138.428 23.9276 135.795 25.0805C133.159 26.236 130.851 27.9134 128.867 30.1153C126.881 32.3172 125.276 34.969 124.051 38.0708C122.824 41.1753 122.102 44.6738 121.886 48.5717H166.268C166.268 45.1797 165.799 41.9501 164.862 38.8829Z" fill="black"/>
<path d="M174.905 78.123V22.4822H177.072V36.2287H177.288C177.791 34.136 178.587 32.1684 179.671 30.3286C180.754 28.4888 182.195 26.8833 184 25.5121C185.802 24.141 187.951 23.06 190.44 22.2639C192.93 21.4705 195.835 21.111 199.155 21.1803V23.3449C195.329 23.1292 192.027 23.6537 189.25 24.9131C186.471 26.1778 184.178 27.9084 182.376 30.1103C180.57 32.3121 179.237 34.8575 178.371 37.741C177.506 40.6271 177.072 43.5878 177.072 46.6177V78.1177H174.905V78.123Z" fill="black"/>
<path d="M333.534 61.1813C334.362 64.3923 335.645 67.1905 337.375 69.5708C339.106 71.9511 341.343 73.8308 344.088 75.1993C346.83 76.5705 350.185 77.2548 354.155 77.2548C360.001 77.2548 364.852 75.7212 368.716 72.654C372.576 69.5868 374.975 64.986 375.915 58.8516H378.08C377.286 65.3454 374.725 70.3802 370.393 73.9533C366.064 77.5263 360.723 79.3129 354.373 79.3129C350.044 79.3848 346.343 78.6978 343.278 77.2574C340.211 75.8144 337.703 73.7776 335.754 71.1417C333.805 68.5085 332.362 65.404 331.425 61.8309C330.485 58.2579 330.016 54.4159 330.016 50.3023C330.016 45.6856 330.701 41.572 332.074 37.9617C333.443 34.354 335.248 31.3054 337.487 28.8133C339.724 26.3239 342.322 24.4282 345.28 23.1316C348.238 21.8323 351.271 21.1826 354.373 21.1826C358.702 21.1826 362.438 22.0133 365.577 23.6721C368.716 25.3334 371.277 27.5327 373.263 30.275C375.247 33.0174 376.69 36.1592 377.592 39.6923C378.495 43.2281 378.873 46.9103 378.729 50.7337H332.181C332.253 54.4878 332.703 57.9703 333.534 61.1813ZM375.156 38.8829C374.216 35.8157 372.829 33.1292 370.99 30.8182C369.15 28.5098 366.857 26.6887 364.115 25.3521C361.373 24.0182 358.196 23.3499 354.589 23.3499C351.559 23.3499 348.726 23.9276 346.093 25.0805C343.457 26.236 341.148 27.9134 339.165 30.1153C337.178 32.3172 335.573 34.969 334.348 38.0708C333.121 41.1753 332.399 44.6738 332.184 48.5717H376.565C376.565 45.1797 376.094 41.9501 375.156 38.8829Z" fill="black"/>
<path d="M388.157 78.123V22.4822H390.322V36.2287H390.538C391.041 34.136 391.837 32.1684 392.918 30.3286C394.001 28.4888 395.442 26.8833 397.247 25.5121C399.049 24.141 401.198 23.06 403.688 22.2639C406.177 21.4705 409.082 21.111 412.402 21.1803V23.3449C408.576 23.1292 405.274 23.6537 402.497 24.9131C399.718 26.1778 397.428 27.9084 395.623 30.1103C393.818 32.3121 392.484 34.8575 391.618 37.741C390.753 40.6271 390.319 43.5878 390.319 46.6177V78.1177H388.157V78.123Z" fill="black"/>
<path d="M420.411 11.7652V0.833008H422.575V11.7652H420.411ZM420.411 78.1226V22.4818H422.575V78.1226H420.411Z" fill="black"/>
<path d="M436.921 78.1226H434.756V0.833008H436.921V54.4157L475.349 22.4818H478.488L452.941 43.6992L480.33 78.1226H477.407L451.32 45.2141L436.924 57.1208V78.1226H436.921Z" fill="black"/>
<path d="M253.131 3.05118C251.084 2.96864 250.365 3.38932 249.202 4.29456C247.724 5.45275 246.513 6.93043 245.575 8.73294C244.638 10.5355 244.167 12.7027 244.167 15.2294C244.167 17.0319 244.566 18.8158 245.36 20.5837C246.153 22.3516 247.149 24.0876 248.336 25.7809C249.529 27.4742 250.775 29.1356 252.074 30.7624C253.371 32.3839 254.561 33.9548 255.645 35.4724C253.334 36.9155 250.951 38.4491 248.496 40.0732C246.044 41.6946 243.807 43.5158 241.787 45.5366C239.766 47.5601 238.107 49.8126 236.805 52.3047C235.508 54.7915 234.859 57.6243 234.859 60.8034C234.859 63.8333 235.508 66.5224 236.805 68.8681C238.104 71.2137 239.784 73.1973 241.84 74.8187C243.895 76.4455 246.26 77.6916 248.93 78.5542C251.601 79.4222 254.271 79.8535 256.942 79.8535C262.424 79.8535 267.024 78.5196 270.744 75.8491C274.458 73.1786 277.4 69.8585 279.567 65.8887L289.203 78.1202H292.017L280.651 63.7268C281.729 61.2746 282.563 58.8757 283.138 56.5301C283.713 54.1844 283.966 51.3861 283.897 48.1405H281.729C281.878 51.0267 281.66 53.6226 281.085 55.9337C280.505 58.2447 279.852 60.191 279.133 61.7752L258.784 36.0155C260.517 34.7162 262.389 33.3797 264.415 32.0111C266.431 30.6373 268.273 29.1383 269.932 27.5195C271.593 25.8927 272.98 24.0902 274.099 22.1067C275.217 20.1204 275.779 17.8307 275.779 15.2348C275.779 12.9237 275.361 10.8842 274.533 9.11634C273.705 7.34845 272.568 5.84946 271.125 4.62471C269.908 3.589 268.167 3.3334 267.067 3.36003C267.048 3.36003 267.032 3.36003 267.014 3.36269C265.792 3.40529 264.644 3.95909 263.787 4.82973L260.81 7.85965C260.326 8.31493 259.567 8.31493 259.085 7.85698L255.783 4.36911C255.552 4.12416 255.293 3.90584 255.006 3.73278C254.785 3.60232 254.569 3.49049 254.314 3.37068C253.973 3.20827 253.555 3.06715 253.131 3.05118ZM252.447 27.7884C251.044 25.9114 249.886 24.2313 248.983 22.7536C248.081 21.276 247.418 19.9207 246.984 18.6933C246.55 17.4659 246.334 16.2412 246.334 15.0138C246.334 13.1367 246.694 11.4567 247.418 9.97899C248.137 8.50131 249.127 7.23396 250.394 6.19026C250.498 6.10506 250.599 6.02252 250.706 5.93999C251.907 5.00811 253.603 5.07468 254.716 6.10772L258.707 10.208C259.061 10.5328 259.505 10.6952 259.953 10.6952C260.416 10.6952 260.885 10.5168 261.244 10.1574L264.639 6.51242C265.965 5.1865 268.079 5.08533 269.527 6.27546L269.554 6.29676C270.816 7.34046 271.809 8.62112 272.533 10.1387C273.252 11.651 273.611 13.3497 273.611 15.2268C273.611 17.4633 273.055 19.5187 271.937 21.3958C270.813 23.2728 269.445 24.9875 267.823 26.5397C266.196 28.0919 264.45 29.5164 262.573 30.8157C260.696 32.115 259.002 33.3025 257.485 34.3861C255.536 31.862 253.856 29.6655 252.447 27.7884ZM269.932 73.8975C266.468 76.4988 262.139 77.7981 256.942 77.7981C254.489 77.7981 252.056 77.4333 249.636 76.7144C247.218 75.9902 245.088 74.9119 243.251 73.4689C241.409 72.0258 239.912 70.2366 238.759 68.1093C237.601 65.9819 237.026 63.5484 237.026 60.8034C237.026 57.7681 237.657 55.103 238.922 52.7946C240.184 50.4835 241.789 48.4094 243.741 46.567C245.687 44.7246 247.836 43.0498 250.179 41.5322C252.524 40.0199 254.78 38.5769 256.942 37.203L278.159 63.8333C276.138 67.9468 273.393 71.3016 269.932 73.8975Z" fill="black"/>
</g>
<defs>
<clipPath id="clip0_117_306">
<rect width="480.33" height="80" fill="white"/>
</clipPath>
</defs>
</svg>
