<svg width="465" height="65" viewBox="0 0 465 65" fill="none" xmlns="http://www.w3.org/2000/svg">
<g clip-path="url(#clip0_117_232)">
<path fill-rule="evenodd" clip-rule="evenodd" d="M464.286 8.92589H434.732V26.9402H459.931V35.2648H434.732V53.813H464.286V62.2027H425.553V0.506071H464.286V8.92589ZM372.51 8.92589V0.506071H415.069V8.92589H398.394V62.2027H389.185V8.92589H372.51ZM352.85 62.2027V0.506071H362.059V62.2027H352.85ZM327.807 43.8425V0.506071H337.016V62.2027H328.584L300.586 18.8036V62.2027H291.376V0.506071H299.808L327.807 43.8123V43.8425ZM271.932 6.58357C277.905 12.6634 277.719 19.5 277.719 31.3718C277.719 43.2412 277.875 50.0802 271.932 56.1577C267.763 60.3989 262.382 62.7412 255.912 62.7412C249.442 62.7412 244.152 60.3966 239.982 56.1577C234.009 50.0802 234.102 43.2412 234.102 31.3718C234.102 19.5 234.009 12.6611 239.982 6.58357C244.152 2.34464 249.44 0 255.912 0C262.382 0 267.733 2.34464 271.932 6.58357ZM264.963 50.5213C267.951 47.2295 268.541 43.7798 268.541 31.3695C268.541 18.9614 267.951 15.5118 264.963 12.2177C262.848 9.87768 259.519 8.41982 255.942 8.41982C252.365 8.41982 249.036 9.90786 246.921 12.22C243.933 15.5118 243.341 18.9614 243.341 31.3718C243.341 43.7798 243.933 47.2295 246.921 50.5236C249.036 52.8659 252.365 54.3214 255.942 54.3214C259.519 54.3214 262.848 52.8334 264.963 50.5213ZM185.013 8.92589V0.506071H227.57V8.92589H210.895V62.2027H201.686V8.92589H185.013ZM159.809 0.506071C171.633 0.506071 179.221 8.48482 179.221 19.2168C179.221 29.9464 171.63 37.9229 159.809 37.9229H146.027V62.1725H136.825V0.506071H159.809ZM159.313 29.4404C165.69 29.4404 170.045 25.7029 170.045 19.2145C170.045 12.7261 165.69 8.89571 159.313 8.89571H146.027V29.4404H159.313ZM111.809 62.2027V0.506071H121.018V62.2027H111.809ZM98.3682 18.5505C98.3682 27.3813 93.08 33.0177 86.2689 34.9166L100.237 62.2027H89.5027L76.7162 36.2143H65.2368V62.2027H56.03V0.506071H79.5182C90.9977 0.506071 98.338 8.04143 98.338 18.5204L98.3682 18.5505ZM65.2368 28.268H78.8636C84.9921 28.268 89.1614 24.7232 89.1614 18.6457C89.1614 12.5682 84.9921 8.92589 78.8636 8.92589H65.2368V28.268ZM33.9718 0.506071H45.2029L25.5404 24.6907L47.2573 62.205H36.4302L19.4141 31.7804L9.20911 44.2534V62.2004H0V0.506071H9.20911V31.5296L33.9718 0.506071Z" fill="black"/>
</g>
<defs>
<clipPath id="clip0_117_232">
<rect width="464.286" height="65" fill="white"/>
</clipPath>
</defs>
</svg>
