<svg width="512" height="60" viewBox="0 0 512 60" fill="none" xmlns="http://www.w3.org/2000/svg">
<path d="M504.118 0.238432C502.898 0.644979 501.476 2.16953 500.967 3.59244C500.459 5.1424 500.459 5.57436 500.993 7.02268C501.552 8.47101 502.162 9.18246 503.559 9.99556C504.499 10.5546 504.88 10.6308 506.405 10.5291C507.904 10.4529 508.285 10.3259 509.124 9.66524C511.004 8.14069 511.715 6.38745 511.36 4.22767C511.131 2.90639 509.861 1.2548 508.59 0.59416C507.421 -0.0156603 505.363 -0.193524 504.118 0.238432ZM508.666 1.89003C509.174 2.29658 509.784 3.16049 510.064 3.82113C510.496 4.91372 510.521 5.19322 510.242 6.235C509.708 8.26773 508.056 9.5636 505.998 9.5636C504.575 9.5636 503.356 8.87755 502.467 7.58168C501.399 6.03172 501.73 3.31294 503.102 2.06789C504.55 0.772024 507.167 0.695797 508.666 1.89003Z" fill="black"/>
<path d="M503.864 5.24308V8.03809H504.499C505.084 8.03809 505.135 7.93645 505.135 6.99631C505.135 6.08158 505.186 5.97994 505.719 6.05617C506.049 6.10699 506.481 6.48813 506.786 7.07254C507.193 7.83481 507.447 8.03809 508.006 8.03809C508.387 8.03809 508.692 7.98727 508.692 7.91104C508.692 7.60613 507.676 5.77667 507.422 5.62421C507.269 5.52258 507.294 5.3193 507.549 5.09062C507.752 4.86194 507.93 4.30294 507.93 3.84557C507.93 2.72757 507.422 2.44807 505.414 2.44807H503.864V5.24308ZM506.507 3.87098C506.735 4.42998 506.481 4.73489 505.745 4.73489C505.262 4.73489 505.135 4.60785 505.135 4.09966C505.135 3.59148 505.262 3.46443 505.745 3.46443C506.075 3.46443 506.431 3.6423 506.507 3.87098Z" fill="black"/>
<path d="M116.758 0.365993C116.504 0.645493 116.631 2.14463 116.962 2.37332C117.114 2.52577 118.791 2.70364 120.671 2.77987C123.339 2.90691 124.178 3.03395 124.533 3.36428C124.991 3.77082 125.016 4.78719 125.016 30.1456C125.016 55.3515 124.991 56.5203 124.559 56.9014C124.178 57.2572 123.517 57.3334 120.976 57.3334H117.876L117.953 58.3752L118.029 59.4169H126.668H135.307L135.383 58.3752L135.459 57.3334H131.699C129.082 57.3334 127.811 57.2317 127.608 57.0285C127.201 56.6219 127.151 3.97409 127.557 3.97409C127.71 3.97409 127.811 4.10114 127.811 4.2536C127.811 4.40605 128.142 5.21915 128.548 6.08306C128.955 6.94697 129.539 8.34447 129.869 9.18298C130.174 10.0215 130.759 11.419 131.14 12.3083C131.546 13.1722 131.877 14.0107 131.877 14.1632C131.877 14.3156 132.207 15.1287 132.614 15.9926C133.579 18.0254 134.418 20.2106 134.418 20.6425C134.418 20.8458 134.519 20.9982 134.621 20.9982C134.748 20.9982 134.977 21.3794 135.104 21.8113C135.713 23.6408 136.527 25.7244 136.73 25.9785C136.857 26.1309 137.238 27.0456 137.619 28.0112C137.975 28.9767 138.483 30.2218 138.737 30.7808C138.991 31.3398 139.525 32.5848 139.881 33.5758C140.262 34.5413 140.846 35.9389 141.176 36.6757C141.507 37.3872 141.786 38.124 141.786 38.2765C141.786 38.4289 142.167 39.3691 142.65 40.3855C143.107 41.4018 143.768 42.901 144.073 43.7395C144.378 44.578 144.962 45.9755 145.369 46.8648C145.775 47.7287 146.106 48.5672 146.106 48.7197C146.106 48.8467 146.385 49.5836 146.741 50.295C147.529 51.972 148.647 54.8687 148.647 55.2244C148.647 55.3769 148.723 55.5547 148.85 55.6056C148.952 55.631 149.282 56.3678 149.612 57.2063C150.451 59.3661 150.527 59.4932 151.213 59.4932C151.848 59.4932 152.001 59.2645 153.347 56.2662C153.703 55.4785 153.983 54.6908 153.983 54.5638C153.983 54.4113 154.287 53.6745 154.643 52.9376C154.999 52.2261 155.634 50.6508 156.066 49.4565C156.498 48.2623 156.955 47.2713 157.082 47.2205C157.184 47.1697 157.286 46.9918 157.286 46.814C157.286 46.4328 158.099 44.2985 158.836 42.6977C159.115 42.1133 159.547 40.9699 159.827 40.1822C160.106 39.3945 160.538 38.2511 160.818 37.6667C161.097 37.1077 161.554 35.9389 161.859 35.1003C162.164 34.2618 162.622 33.1184 162.876 32.5594C163.435 31.3398 164.4 28.7226 164.578 27.9095C164.654 27.6046 164.807 27.3505 164.908 27.3505C165.035 27.3505 165.213 27.0965 165.29 26.7661C165.594 25.7498 166.458 23.4375 167.094 22.0908C167.424 21.3794 167.703 20.6425 167.703 20.4901C167.703 20.3122 168.084 19.3721 168.567 18.3811C169.025 17.3647 169.736 15.6369 170.117 14.5189C170.498 13.4009 170.981 12.2575 171.159 11.978C171.311 11.6985 171.794 10.5043 172.175 9.31002C172.582 8.11579 172.963 7.09943 173.039 7.0232C173.217 6.89615 174.157 4.48228 174.437 3.51673C174.538 3.18641 174.742 2.98314 174.894 3.03395C175.123 3.11018 175.224 9.74198 175.275 29.6628L175.326 56.19L174.792 56.6219C174.361 56.9777 173.776 57.0793 172.048 57.0793C168.618 57.0793 167.271 57.308 167.119 57.8924C167.043 58.1719 167.068 58.6293 167.17 58.9088C167.348 59.4169 167.576 59.4169 179.874 59.4169C193.011 59.4169 192.858 59.4169 192.858 58.3498C192.858 57.435 192.477 57.3334 188.59 57.1047C186.455 57.0031 184.626 56.8252 184.524 56.7236C184.422 56.6219 184.346 44.6034 184.346 30.0185C184.346 9.66575 184.422 3.41509 184.651 3.18641C184.854 2.98314 186.379 2.80527 188.691 2.67823C190.749 2.57659 192.528 2.37332 192.655 2.24627C192.782 2.11922 192.858 1.68727 192.807 1.28072L192.731 0.543858L183.152 0.467628L173.598 0.416809L173.09 1.2299C172.811 1.68727 172.328 2.80527 172.023 3.6946C171.718 4.58392 171.184 5.87978 170.854 6.54042C170.524 7.20106 170.244 7.83629 170.244 7.98875C170.244 8.29366 169.38 10.4788 168.44 12.5624C168.034 13.4263 167.703 14.2648 167.703 14.4173C167.703 14.5443 167.424 15.2812 167.068 15.9926C166.28 17.7205 165.162 20.5663 165.162 20.9474C165.162 21.1253 165.061 21.2523 164.908 21.2523C164.781 21.2523 164.654 21.4048 164.654 21.5573C164.654 21.9384 163.155 25.826 162.876 26.2071C162.698 26.4612 161.453 29.7644 161.148 30.7808C161.072 31.0603 160.945 31.3398 160.843 31.416C160.767 31.4922 160.436 32.2291 160.106 33.0676C159.776 33.9061 159.318 35.0749 159.039 35.6339C158.759 36.2184 158.327 37.3618 158.048 38.1494C157.768 38.9371 157.336 40.0805 157.057 40.665C156.777 41.224 156.295 42.3928 155.99 43.2313C155.659 44.0698 155.329 44.8575 155.202 44.9845C155.024 45.2132 153.983 43.1297 153.983 42.5706C153.983 42.4182 153.576 41.4526 153.093 40.4109C152.61 39.3691 152.204 38.4289 152.204 38.3019C152.204 38.0478 151.238 35.5323 150.883 34.8717C150.73 34.5922 150.349 33.5758 150.019 32.6357C149.688 31.6701 149.206 30.3996 148.926 29.8152C148.672 29.2308 148.189 28.062 147.884 27.2235C147.579 26.385 147.122 25.2162 146.843 24.6572C146.563 24.0728 146.131 22.9293 145.852 22.1417C145.572 21.354 145.14 20.2106 144.861 19.6262C144.581 19.0672 144.124 17.8983 143.819 17.0598C143.514 16.2213 142.93 14.8238 142.523 13.9599C142.117 13.0706 141.786 12.2575 141.786 12.105C141.786 11.9526 141.456 11.1141 141.024 10.2248C140.617 9.33543 139.982 7.70925 139.601 6.61665C139.22 5.49865 138.813 4.48228 138.712 4.32983C138.585 4.17737 138.204 3.26264 137.848 2.3225C137.517 1.38236 137.213 0.569267 137.162 0.543858C137.009 0.416809 116.885 0.238945 116.758 0.365993Z" fill="black"/>
<path d="M257.092 0.290646C256.964 0.41769 256.888 0.925873 256.888 1.45947C256.888 2.6537 256.812 2.62829 261.309 2.80615C263.164 2.88238 264.74 3.08566 264.918 3.23811C265.4 3.64466 265.451 56.5466 264.968 57.0294C264.765 57.2326 263.622 57.3343 261.513 57.3343H258.387L258.464 58.376L258.54 59.3924H266.798C271.346 59.3924 275.208 59.3924 275.386 59.367C275.615 59.367 275.691 59.0621 275.64 58.4015L275.564 57.4613L271.625 57.3089C269.466 57.2326 267.662 57.131 267.636 57.131C267.433 57.0039 267.585 3.97498 267.763 3.97498C268.043 3.97498 268.348 4.61021 269.313 7.15112C269.72 8.26913 270.355 9.79368 270.711 10.5051C271.066 11.242 271.371 11.9789 271.371 12.1313C271.371 12.2584 271.651 12.9952 271.981 13.7067C272.312 14.4436 272.896 15.8157 273.277 16.8066C273.633 17.7722 274.166 19.0426 274.42 19.6016C274.675 20.1606 275.183 21.4057 275.538 22.3712C275.92 23.3368 276.301 24.2515 276.402 24.404C276.529 24.5564 276.936 25.5474 277.317 26.5892C277.698 27.6309 278.283 29.0538 278.613 29.7653C278.918 30.4513 279.274 31.3153 279.375 31.671C279.477 32.0267 279.96 33.1447 280.417 34.1611C280.9 35.1775 281.281 36.1176 281.281 36.2701C281.281 36.4225 281.611 37.261 282.018 38.1249C282.424 38.9634 283.085 40.5896 283.517 41.7076C283.949 42.8256 284.533 44.2231 284.813 44.8075C285.118 45.3919 285.346 46.0018 285.346 46.1796C285.346 46.3321 285.677 47.1706 286.083 48.0345C286.464 48.873 287.049 50.2705 287.379 51.109C287.684 51.9475 288.218 53.1926 288.522 53.904C288.853 54.5901 289.386 55.8605 289.691 56.699C290.326 58.4777 291.089 59.6211 291.572 59.6211C292.131 59.6211 292.893 58.4269 293.503 56.6228C293.782 55.6827 294.189 54.6917 294.341 54.4122C294.519 54.1327 294.951 53.0401 295.357 51.9983C295.739 50.9566 296.272 49.6099 296.552 49.0509C296.831 48.4665 297.263 47.323 297.543 46.5354C297.822 45.7477 298.254 44.6043 298.534 44.0199C298.813 43.4609 299.27 42.292 299.575 41.4535C299.88 40.615 300.338 39.4462 300.617 38.8872C300.897 38.3028 301.329 37.1594 301.608 36.3717C301.888 35.584 302.32 34.4406 302.599 33.8562C302.879 33.2972 303.336 32.1284 303.641 31.2899C303.946 30.4513 304.403 29.2825 304.683 28.7235C304.962 28.1391 305.394 26.9957 305.674 26.208C305.953 25.4203 306.385 24.2769 306.664 23.6925C306.944 23.1335 307.401 21.9647 307.706 21.1262C308.011 20.2877 308.596 18.8902 309.002 18.0517C309.409 17.1878 309.739 16.3493 309.739 16.1968C309.739 16.0189 310.069 15.1804 310.476 14.2911C310.908 13.4018 311.492 11.9535 311.797 11.0641C312.102 10.1748 312.686 8.72649 313.068 7.86258C313.474 6.99867 313.804 6.16017 313.804 6.00771C313.804 5.4233 315.126 2.95861 315.354 3.08566C315.481 3.18729 315.583 13.8083 315.583 29.6637C315.583 60.358 315.939 57.0802 312.559 57.0802C311.467 57.0802 309.866 57.1564 309.002 57.2326C307.655 57.3851 307.427 57.4867 307.3 57.9949C307.223 58.2998 307.249 58.7572 307.401 58.9859C307.605 59.367 308.723 59.4178 320.157 59.4178C332.48 59.4178 332.709 59.4178 332.887 58.9096C333.166 58.1982 332.887 57.3343 332.378 57.3089C332.15 57.3089 330.447 57.2072 328.592 57.1056C325.645 56.9531 325.137 56.8769 324.832 56.4449C324.324 55.7335 324.298 4.0512 324.807 3.36515C325.111 2.95861 325.721 2.85697 328.923 2.67911C331.108 2.55206 332.836 2.32338 333.039 2.14552C333.242 1.99306 333.369 1.5611 333.319 1.20538L333.242 0.544735L323.46 0.493916L313.677 0.4431L313.093 1.66274C312.788 2.34879 312.229 3.74629 311.873 4.76266C311.518 5.77903 310.882 7.32899 310.476 8.21831C310.069 9.08222 309.739 9.92073 309.739 10.0986C309.739 10.251 309.409 11.0895 309.002 11.9535C308.596 12.792 308.011 14.1895 307.706 15.028C307.401 15.8665 306.944 17.0099 306.69 17.5689C306.436 18.1279 305.902 19.4492 305.521 20.4909C305.165 21.5327 304.759 22.5237 304.632 22.6507C304.53 22.8032 304.073 23.8958 303.641 25.0646C303.209 26.2588 302.574 27.8088 302.218 28.5457C301.888 29.2571 301.608 29.994 301.608 30.1464C301.608 30.2989 301.329 31.0358 300.998 31.7472C300.668 32.4841 300.084 33.8562 299.702 34.8471C299.347 35.8127 298.762 37.1848 298.457 37.8962C298.127 38.5823 297.721 39.6241 297.543 40.1831C297.365 40.7421 296.882 41.8347 296.475 42.6223C296.094 43.41 295.764 44.2485 295.764 44.4518C295.764 45.1379 295.332 45.1633 295.027 44.4772C294.875 44.1215 294.748 43.6895 294.748 43.4863C294.748 43.3084 294.646 43.1051 294.544 43.0543C294.417 43.0035 293.96 41.8855 293.503 40.5642C293.02 39.2429 292.562 38.0233 292.461 37.8962C292.232 37.6167 291.317 35.1775 290.911 33.7545C290.758 33.3226 290.555 32.9414 290.454 32.9414C290.326 32.9414 290.174 32.6874 290.098 32.357C289.92 31.5694 288.954 28.9522 288.395 27.7326C288.141 27.1736 287.684 26.0302 287.379 25.1916C287.074 24.3531 286.566 23.0827 286.236 22.3966C285.931 21.6852 285.575 20.8467 285.473 20.4909C285.372 20.1352 284.889 19.0172 284.432 18.0008C283.949 16.9591 283.568 16.0189 283.568 15.8919C283.568 15.7394 283.288 15.028 282.958 14.3165C282.297 12.8428 281.687 11.2674 281.103 9.565C280.9 8.92977 280.62 8.29454 280.493 8.14208C280.315 7.9134 279.197 4.96593 278.816 3.59384C278.715 3.31434 278.588 3.03484 278.486 2.95861C278.41 2.88238 278.13 2.29797 277.876 1.61192L277.419 0.41769H270.38C266.493 0.41769 261.97 0.341461 260.293 0.265236C258.641 0.163597 257.193 0.189007 257.092 0.290646Z" fill="black"/>
<path d="M0.765895 1.1279C0.765895 1.53445 0.918349 2.01722 1.12162 2.16968C1.32489 2.34754 2.92566 2.52541 5.0092 2.62704C7.62632 2.72868 8.61727 2.88113 8.973 3.16064C9.37954 3.51637 9.40495 5.11714 9.40495 29.8911C9.40495 52.5561 9.35413 56.2912 9.04923 56.5707C8.82055 56.7486 7.14355 56.9265 4.55184 57.0281C0.0798525 57.2314 -0.250465 57.333 0.105261 58.6797L0.257715 59.3657H13.2163H26.1749L26.3273 58.7559C26.4036 58.4002 26.4036 57.892 26.3019 57.6125C26.1495 57.1043 25.9462 57.0789 22.8717 57.0789C18.0948 57.0789 18.5522 58.6543 18.5522 42.5449V29.3321L24.2184 29.4337L29.8592 29.51L31.1296 30.2468C33.3402 31.4919 34.1025 32.4066 35.4238 35.5065C35.9828 36.8024 36.2877 39.2417 36.4655 43.9932C36.6688 49.0496 37.0499 53.1151 37.3803 53.2167C37.5073 53.2675 37.6089 53.547 37.6089 53.852C37.6089 55.1478 39.54 58.3494 40.3023 58.3494C40.4547 58.3494 40.658 58.5018 40.7342 58.6797C40.7851 58.8322 41.4711 59.2133 42.208 59.4928C43.453 59.9502 44.2153 60.001 50.9487 60.001H58.3173V58.9846V57.9682L54.76 57.8158C52.8035 57.7396 50.9487 57.5617 50.6692 57.3838C50.3643 57.2314 49.7798 56.6978 49.3479 56.215C48.5094 55.2749 48.1537 53.9536 47.8996 50.8537C47.7979 49.8627 47.6455 48.8463 47.5184 48.5668C47.3914 48.2873 47.1119 46.1022 46.8832 43.7391C46.3242 38.2253 46.1464 37.0565 45.5365 35.6844C45.2825 35.1 45.003 34.4139 44.9267 34.2107C44.571 33.2451 43.1481 31.6697 41.8268 30.8058C40.0482 29.6116 38.1933 28.9764 35.5254 28.6206C34.3566 28.4682 33.1878 28.2395 32.9083 28.1125C32.6288 27.9854 31.8411 27.833 31.1296 27.7821C29.6813 27.7059 29.8846 27.5789 32.4763 26.9944C34.6361 26.5117 37.7106 25.1142 39.4638 23.8183C40.9121 22.7511 42.5637 20.6676 42.9702 19.4479C43.1227 18.9651 43.4022 18.2283 43.58 17.8217C44.3677 15.9923 44.2153 10.8596 43.3514 9.18261C43.1227 8.75066 42.9448 8.24247 42.9448 8.01379C42.9448 7.5056 41.6744 5.5491 40.5056 4.22782C39.9974 3.66882 38.854 2.7795 38.0155 2.27131C35.0426 0.518082 35.7033 0.568897 17.358 0.492672L0.765895 0.391033V1.1279ZM28.8682 3.18604C30.8501 4.07537 32.4509 6.18433 33.0607 8.69984C33.2386 9.38588 33.4927 10.0973 33.6451 10.3006C33.823 10.5293 33.9246 12.2317 33.9246 15.0267C33.9246 17.8217 33.823 19.5241 33.6451 19.7528C33.4927 19.9561 33.2386 20.6676 33.0607 21.3282C32.6542 23.056 31.6632 24.4027 30.1133 25.4445C28.3092 26.6387 26.7593 26.9436 22.3635 26.9436L18.6792 26.969L18.603 15.789C18.5776 9.63998 18.603 4.25323 18.6792 3.79586C18.8571 2.7795 18.9079 2.7795 23.8881 2.75409C27.2167 2.72868 27.9789 2.7795 28.8682 3.18604Z" fill="black"/>
<path d="M60.3246 1.02663C60.2484 1.35695 60.2992 1.89055 60.4771 2.17005C60.7311 2.65282 60.9852 2.70364 63.4753 2.70364C65.1777 2.72905 66.3973 2.83069 66.7785 3.03396C68.1506 3.79623 68.0998 2.77987 68.0998 29.9169C68.0998 43.8919 67.9981 55.072 67.8711 55.1482C67.7694 55.2244 67.5916 55.631 67.5153 56.0375C67.4391 56.4187 67.1596 56.8506 66.9055 56.9522C66.6514 57.0539 65.1269 57.1809 63.5261 57.2572C59.4607 57.4096 59.4607 57.4096 59.4607 58.553V59.4932H85.2508C103.774 59.4932 111.066 59.4169 111.143 59.2137C111.219 58.985 111.676 43.5108 111.676 40.8174C111.676 40.233 111.575 40.1822 110.66 40.1822H109.643L109.339 43.4854C109.034 46.6869 108.576 49.2024 108.271 49.4565C108.195 49.5328 107.789 50.2442 107.382 51.0573C106.62 52.6073 104.714 54.513 103.19 55.3006C102.681 55.5547 101.589 55.8851 100.75 56.0629C99.9118 56.2154 98.9971 56.4949 98.7176 56.6473C98.3619 56.876 95.2111 56.9777 88.1474 57.0285L78.0601 57.1047L77.5265 56.4187C76.9929 55.758 76.9929 55.6056 76.9929 43.0534V30.3488L82.405 30.4505C87.1311 30.5267 87.9188 30.6029 88.9351 31.0603C90.231 31.6447 91.6539 33.1184 91.8826 34.1602C91.9842 34.5413 92.1621 34.9987 92.3145 35.1766C92.467 35.3544 92.6194 36.7265 92.6702 38.2257C92.8227 42.1133 92.8227 42.1387 93.9661 42.0371L94.9062 41.9608V29.5103V17.0598L93.9661 16.9836C92.8227 16.882 92.8227 16.9328 92.6702 20.7442C92.594 22.7261 92.4416 23.6408 92.0858 24.3269C91.3236 25.7752 90.5613 26.5629 89.6212 26.9694C88.2491 27.5284 84.3615 27.8841 80.5502 27.8079L77.1199 27.7317V15.6115C77.1199 6.00684 77.1962 3.4151 77.4503 3.16101C77.8568 2.75446 93.4071 2.55119 97.0914 2.93232C100.268 3.23723 102.402 4.20278 103.876 5.95602C104.892 7.17566 105.959 9.38626 105.959 10.3264C105.959 10.5805 106.086 10.8346 106.213 10.8854C106.366 10.9362 106.569 12.105 106.671 13.5025L106.848 16.0435H107.865H108.881L108.957 8.21743L109.008 0.416813H84.7426H60.4771L60.3246 1.02663Z" fill="black"/>
<path d="M200.658 0.594681C200.379 0.87418 200.455 2.06841 200.785 2.39873C200.989 2.60201 201.979 2.70364 203.555 2.70364C206.197 2.70364 207.468 3.00855 207.849 3.72001C208.001 4.02492 208.103 13.6804 208.103 30.0947V55.9867L207.468 56.5711C206.883 57.1301 206.553 57.1809 203.453 57.308L200.099 57.4604L200.023 58.4768L199.947 59.4932L225.559 59.4423C250.053 59.4169 251.146 59.3915 251.324 58.9342C251.4 58.6801 251.578 54.3351 251.679 49.2533L251.857 40.0551H250.968C250.46 40.0551 249.977 40.1822 249.901 40.3092C249.799 40.4617 249.621 41.9862 249.52 43.6887C249.24 47.373 248.63 49.6852 247.538 51.3368C247.08 51.9975 246.725 52.6327 246.725 52.7343C246.725 52.836 246.064 53.4458 245.276 54.0556C243.93 55.072 240.957 56.317 239.89 56.317C239.661 56.317 239.305 56.4695 239.153 56.6219C238.899 56.876 236.358 56.9777 228.634 57.0285L218.47 57.1047L217.86 56.5457L217.25 55.9867V43.1551V30.3488L222.535 30.4505C228.456 30.5775 229.726 30.857 231.174 32.3053C232.292 33.4488 232.75 35.1512 232.953 38.8863L233.131 41.9608H234.147H235.164V29.5103V17.0598H234.147H233.131L232.978 19.9819C232.724 24.8604 232.064 26.1563 229.32 27.1219C227.973 27.6046 227.185 27.6809 222.586 27.7063L217.377 27.7317L217.301 15.8402L217.25 3.94869L217.886 3.31346L218.546 2.65282L228.634 2.77987C239.636 2.90691 240.068 2.95773 242.329 4.38065C243.599 5.19374 245.429 7.3027 245.454 7.96334C245.454 8.1412 245.683 8.70021 245.962 9.2338C246.496 10.2502 246.953 12.9435 246.979 14.9509C246.979 16.1705 246.979 16.1705 247.817 16.1705C248.275 16.1705 248.783 16.0435 248.961 15.8656C249.189 15.6369 249.266 13.528 249.266 7.98875V0.416813H225.051C211.711 0.416813 200.734 0.493042 200.658 0.594681Z" fill="black"/>
<path d="M340.865 0.924389C340.789 1.17848 340.84 1.63585 340.967 1.91535C341.221 2.37271 341.577 2.42353 344.677 2.49976C347.395 2.55057 348.183 2.65221 348.361 2.95712C348.717 3.51612 348.691 54.9951 348.336 56.0115C348.005 56.9516 347.827 57.0025 343.584 57.2311C340.942 57.3582 340.433 57.4598 340.23 57.841C340.078 58.0951 340.078 58.5524 340.179 58.8319C340.357 59.3655 340.484 59.3655 356.873 59.4926C367.341 59.5688 374.227 59.4926 375.676 59.3401C379.589 58.8827 383.247 56.7484 385.331 53.6993C386.271 52.2763 387.135 50.4723 387.364 49.4559C387.465 48.9732 387.643 48.4396 387.745 48.3125C388.05 47.9314 388.507 44.6028 388.507 42.7479C388.507 40.7914 388.024 37.2595 387.745 37.2595C387.643 37.2595 387.491 36.9546 387.415 36.5481C387.11 35.0743 386.093 33.2703 384.747 31.8728C383.984 31.0597 383.197 30.399 382.993 30.399C382.816 30.399 382.663 30.2974 382.663 30.1704C382.663 29.8909 379.538 28.3663 378.979 28.3663C378.775 28.3663 378.598 28.2647 378.598 28.163C378.598 27.8835 376.667 27.4008 374.024 27.045C371.839 26.7401 370.924 26.3336 372.449 26.3336C372.83 26.3336 373.262 26.2319 373.414 26.1049C373.541 26.0033 374.354 25.6475 375.218 25.368C379.614 23.9197 382.943 20.1846 383.349 16.2715C383.425 15.5093 383.603 14.8994 383.705 14.8994C384.01 14.8994 384.01 10.6561 383.705 10.4782C383.578 10.402 383.4 9.7922 383.298 9.13156C383.095 7.70864 382.129 5.6505 381.24 4.71036C380.91 4.35463 380.63 3.97349 380.63 3.82103C380.605 3.21121 376.616 0.975206 375.04 0.670295C374.227 0.51784 367.164 0.416202 357.356 0.416202C341.348 0.416202 341.018 0.416205 340.865 0.924389ZM366.884 2.70303C368.104 2.88089 369.12 3.18581 369.806 3.59235C370.391 3.94808 371.077 4.38004 371.356 4.5579C372.423 5.21854 373.821 7.78487 374.304 9.97006C374.71 11.8758 374.71 17.8977 374.304 19.778C373.948 21.455 372.423 23.7418 371.127 24.5295C370.06 25.1902 368.053 25.8254 366.986 25.8254C366.554 25.8254 366.096 25.927 366.02 26.0795C365.919 26.2319 364.343 26.3336 362.158 26.3336C358.931 26.3336 358.423 26.2828 358.118 25.8762C357.838 25.5459 357.788 23.2082 357.762 14.6199C357.762 2.09321 357.534 3.05876 360.481 2.72844C362.946 2.42353 364.724 2.42353 366.884 2.70303ZM372.499 29.2302C373.719 29.8655 375.752 31.8474 376.285 32.94C376.54 33.4227 376.895 34.3883 377.073 35.0997C377.251 35.7858 377.53 36.5227 377.683 36.7259C378.064 37.2341 378.064 47.1437 377.683 47.9568C377.505 48.2871 377.175 49.2272 376.946 50.0149C376.514 51.5395 375.726 52.8608 374.558 54.1312C373.745 55.0205 371.534 56.3164 370.822 56.3164C370.543 56.3164 370.162 56.4689 370.009 56.6213C369.781 56.85 368.18 56.977 364.292 57.0279C359.82 57.1041 358.829 57.0533 358.397 56.7484C357.915 56.3672 357.889 56.0115 357.813 43.0528C357.788 35.735 357.813 29.5097 357.889 29.1794L358.042 28.595L364.826 28.6712C370.848 28.7474 371.712 28.7983 372.499 29.2302Z" fill="black"/>
<path d="M393.589 1.28078C393.589 1.73815 393.741 2.24633 393.919 2.39879C394.072 2.52583 395.571 2.7037 397.197 2.75452C399.636 2.80533 400.271 2.90697 400.627 3.28811C401.059 3.72006 401.084 5.1938 401.161 29.2055C401.186 43.2059 401.161 55.0212 401.084 55.4532C400.805 57.0793 400.627 57.1556 396.613 57.308L392.954 57.4605V58.426V59.417H418.591C432.668 59.417 444.305 59.3154 444.407 59.1883C444.737 58.8326 445.169 40.7412 444.839 40.3601C444.686 40.1822 444.229 40.0552 443.797 40.106L443.009 40.1822L442.806 43.1043C442.704 44.7051 442.501 46.128 442.349 46.255C442.222 46.4075 442.12 46.7124 442.12 46.9411C442.12 47.1952 441.815 48.3132 441.459 49.4566C440.9 51.2861 440.621 51.718 439.223 53.1409C437.546 54.8433 436.149 55.631 433.862 56.1138C433.176 56.2663 432.439 56.4949 432.236 56.6728C431.982 56.8761 428.831 56.9523 421.437 56.9523H411.019L410.689 56.3171C410.435 55.8343 410.384 52.8868 410.435 43.1043L410.486 30.5268L414.551 30.4505C421.081 30.3489 423.571 30.9841 424.766 33.1185C425.426 34.3381 425.858 36.32 425.858 38.2766C425.858 39.0896 425.985 39.8519 426.112 39.9281C426.265 40.0044 426.366 40.538 426.366 41.097C426.366 42.0879 426.366 42.0879 427.383 42.0879H428.399V29.5104V16.9328H427.383H426.366V18.0763C426.366 18.7115 426.265 19.2197 426.138 19.2197C426.036 19.2197 425.884 20.2868 425.807 21.5827C425.655 24.1999 425.325 25.0892 423.978 26.2834C422.682 27.4014 420.954 27.7063 415.314 27.7063L410.486 27.7317L410.41 15.7386C410.359 3.99957 410.359 3.72006 410.867 3.21188C411.35 2.72911 411.705 2.7037 419.963 2.7037C429.797 2.7037 432.515 2.93238 434.37 3.87252C437.8 5.65116 439.833 9.38631 439.833 13.9346C439.833 15.7894 440.087 16.1706 441.282 16.1706H442.12V8.29372V0.41687H417.854H393.589V1.28078Z" fill="black"/>
<path d="M450.759 1.4074V2.37295L452.716 2.55081C453.783 2.62704 455.434 2.70327 456.4 2.70327C459.5 2.70327 459.144 -0.676155 459.144 29.7386C459.144 52.7085 459.093 56.2912 458.763 56.5707C458.534 56.774 456.959 56.9265 454.316 57.0027C449.921 57.1551 449.641 57.2568 449.794 58.5272L449.87 59.2387L462.676 59.3149C471.925 59.3403 475.584 59.2895 475.812 59.0862C476.244 58.7305 476.27 57.7904 475.863 57.3838C475.66 57.1806 474.542 57.0789 472.484 57.0789C469.587 57.0789 469.358 57.0535 468.85 56.4945L468.291 55.9101V42.6465V29.3829H473.195C475.863 29.4083 478.557 29.4845 479.116 29.6116C480.869 29.9419 483.003 31.5681 484.096 33.3722C485.519 35.7352 485.798 37.2598 486.205 44.9333C486.408 48.7193 486.687 51.9463 486.789 52.0987C486.916 52.2512 487.119 52.8356 487.221 53.3946C487.704 56.1896 489.305 58.2986 491.744 59.4166C493.04 59.9756 493.243 60.001 500.561 60.001H508.056V58.9846V57.9682L504.499 57.8412C500.535 57.6887 499.875 57.4601 498.807 55.9355C498.071 54.8683 497.867 53.9028 497.512 50.2184C497.359 48.6177 497.13 47.0677 497.029 46.7882C496.902 46.5087 496.622 44.4506 496.394 42.1891C495.809 36.345 495.174 34.3885 493.09 32.2287C491.007 30.0435 488.364 28.9001 484.426 28.4682C483.588 28.3665 482.774 28.2141 482.647 28.087C482.495 27.9854 481.758 27.8584 480.996 27.8075C479.395 27.7059 479.598 27.5789 482.241 26.969C487.018 25.9019 490.905 23.0814 492.633 19.4733C493.472 17.6947 493.548 17.3644 493.649 14.6456C493.726 12.9686 493.624 11.1645 493.446 10.326C493.116 8.77606 491.922 6.23514 491.032 5.24418C490.727 4.88845 490.321 4.35486 490.168 4.02454C490.016 3.71964 489.711 3.46554 489.533 3.46554C489.33 3.46554 489.05 3.28768 488.873 3.0844C488.72 2.90654 487.932 2.37295 487.145 1.91558C484.655 0.518074 483.588 0.441849 466.335 0.416439H450.759V1.4074ZM478.429 3.10981C480.589 3.97372 482.52 6.74332 483.308 10.0719C483.74 11.8506 483.74 18.1012 483.308 20.0577C482.495 23.8437 479.827 26.2576 475.812 26.8166C474.745 26.969 472.585 27.0961 471.061 27.0961H468.291L468.342 15.23L468.418 3.3639L469.054 3.03358C470.045 2.5254 477.134 2.57622 478.429 3.10981Z" fill="black"/>
</svg>
