<svg width="448" height="251" viewBox="0 0 448 251" fill="none" xmlns="http://www.w3.org/2000/svg">
<path d="M44.0717 140.814H141.456V143.564H44.0717V140.814ZM165.989 131.155H156.22V152.849H159.873V143.014H165.725C175.671 143.014 177.145 139.34 177.145 137.162C177.167 135.379 176.023 131.155 165.989 131.155ZM159.895 133.531H165.879C170.544 133.531 173.338 134.917 173.338 137.228C173.338 139.538 170.588 140.924 165.593 140.924H159.895V133.531ZM193.031 131.727H191.271L178.377 153.575H181.788L186.188 146.314H198.576L202.426 153.575H205.837L193.031 131.727ZM197.057 143.938H187.486L192.129 135.907L197.057 143.938ZM229.842 142.618C233.516 141.518 234.242 139.34 234.242 137.602C234.242 135.863 233.274 131.683 224.363 131.683H216.948V153.377H220.028V143.344H223.329C226.453 143.344 227.399 143.498 230.788 147.437L235.584 153.377H239.523L232.57 145.214C231.748 144.261 230.834 143.392 229.842 142.618ZM220.028 134.081H224.121C228.522 134.081 231.03 135.379 231.03 137.646C231.03 140.748 226.629 141.232 224.187 141.232H220.028V134.081ZM248.28 131.683H251.163V153.377H248.28V131.683ZM273.957 133.421C276.693 133.446 279.401 133.975 281.944 134.983L282.649 135.203V132.321H282.297C279.512 131.414 276.6 130.961 273.671 130.979C267.357 130.979 262.67 133.597 262.67 137.052C262.67 140.924 267.577 141.98 272.351 143.014C276.378 143.894 280.184 144.73 280.184 147.041C280.184 149.351 276.994 150.671 272.901 150.671C269.767 150.627 266.683 149.875 263.88 148.471L263.154 148.163V151.221L263.484 151.353C266.531 152.565 269.776 153.199 273.055 153.223C279.436 153.223 284.255 150.517 284.255 146.953C284.255 142.75 278.842 141.606 274.067 140.616C270.217 139.802 266.587 139.032 266.587 136.986C266.587 134.939 269.777 133.421 273.957 133.421ZM273.957 80.9022V80.7262C278.534 79.6481 286.191 75.9077 286.191 67.767C286.288 65.8277 285.88 63.8965 285.009 62.1615C284.138 60.4264 282.832 58.9465 281.218 57.866C278.336 55.6658 274.42 54.6097 267.533 54.6097H242.427V56.8099C249.71 57.382 250.282 58.02 250.37 67.811V100.55C250.37 110.495 249.622 111.001 241.855 111.551V113.751H263.594C269.681 114.038 275.752 112.908 281.328 110.451C284.005 109.182 286.258 107.169 287.819 104.652C289.38 102.135 290.182 99.2209 290.13 96.2597C290.218 87.1288 282.385 82.1123 273.957 80.9022ZM258.423 60.2642C258.423 58.4161 258.709 58.064 259.282 57.866C260.998 57.3869 262.784 57.201 264.562 57.316C275.564 57.316 277.962 63.4325 277.962 68.7791C277.962 76.3698 273.363 80.2642 264.452 80.2642H258.423V60.2642ZM266.388 110.869C259.656 110.869 258.423 109.109 258.423 102.882V83.0804H264.034C273.627 83.0804 281.042 87.7229 281.042 97.5138C281.042 107.305 274.42 110.825 266.388 110.825V110.869ZM91.4438 99.428L89.0455 99.164C88.1416 102.466 86.5772 105.549 84.4469 108.229C82.2467 110.429 77.8461 110.627 72.6754 110.627C68.1648 110.627 64.7324 110.627 62.9722 109.791C61.2119 108.955 60.7719 105.897 60.7719 100.616V84.5326H70.1891C74.2816 84.5326 76.3939 84.6866 77.538 85.7207C78.6822 86.7548 78.9022 88.603 79.3643 92.0353H81.7626V73.9715H79.3643C78.4842 80.5722 78.2201 81.1002 70.1891 81.1002H60.7719V60.5283C60.7719 57.866 60.9479 57.668 63.3902 57.668H70.6511C76.4819 57.668 79.4523 58.3281 80.9045 59.8682C82.3567 61.4083 83.3908 63.6526 84.3589 68.207L86.7572 67.943C86.2732 63.0365 85.7891 56.2819 85.7011 54.7417H44.5998V56.9419C51.9707 57.514 52.7408 58.152 52.7408 67.943V100.55C52.7408 110.495 51.9707 111.001 43.6317 111.551V113.751H88.0114C88.8475 111.199 90.9598 102.024 91.4438 99.428ZM149.201 111.551V113.751H176.617V111.551C167.508 111.001 166.738 110.495 166.738 100.55V57.668H172.876C178.817 57.668 181.215 58.3281 182.844 60.0882C184.721 62.4642 185.909 65.3111 186.276 68.317L188.476 68.053C188.08 63.6526 187.684 58.5041 187.508 54.5657H138.178C137.936 58.8561 137.474 63.6966 137.144 68.317H139.542C140.02 65.5632 141.069 62.9401 142.622 60.6163C144.053 58.8781 146.055 57.668 154.57 57.668H158.795V100.55C158.707 110.495 157.936 111.001 149.201 111.551ZM238.401 99.428L236.025 99.164C235.164 102.444 233.669 105.524 231.624 108.229C229.424 110.429 225.023 110.627 219.566 110.627C216.381 110.888 213.174 110.606 210.083 109.791C208.257 108.669 207.685 105.897 207.685 100.616V84.5326H217.344C221.195 84.5326 223.307 84.6866 224.539 85.7207C225.771 86.7548 226.079 88.603 226.563 92.0353H228.94V73.9715H226.629C225.661 80.5722 225.375 81.1002 217.41 81.1002H207.751V60.5283C207.751 57.866 207.949 57.668 210.611 57.668H217.828C223.395 57.668 226.629 58.3281 228.082 59.8682C230.038 62.2483 231.261 65.1452 231.602 68.207L233.802 67.943C233.472 63.0365 232.988 56.2819 232.878 54.7417H193.141V56.9419C200.798 57.514 199.984 58.152 199.984 67.943V100.55C199.984 110.495 199.214 111.001 190.611 111.551V113.751H235.056C235.827 111.199 237.939 102.024 238.401 99.428ZM104.25 113.685C107.261 114.596 110.389 115.063 113.535 115.071C126.032 115.071 135.538 107.481 135.538 96.7437C135.538 85.5447 125.02 81.7383 118.595 79.142C110.96 76.1058 105.9 73.0475 105.9 66.1828C105.878 64.8062 106.147 63.4406 106.689 62.175C107.231 60.9094 108.034 59.7723 109.045 58.838C110.056 57.9036 111.253 57.193 112.557 56.7526C113.862 56.3122 115.244 56.1517 116.615 56.2819C125.416 56.2819 128.299 62.7505 130.015 67.965L132.523 67.679C131.731 62.3764 131.115 58.6801 130.719 55.4458C129.426 55.1762 128.148 54.8384 126.89 54.4337C124.267 53.6605 121.55 53.2533 118.815 53.2236C105.922 53.2236 98.3747 61.1003 98.3747 69.9892C98.3747 80.8142 111.576 85.1706 114.987 86.6448C121.434 89.505 127.705 92.7614 127.705 100.352C127.705 107.569 123.15 112.013 115.515 112.013C105.108 112.013 99.9809 102.024 98.3747 97.6678L95.8664 98.0419C96.8785 103.036 98.0667 109.615 98.7708 111.727C100.564 112.469 102.392 113.122 104.25 113.685ZM386.964 54.4997V56.6999C393.015 56.9639 395.479 58.2621 395.941 61.4964C396.563 67.2461 396.813 73.03 396.689 78.812V100.33H396.491L359.086 54.4997H345.709V56.6999C349.559 56.9639 352.024 57.602 353.784 59.8242C355.544 62.0464 355.522 63.4105 355.522 69.8352V89.6371C355.641 95.4263 355.391 101.217 354.774 106.975C354.312 110.187 351.958 111.595 346.963 111.771C342.188 111.067 341.132 108.955 339.174 103.894L318.953 51.8154C317.005 54.492 314.625 56.8266 311.912 58.7241L313.343 61.4083L295.74 107.811C295.29 108.957 294.51 109.944 293.5 110.649C292.49 111.353 291.295 111.744 290.064 111.771V113.663H305.84V111.771C303.353 111.441 298.755 111.771 298.755 108.537C298.755 106.799 304.497 94.1035 305.355 90.9352H325.642C326.764 94.7855 331.473 105.919 331.473 108.537C331.473 111.793 326.918 111.793 324.3 111.793V113.685H368.834V111.485C362.783 111.221 360.297 110.187 359.857 106.953C359.264 101.194 359.021 95.4036 359.13 89.615V66.2708H359.307L398.009 114.235H400.452V78.746C400.338 72.9647 400.581 67.1819 401.178 61.4304C401.662 58.196 404.038 56.8099 409.077 56.6339V54.4337L386.964 54.4997ZM306.478 87.7449L315.081 64.7307L324.256 87.7889L306.478 87.7449ZM59.0556 171.023H47.3501V203.828H51.9267V189.219H58.7696C71.2012 189.219 72.6094 182.618 72.6094 179.89C72.6094 177.161 71.2452 171.023 59.0556 171.023ZM51.9267 174.279H58.9456C64.4463 174.279 67.7468 176.479 67.7468 179.956C67.7468 183.432 64.4904 185.654 58.5936 185.654H51.9927L51.9267 174.279ZM106.824 170.781L87.8574 203.784H92.764L98.8148 192.783H117.121L123.414 203.784H128.057L109.266 170.781H106.824ZM115.097 189.219H100.817L108.056 176.721L115.097 189.219ZM170.082 187.612C174.241 185.94 176.353 183.212 176.353 179.714C176.353 177.095 175.033 170.913 162.689 170.913H151.996V203.828H156.396V188.823H160.797C165.197 188.823 166.606 189.043 171.05 194.807L178.223 203.828H183.768L173.822 191.595C172.766 190.101 171.507 188.761 170.082 187.612ZM156.462 174.279H162.051C166.452 174.279 171.556 175.247 171.556 179.758C171.556 184.268 166.452 185.28 162.161 185.28H156.462V174.279ZM205.683 203.828H210.259V188.449H225.705V184.906H210.259V174.279H227.399V171.023H205.683V203.828ZM280.712 188.801C280.712 199.626 271.075 200.462 268.127 200.462C262.34 200.462 255.585 197.491 255.585 189.065V171.023H251.008V189.219C251.008 199.648 259.612 204.312 268.127 204.312C276.642 204.312 285.289 200.22 285.289 188.757V171.155H280.712V188.801ZM331.561 185.258L316.951 171.023H312.814V203.828H317.391V176.743L331.561 190.759L345.731 176.743V203.828H350.307V171.023H346.171L331.561 185.258ZM389.78 185.236C385.666 183.96 382.123 182.882 382.123 179.428C382.123 175.973 384.742 174.103 388.834 174.103C391.856 174.188 394.814 174.995 397.459 176.457L398.516 176.941V172.541L398.031 172.365C395.008 171.18 391.795 170.554 388.548 170.517C382.101 170.517 377.437 174.257 377.437 179.318C377.437 185.17 382.74 186.886 387.404 188.404C391.651 189.791 395.325 190.979 395.325 194.653C395.325 197.799 391.959 200.264 387.668 200.264C384.764 200.264 382.85 199.538 379.131 196.985L377.965 196.193V200.924L378.317 201.122C381.144 202.995 384.453 204.011 387.844 204.048C394.731 204.048 400.144 199.868 400.144 194.565C400.144 188.427 394.643 186.732 389.78 185.236ZM303.111 140.814H400.496V143.564H303.111V140.814Z" fill="black"/>
</svg>
