<svg xmlns="http://www.w3.org/2000/svg" width="64" height="64" viewBox="0 0 64 64">
  <rect width="64" height="64" rx="12" fill="#f8f5ef"/>
  <g transform="translate(10 10.9) scale(2.4)" fill="#38529F">
    <path d="M10.8257 17.4492C10.7777 17.4492 10.7537 17.4012 10.7537 17.3052C10.7537 17.2092 10.7777 17.1612 10.8257 17.1612C11.2737 17.1612 11.6097 17.1212 11.8337 17.0412C12.0577 16.9612 12.2257 16.8012 12.3377 16.5612C12.4497 16.3212 12.5377 15.9692 12.6017 15.5052L14.3777 3.52922L14.9537 2.73722L7.80172 17.2812C7.76972 17.3452 7.70572 17.3772 7.60972 17.3772C7.52972 17.3612 7.47372 17.3212 7.44172 17.2572L4.75372 4.44122C4.64172 3.92922 4.46572 3.55322 4.22572 3.31322C3.98572 3.07322 3.72972 2.92122 3.45772 2.85722C3.18572 2.77722 2.92972 2.73722 2.68972 2.73722C2.64172 2.73722 2.61772 2.68922 2.61772 2.59322C2.61772 2.49722 2.64172 2.44922 2.68972 2.44922C2.88172 2.44922 3.10572 2.45722 3.36172 2.47322C3.61772 2.48922 3.90572 2.49722 4.22572 2.49722C4.67372 2.49722 5.07372 2.48922 5.42572 2.47322C5.79372 2.45722 6.06572 2.44922 6.24172 2.44922C6.41772 2.44922 6.55372 2.52922 6.64972 2.68922C6.76172 2.84922 6.87372 3.18522 6.98572 3.69722L9.21772 14.2812L7.65772 16.5132L14.2097 3.04922C14.4017 2.64922 14.6977 2.44922 15.0977 2.44922C15.2417 2.44922 15.4737 2.45722 15.7937 2.47322C16.1137 2.48922 16.4017 2.49722 16.6577 2.49722C17.0097 2.49722 17.2977 2.48922 17.5217 2.47322C17.7617 2.45722 18.0017 2.44922 18.2417 2.44922C18.2737 2.44922 18.2897 2.49722 18.2897 2.59322C18.2897 2.68922 18.2737 2.73722 18.2417 2.73722C17.7617 2.73722 17.3937 2.84122 17.1377 3.04922C16.8817 3.24122 16.7057 3.67322 16.6097 4.34522L14.9537 15.5052C14.8577 16.1932 14.8817 16.6412 15.0257 16.8492C15.1857 17.0572 15.5617 17.1612 16.1537 17.1612C16.2017 17.1612 16.2257 17.2092 16.2257 17.3052C16.2257 17.4012 16.2017 17.4492 16.1537 17.4492C15.8017 17.4492 15.3937 17.4412 14.9297 17.4252C14.4817 17.4092 14.0017 17.4012 13.4897 17.4012C12.9777 17.4012 12.4977 17.4092 12.0497 17.4252C11.6017 17.4412 11.1937 17.4492 10.8257 17.4492ZM0.0737188 17.4492C0.0257188 17.4492 0.00171877 17.4012 0.00171877 17.3052C0.00171877 17.2092 0.0257188 17.1612 0.0737188 17.1612C0.617719 17.1612 1.09772 16.9132 1.51372 16.4172C1.92972 15.9212 2.21772 15.2492 2.37772 14.4012L4.51372 3.00122L5.08972 3.04922L3.04972 14.3292C2.88972 15.2092 2.92172 15.9052 3.14572 16.4172C3.36972 16.9132 3.75372 17.1612 4.29772 17.1612C4.34572 17.1612 4.36972 17.2092 4.36972 17.3052C4.36972 17.4012 4.34572 17.4492 4.29772 17.4492C4.00972 17.4492 3.68172 17.4412 3.31372 17.4252C2.96172 17.4092 2.56972 17.4012 2.13772 17.4012C1.76972 17.4012 1.40972 17.4092 1.05772 17.4252C0.721719 17.4412 0.393719 17.4492 0.0737188 17.4492Z"/>
  </g>
</svg>
