<svg width="68" height="18" viewBox="0 0 68 18" fill="none" xmlns="http://www.w3.org/2000/svg">
<path d="M10.8257 17.4492C10.7777 17.4492 10.7537 17.4012 10.7537 17.3052C10.7537 17.2092 10.7777 17.1612 10.8257 17.1612C11.2737 17.1612 11.6097 17.1212 11.8337 17.0412C12.0577 16.9612 12.2257 16.8012 12.3377 16.5612C12.4497 16.3212 12.5377 15.9692 12.6017 15.5052L14.3777 3.52922L14.9537 2.73722L7.80172 17.2812C7.76972 17.3452 7.70572 17.3772 7.60972 17.3772C7.52972 17.3612 7.47372 17.3212 7.44172 17.2572L4.75372 4.44122C4.64172 3.92922 4.46572 3.55322 4.22572 3.31322C3.98572 3.07322 3.72972 2.92122 3.45772 2.85722C3.18572 2.77722 2.92972 2.73722 2.68972 2.73722C2.64172 2.73722 2.61772 2.68922 2.61772 2.59322C2.61772 2.49722 2.64172 2.44922 2.68972 2.44922C2.88172 2.44922 3.10572 2.45722 3.36172 2.47322C3.61772 2.48922 3.90572 2.49722 4.22572 2.49722C4.67372 2.49722 5.07372 2.48922 5.42572 2.47322C5.79372 2.45722 6.06572 2.44922 6.24172 2.44922C6.41772 2.44922 6.55372 2.52922 6.64972 2.68922C6.76172 2.84922 6.87372 3.18522 6.98572 3.69722L9.21772 14.2812L7.65772 16.5132L14.2097 3.04922C14.4017 2.64922 14.6977 2.44922 15.0977 2.44922C15.2417 2.44922 15.4737 2.45722 15.7937 2.47322C16.1137 2.48922 16.4017 2.49722 16.6577 2.49722C17.0097 2.49722 17.2977 2.48922 17.5217 2.47322C17.7617 2.45722 18.0017 2.44922 18.2417 2.44922C18.2737 2.44922 18.2897 2.49722 18.2897 2.59322C18.2897 2.68922 18.2737 2.73722 18.2417 2.73722C17.7617 2.73722 17.3937 2.84122 17.1377 3.04922C16.8817 3.24122 16.7057 3.67322 16.6097 4.34522L14.9537 15.5052C14.8577 16.1932 14.8817 16.6412 15.0257 16.8492C15.1857 17.0572 15.5617 17.1612 16.1537 17.1612C16.2017 17.1612 16.2257 17.2092 16.2257 17.3052C16.2257 17.4012 16.2017 17.4492 16.1537 17.4492C15.8017 17.4492 15.3937 17.4412 14.9297 17.4252C14.4817 17.4092 14.0017 17.4012 13.4897 17.4012C12.9777 17.4012 12.4977 17.4092 12.0497 17.4252C11.6017 17.4412 11.1937 17.4492 10.8257 17.4492ZM0.0737188 17.4492C0.0257188 17.4492 0.00171877 17.4012 0.00171877 17.3052C0.00171877 17.2092 0.0257188 17.1612 0.0737188 17.1612C0.617719 17.1612 1.09772 16.9132 1.51372 16.4172C1.92972 15.9212 2.21772 15.2492 2.37772 14.4012L4.51372 3.00122L5.08972 3.04922L3.04972 14.3292C2.88972 15.2092 2.92172 15.9052 3.14572 16.4172C3.36972 16.9132 3.75372 17.1612 4.29772 17.1612C4.34572 17.1612 4.36972 17.2092 4.36972 17.3052C4.36972 17.4012 4.34572 17.4492 4.29772 17.4492C4.00972 17.4492 3.68172 17.4412 3.31372 17.4252C2.96172 17.4092 2.56972 17.4012 2.13772 17.4012C1.76972 17.4012 1.40972 17.4092 1.05772 17.4252C0.721719 17.4412 0.393719 17.4492 0.0737188 17.4492ZM20.1182 17.6652C19.5902 17.6652 19.2462 17.4652 19.0862 17.0652C18.9262 16.6652 18.9262 16.0812 19.0862 15.3132L20.0702 10.3212C20.2302 9.53722 20.1102 9.14522 19.7102 9.14522C19.5502 9.14522 19.3502 9.22522 19.1102 9.38522C18.8862 9.54522 18.6302 9.78522 18.3422 10.1052C18.2782 10.1692 18.2142 10.1692 18.1502 10.1052C18.0862 10.0252 18.0782 9.95322 18.1262 9.88922C18.7022 9.20122 19.2222 8.71322 19.6862 8.42522C20.1502 8.12122 20.6062 7.96922 21.0542 7.96922C21.5662 7.96922 21.9022 8.15322 22.0622 8.52122C22.2222 8.87322 22.2382 9.37722 22.1102 10.0332L21.1022 15.3132C21.0222 15.7612 21.0222 16.0652 21.1022 16.2252C21.1822 16.3692 21.2862 16.4412 21.4142 16.4412C21.5902 16.4412 21.7822 16.3612 21.9902 16.2012C22.1982 16.0412 22.4302 15.8412 22.6862 15.6012C22.7502 15.5372 22.8142 15.5372 22.8782 15.6012C22.9422 15.6652 22.9422 15.7292 22.8782 15.7932C22.3822 16.3852 21.9182 16.8492 21.4862 17.1852C21.0542 17.5052 20.5982 17.6652 20.1182 17.6652ZM21.7262 5.47322C21.3102 5.47322 20.9742 5.35322 20.7182 5.11322C20.4782 4.87322 20.3582 4.52922 20.3582 4.08122C20.3582 3.69722 20.4782 3.38522 20.7182 3.14522C20.9742 2.90522 21.3102 2.78522 21.7262 2.78522C22.1422 2.78522 22.4622 2.90522 22.6862 3.14522C22.9262 3.38522 23.0462 3.69722 23.0462 4.08122C23.0462 5.00922 22.6062 5.47322 21.7262 5.47322ZM24.9439 17.6412C24.6399 17.6412 24.4319 17.6172 24.3199 17.5692C24.2079 17.5372 24.1519 17.4972 24.1519 17.4492C24.1519 17.3852 24.1919 17.1772 24.2719 16.8252C24.3679 16.4732 24.4479 16.0892 24.5119 15.6732L26.7679 3.31322C26.8959 2.54522 26.8559 2.08122 26.6479 1.92122C26.4559 1.76122 26.0319 1.84122 25.3759 2.16122C25.3119 2.17722 25.2639 2.13722 25.2319 2.04122C25.1999 1.94522 25.2159 1.88922 25.2799 1.87322L28.9999 0.0492182C29.0639 0.0172176 29.1279 0.0252175 29.1919 0.0732179C29.2719 0.121218 29.3039 0.177218 29.2879 0.241219L27.1039 12.5292L26.2879 17.1612C26.2079 17.4812 25.7599 17.6412 24.9439 17.6412ZM31.1119 17.6652C30.6959 17.6652 30.3279 17.5532 30.0079 17.3292C29.7039 17.0892 29.3599 16.6652 28.9759 16.0572L27.5839 13.7532C27.4239 13.4652 27.2719 13.2972 27.1279 13.2492C26.9999 13.1852 26.7759 13.2012 26.4559 13.2972L28.9759 12.3132L30.6559 15.0012C30.9919 15.5452 31.2719 15.8972 31.4959 16.0572C31.7199 16.2012 31.9359 16.2732 32.1439 16.2732C32.3039 16.2732 32.4959 16.2252 32.7199 16.1292C32.9439 16.0172 33.1839 15.8572 33.4399 15.6492C33.5039 15.5852 33.5679 15.5932 33.6319 15.6732C33.6959 15.7372 33.6959 15.7932 33.6319 15.8412C32.5759 17.0572 31.7359 17.6652 31.1119 17.6652ZM26.4559 13.2972V12.8652C27.3839 12.6732 28.1439 12.4492 28.7359 12.1932C29.3439 11.9212 29.7919 11.6092 30.0799 11.2572C30.3839 10.8892 30.5519 10.4652 30.5839 9.98522C30.6159 9.64922 30.5759 9.38522 30.4639 9.19322C30.3679 9.00122 30.1839 8.90522 29.9119 8.90522C29.2719 8.90522 28.6959 9.24122 28.1839 9.91322C27.6719 10.5692 27.3119 11.4412 27.1039 12.5292L25.9999 11.6172C26.3839 10.9132 26.8639 10.2812 27.4399 9.72122C28.0319 9.16122 28.6719 8.71322 29.3599 8.37722C30.0639 8.04122 30.7599 7.87322 31.4479 7.87322C31.9599 7.87322 32.3279 7.95322 32.5519 8.11322C32.7919 8.27322 32.9439 8.46522 33.0079 8.68922C33.0719 8.91322 33.0879 9.12122 33.0559 9.31322C32.9759 9.82522 32.6639 10.3452 32.1199 10.8732C31.5759 11.3852 30.8239 11.8572 29.8639 12.2892C28.9199 12.7052 27.7839 13.0412 26.4559 13.2972ZM35.3865 17.7612C34.8425 17.7612 34.4105 17.5692 34.0905 17.1852C33.7865 16.7852 33.6985 16.1452 33.8265 15.2652C33.9385 14.4492 34.2105 13.6172 34.6425 12.7692C35.0905 11.9052 35.6345 11.1052 36.2745 10.3692C36.9305 9.61722 37.6185 9.01722 38.3385 8.56922C39.0745 8.10522 39.7785 7.87322 40.4505 7.87322C40.7705 7.87322 41.0985 7.93722 41.4345 8.06522C41.7705 8.17722 42.0585 8.36922 42.2985 8.64122C42.5545 8.89722 42.6985 9.24122 42.7305 9.67322L41.2905 8.88122C41.5625 8.84922 41.8425 8.72122 42.1305 8.49722C42.4345 8.27322 42.6905 8.00122 42.8985 7.68122C42.9305 7.63322 42.9865 7.62522 43.0665 7.65722C43.1625 7.68922 43.2025 7.72122 43.1865 7.75322L41.7945 15.3132C41.6505 16.0652 41.7385 16.4412 42.0585 16.4412C42.2185 16.4412 42.4105 16.3692 42.6345 16.2252C42.8585 16.0652 43.0985 15.8572 43.3545 15.6012C43.4025 15.5532 43.4585 15.5612 43.5225 15.6252C43.5865 15.6892 43.5945 15.7452 43.5465 15.7932C43.0505 16.3852 42.5785 16.8492 42.1305 17.1852C41.6985 17.5052 41.2745 17.6652 40.8585 17.6652C40.3465 17.6652 39.9945 17.4812 39.8025 17.1132C39.6265 16.7292 39.6025 16.1292 39.7305 15.3132L40.3305 11.9532L40.8345 11.5452C40.4505 12.8572 39.9545 13.9772 39.3465 14.9052C38.7385 15.8332 38.0905 16.5452 37.4025 17.0412C36.7145 17.5212 36.0425 17.7612 35.3865 17.7612ZM36.9225 16.0092C37.3065 16.0092 37.6905 15.8572 38.0745 15.5532C38.4585 15.2492 38.8105 14.8572 39.1305 14.3772C39.4665 13.8972 39.7465 13.3932 39.9705 12.8652C40.2105 12.3212 40.3705 11.8252 40.4505 11.3772C40.5785 10.6572 40.5305 10.0892 40.3065 9.67322C40.0825 9.25722 39.7305 9.04922 39.2505 9.04922C38.8025 9.04922 38.3625 9.23322 37.9305 9.60122C37.4985 9.96922 37.1145 10.4732 36.7785 11.1132C36.4425 11.7532 36.2025 12.4892 36.0585 13.3212C35.8985 14.3292 35.9145 15.0332 36.1065 15.4332C36.2985 15.8172 36.5705 16.0092 36.9225 16.0092ZM46.6506 17.7612C46.2346 17.7612 45.8426 17.6572 45.4746 17.4492C45.1066 17.2252 44.8346 16.8732 44.6586 16.3932C44.4826 15.8972 44.4666 15.2412 44.6106 14.4252C44.7706 13.5612 45.0746 12.7372 45.5226 11.9532C45.9706 11.1692 46.5066 10.4732 47.1306 9.86522C47.7546 9.24122 48.4106 8.75322 49.0986 8.40122C49.7866 8.04922 50.4586 7.87322 51.1146 7.87322C51.6426 7.87322 52.1066 8.00122 52.5066 8.25722C52.9226 8.51322 53.1466 8.92122 53.1786 9.48122L51.9786 11.5452C51.5146 12.7452 50.9946 13.8172 50.4186 14.7612C49.8586 15.6892 49.2586 16.4252 48.6186 16.9692C47.9946 17.4972 47.3386 17.7612 46.6506 17.7612ZM47.8506 16.0812C48.2986 16.0812 48.7226 15.9132 49.1226 15.5772C49.5386 15.2252 49.9066 14.7932 50.2266 14.2812C50.5626 13.7532 50.8426 13.2172 51.0666 12.6732C51.2906 12.1132 51.4346 11.6252 51.4986 11.2092C51.6266 10.4892 51.4986 9.95322 51.1146 9.60122C50.7466 9.23322 50.3066 9.04922 49.7946 9.04922C49.0426 9.04922 48.3946 9.40922 47.8506 10.1292C47.3226 10.8332 46.9466 11.8332 46.7226 13.1292C46.5626 14.1532 46.5866 14.9052 46.7946 15.3852C47.0026 15.8492 47.3546 16.0812 47.8506 16.0812ZM51.7866 17.6652C51.2426 17.6652 50.8986 17.4652 50.7546 17.0652C50.6106 16.6652 50.6026 16.0812 50.7306 15.3132L52.9386 3.31322C53.0666 2.54522 53.0266 2.08122 52.8186 1.92122C52.6266 1.76122 52.2026 1.84122 51.5466 2.16122C51.4826 2.17722 51.4346 2.13722 51.4026 2.04122C51.3706 1.94522 51.3866 1.88922 51.4506 1.87322L55.1706 0.0492182C55.2506 0.0172176 55.3226 0.0332174 55.3866 0.0972176C55.4506 0.161218 55.4746 0.209218 55.4586 0.241219L52.7706 15.3132C52.6906 15.7612 52.6826 16.0652 52.7466 16.2252C52.8266 16.3692 52.9306 16.4412 53.0586 16.4412C53.2346 16.4412 53.4266 16.3612 53.6346 16.2012C53.8426 16.0412 54.0746 15.8412 54.3306 15.6012C54.3946 15.5372 54.4586 15.5372 54.5226 15.6012C54.5866 15.6652 54.5866 15.7292 54.5226 15.7932C54.0266 16.3852 53.5626 16.8492 53.1306 17.1852C52.6986 17.5052 52.2506 17.6652 51.7866 17.6652ZM58.6553 17.7852C57.7753 17.7852 57.0713 17.5532 56.5433 17.0892C56.0313 16.6252 55.6953 16.0172 55.5353 15.2652C55.3753 14.5132 55.3753 13.6972 55.5353 12.8172C55.7273 11.8412 56.0793 10.9852 56.5913 10.2492C57.1033 9.49722 57.7273 8.91322 58.4633 8.49722C59.1993 8.08122 59.9913 7.87322 60.8393 7.87322C61.7353 7.87322 62.4473 8.09722 62.9753 8.54522C63.5033 8.97722 63.8553 9.56922 64.0313 10.3212C64.2073 11.0572 64.1993 11.8892 64.0073 12.8172C63.7993 13.9052 63.4073 14.8252 62.8313 15.5772C62.2713 16.3132 61.6233 16.8652 60.8873 17.2332C60.1513 17.6012 59.4073 17.7852 58.6553 17.7852ZM59.4713 17.1852C59.9833 17.1852 60.4233 16.8892 60.7913 16.2972C61.1753 15.6892 61.4553 14.8812 61.6313 13.8732C61.7593 13.1532 61.8153 12.4732 61.7993 11.8332C61.7993 11.1772 61.7273 10.5932 61.5833 10.0812C61.4393 9.56922 61.2393 9.16922 60.9833 8.88122C60.7273 8.59322 60.4153 8.44922 60.0473 8.44922C59.5993 8.44922 59.1833 8.72122 58.7993 9.26522C58.4153 9.80922 58.1193 10.6492 57.9113 11.7852C57.7833 12.5052 57.7273 13.1932 57.7433 13.8492C57.7593 14.5052 57.8313 15.0812 57.9593 15.5772C58.1033 16.0732 58.3033 16.4652 58.5593 16.7532C58.8153 17.0412 59.1193 17.1852 59.4713 17.1852ZM65.9697 17.6412C65.5537 17.6412 65.2177 17.5212 64.9617 17.2812C64.7217 17.0412 64.6017 16.7052 64.6017 16.2732C64.6017 15.8732 64.7217 15.5612 64.9617 15.3372C65.2177 15.0972 65.5537 14.9772 65.9697 14.9772C66.3857 14.9772 66.7057 15.0972 66.9297 15.3372C67.1697 15.5612 67.2897 15.8732 67.2897 16.2732C67.2897 17.1852 66.8497 17.6412 65.9697 17.6412Z" fill="black"/>
</svg>
